<svg width="328" height="328" viewBox="0 0 328 328" fill="none" xmlns="http://www.w3.org/2000/svg">
<path fill-rule="evenodd" clip-rule="evenodd" d="M240.498 162.355C240.498 119.024 205.088 83.8299 161.326 83.8299V77.7832C208.34 77.7832 246.516 115.613 246.516 162.355C246.516 209.098 208.34 246.927 161.326 246.927V240.881C205.088 240.881 240.498 205.687 240.498 162.355Z" fill="#131313"/>
<path fill-rule="evenodd" clip-rule="evenodd" d="M160.915 325.118V3.29102H167.088V325.118H160.915Z" fill="#131313"/>
<path fill-rule="evenodd" clip-rule="evenodd" d="M25.9248 77.7832H161.322V83.9564H25.9248V77.7832Z" fill="#131313"/>
<path fill-rule="evenodd" clip-rule="evenodd" d="M2.88184 161.326H164.207V167.088H2.88184V161.326Z" fill="#131313"/>
<path fill-rule="evenodd" clip-rule="evenodd" d="M23.4541 240.752H165.848V246.925H23.4541V240.752Z" fill="#131313"/>
<path fill-rule="evenodd" clip-rule="evenodd" d="M164 6.03681C76.7593 6.03681 6.03681 76.7593 6.03681 164C6.03681 251.241 76.7593 321.963 164 321.963C251.241 321.963 321.963 251.241 321.963 164C321.963 76.7593 251.241 6.03681 164 6.03681ZM0 164C0 73.4253 73.4253 0 164 0C254.575 0 328 73.4253 328 164C328 254.575 254.575 328 164 328C73.4253 328 0 254.575 0 164Z" fill="#131313"/>
<path fill-rule="evenodd" clip-rule="evenodd" d="M164 6.03681C76.7593 6.03681 6.03681 76.7593 6.03681 164C6.03681 251.241 76.7593 321.963 164 321.963C251.241 321.963 321.963 251.241 321.963 164C321.963 76.7593 251.241 6.03681 164 6.03681ZM0 164C0 73.4253 73.4253 0 164 0C254.575 0 328 73.4253 328 164C328 254.575 254.575 328 164 328C73.4253 328 0 254.575 0 164Z" fill="#131313"/>
<path d="M135.487 163.456C135.487 153.953 127.785 146.25 118.283 146.25C108.781 146.25 101.078 153.953 101.078 163.456" stroke="#131313" stroke-width="5.73217"/>
<path d="M148.39 163.454C148.39 146.825 134.91 133.344 118.282 133.344C101.654 133.344 88.1738 146.825 88.1738 163.454" stroke="#131313" stroke-width="5.73217"/>
<path d="M161.294 163.458C161.294 139.702 142.037 120.443 118.282 120.443C94.5275 120.443 75.2705 139.702 75.2705 163.458" stroke="#131313" stroke-width="5.73217"/>
<path d="M49.463 163.456C49.463 153.953 41.7602 146.25 32.2584 146.25C22.7565 146.25 15.0537 153.953 15.0537 163.456" stroke="#131313" stroke-width="5.73217"/>
<path d="M62.364 163.454C62.364 146.825 48.8841 133.344 32.2559 133.344C18.6168 133.344 7.0959 142.413 3.39453 154.851" stroke="#131313" stroke-width="5.73217"/>
<path d="M75.2698 163.458C75.2698 139.702 56.0128 120.443 32.2582 120.443C22.5753 120.443 13.6398 123.643 6.45117 129.043" stroke="#131313" stroke-width="5.73217"/>
<path d="M102.152 245.639C104.588 239.095 110.89 234.434 118.282 234.434C125.673 234.434 131.976 239.095 134.411 245.639" stroke="#131313" stroke-width="5.73217"/>
<path d="M147.693 245.186C144.739 231.657 132.691 221.527 118.278 221.527C103.864 221.527 91.8158 231.657 88.8623 245.186" stroke="#131313" stroke-width="5.73217"/>
<path d="M160.816 245.184C157.703 224.488 139.847 208.621 118.285 208.621C96.3514 208.621 78.2522 225.04 75.6064 246.259" stroke="#131313" stroke-width="5.73217"/>
<path d="M20.876 238.735C23.9089 236.058 27.8928 234.434 32.2561 234.434C39.4764 234.434 45.6579 238.882 48.2102 245.187" stroke="#131313" stroke-width="5.73217"/>
<path d="M15.0781 226.904C19.9494 223.515 25.8696 221.527 32.2538 221.527C46.6675 221.527 58.7156 231.657 61.6691 245.186" stroke="#131313" stroke-width="5.73217"/>
<path d="M74.8923 245.927C72.0999 224.869 54.0754 208.621 32.2562 208.621C24.6955 208.621 17.5905 210.572 11.417 213.998" stroke="#131313" stroke-width="5.73217"/>
<path d="M102.152 82.3515C104.588 88.8952 110.89 93.5566 118.282 93.5566C125.673 93.5566 131.976 88.8952 134.411 82.3515" stroke="#131313" stroke-width="5.73217"/>
<path d="M147.693 82.8047C144.739 96.3337 132.691 106.463 118.278 106.463C103.864 106.463 91.8158 96.3337 88.8623 82.8047" stroke="#131313" stroke-width="5.73217"/>
<path d="M160.816 82.8046C157.703 103.5 139.847 119.367 118.285 119.367C96.3514 119.367 78.2522 102.948 75.6064 81.7292" stroke="#131313" stroke-width="5.73217"/>
<path d="M136.224 4.92574C133.789 11.4694 127.486 16.1309 120.095 16.1309C115.732 16.1309 111.748 14.5065 108.715 11.8294" stroke="#131313" stroke-width="5.73217"/>
<path d="M149.508 5.37698C146.555 18.9059 134.506 29.0352 120.093 29.0352C110.692 29.0352 102.298 24.7265 96.7764 17.9762" stroke="#131313" stroke-width="5.73217"/>
<path d="M162.63 5.37486C159.517 26.0704 141.661 41.9375 120.099 41.9375C105.577 41.9375 92.7353 34.7397 84.9473 23.7167" stroke="#131313" stroke-width="5.73217"/>
<path d="M20.876 89.2552C23.9089 91.9322 27.8928 93.5566 32.2561 93.5566C39.4764 93.5566 45.6579 89.1085 48.2102 82.8029" stroke="#131313" stroke-width="5.73217"/>
<path d="M15.0781 101.086C19.9494 104.476 25.8696 106.463 32.2538 106.463C46.6675 106.463 58.7156 96.3337 61.6691 82.8047" stroke="#131313" stroke-width="5.73217"/>
<path d="M74.8923 82.0617C72.0999 103.119 54.0754 119.367 32.2562 119.367C24.6955 119.367 17.5905 117.416 11.417 113.99" stroke="#131313" stroke-width="5.73217"/>
<path d="M36.5611 165.609C36.5611 175.111 28.8583 182.814 19.3564 182.814C12.1361 182.814 5.9546 178.366 3.40234 172.061" stroke="#131313" stroke-width="5.73217"/>
<path d="M49.4629 165.608C49.4629 182.238 35.983 195.719 19.3548 195.719C14.3091 195.719 9.55324 194.477 5.37598 192.284" stroke="#131313" stroke-width="5.73217"/>
<path d="M62.366 165.606C62.366 189.363 43.1091 208.621 19.3544 208.621C16.0267 208.621 12.7873 208.243 9.67676 207.528" stroke="#131313" stroke-width="5.73217"/>
<path d="M122.583 165.609C122.583 175.111 114.88 182.814 105.378 182.814C95.8766 182.814 88.1738 175.111 88.1738 165.609" stroke="#131313" stroke-width="5.73217"/>
<path d="M135.487 165.608C135.487 182.238 122.007 195.719 105.379 195.719C88.7504 195.719 75.2705 182.238 75.2705 165.608" stroke="#131313" stroke-width="5.73217"/>
<path d="M148.39 165.606C148.39 189.363 129.134 208.621 105.379 208.621C81.6242 208.621 62.3672 189.363 62.3672 165.606" stroke="#131313" stroke-width="5.73217"/>
<path d="M34.4096 241.96C34.4096 246.542 33.0283 247.479 30.1084 250.562" stroke="#131313" stroke-width="5.73217"/>
<path d="M37.6338 261.314C41.7263 257.304 46.1811 250.397 48.2623 243.674" stroke="#131313" stroke-width="5.73217"/>
<path d="M46.2363 270.992C52.836 264.72 59.2009 254.308 61.4796 244.108" stroke="#131313" stroke-width="5.73217"/>
<path d="M89.6689 243.615C92.3578 249.611 98.3787 253.787 105.375 253.787C112.371 253.787 118.392 249.611 121.081 243.615" stroke="#131313" stroke-width="5.73217"/>
<path d="M134.407 244.587C130.902 257.331 119.231 266.693 105.374 266.693C91.735 266.693 80.2141 257.624 76.5127 245.186" stroke="#131313" stroke-width="5.73217"/>
<path d="M147.73 244.112C144.171 264.28 126.562 279.6 105.375 279.6C84.5662 279.6 67.2088 264.822 63.2236 245.188" stroke="#131313" stroke-width="5.73217"/>
<path d="M148.39 245.182C150.502 255.589 156.371 264.631 164.519 270.832" stroke="#131313" stroke-width="5.73217"/>
<path d="M148.39 163.458C150.502 173.864 156.371 182.907 164.519 189.107" stroke="#131313" stroke-width="5.73217"/>
<path d="M148.39 83.7219C150.502 73.3153 156.371 64.273 164.519 58.0723" stroke="#131313" stroke-width="5.73217"/>
<path d="M101.115 313.404C105.381 308.406 112.333 306.091 119.047 308.058C125.761 310.025 130.366 315.726 131.261 322.236" stroke="#131313" stroke-width="5.73217"/>
<path d="M143.996 324.134C143.837 310.918 134.922 298.901 121.518 295.387C108.325 291.927 94.8808 297.778 88.1463 308.871" stroke="#131313" stroke-width="5.73217"/>
<path d="M158.189 324.976C158.291 304.498 143.703 286.277 122.857 282.491C104.737 279.199 87.2075 287.781 78.2665 302.696" stroke="#131313" stroke-width="5.73217"/>
<path d="M34.4096 80.6518C34.4096 76.0698 33.0283 75.1323 30.1084 72.0488" stroke="#131313" stroke-width="5.73217"/>
<path d="M37.6338 61.2969C41.7263 65.3076 46.1811 72.2147 48.2623 78.937" stroke="#131313" stroke-width="5.73217"/>
<path d="M46.2363 51.6191C52.836 57.8913 59.2009 68.3032 61.4796 78.5034" stroke="#131313" stroke-width="5.73217"/>
<path d="M89.6689 78.9963C92.3578 73.0005 98.3787 68.8242 105.375 68.8242C112.371 68.8242 118.392 73.0005 121.081 78.9963" stroke="#131313" stroke-width="5.73217"/>
<path d="M134.411 79.5761C130.906 66.8316 119.232 55.918 105.375 55.918C91.736 55.918 80.0471 67.1384 76.3457 79.5761" stroke="#131313" stroke-width="5.73217"/>
<path d="M147.731 78.5029C144.171 58.3356 126.562 43.0156 105.375 43.0156C84.5666 43.0156 66.3524 58.8688 62.3672 78.5029" stroke="#131313" stroke-width="5.73217"/>
<ellipse cx="68.8191" cy="208.622" rx="8.60233" ry="8.60297" fill="#131313"/>
<ellipse cx="75.2703" cy="120.443" rx="8.60233" ry="8.60298" fill="#131313"/>
<ellipse cx="68.8191" cy="43.0131" rx="8.60233" ry="8.60297" fill="#131313"/>
<ellipse cx="66.6678" cy="279.595" rx="8.60233" ry="8.60297" fill="#131313"/>
<ellipse cx="150.541" cy="49.4663" rx="8.60233" ry="8.60297" fill="#131313"/>
<ellipse cx="154.842" cy="120.443" rx="8.60233" ry="8.60298" fill="#131313"/>
<ellipse cx="150.541" cy="200.019" rx="8.60233" ry="8.60297" fill="#131313"/>
<ellipse cx="150.541" cy="275.296" rx="8.60233" ry="8.60297" fill="#131313"/>
</svg>
