<svg width="330" height="330" viewBox="0 0 330 330" fill="none" xmlns="http://www.w3.org/2000/svg">
<path fill-rule="evenodd" clip-rule="evenodd" d="M241.499 163.353C241.499 120.022 206.089 84.8279 162.327 84.8279V78.7812C209.341 78.7812 247.517 116.611 247.517 163.353C247.517 210.096 209.341 247.926 162.327 247.926V241.879C206.089 241.879 241.499 206.685 241.499 163.353Z" fill="#131313" stroke="#131313" stroke-width="0.773964" stroke-miterlimit="10"/>
<path fill-rule="evenodd" clip-rule="evenodd" d="M161.915 326.12V4.29297H168.088V326.12H161.915Z" fill="#131313" stroke="#131313" stroke-width="0.773964" stroke-miterlimit="10"/>
<path fill-rule="evenodd" clip-rule="evenodd" d="M26.9258 78.7812H162.323V84.9544H26.9258V78.7812Z" fill="#131313" stroke="#131313" stroke-width="0.773964" stroke-miterlimit="10"/>
<path fill-rule="evenodd" clip-rule="evenodd" d="M3.88184 162.324H165.207V168.086H3.88184V162.324Z" fill="#131313" stroke="#131313" stroke-width="0.773964" stroke-miterlimit="10"/>
<path fill-rule="evenodd" clip-rule="evenodd" d="M24.4561 241.752H166.85V247.925H24.4561V241.752Z" fill="#131313" stroke="#131313" stroke-width="0.773964" stroke-miterlimit="10"/>
<path fill-rule="evenodd" clip-rule="evenodd" d="M165 7.03681C77.7593 7.03681 7.03681 77.7593 7.03681 165C7.03681 252.241 77.7593 322.963 165 322.963C252.241 322.963 322.963 252.241 322.963 165C322.963 77.7593 252.241 7.03681 165 7.03681ZM1 165C1 74.4253 74.4253 1 165 1C255.575 1 329 74.4253 329 165C329 255.575 255.575 329 165 329C74.4253 329 1 255.575 1 165Z" fill="#131313" stroke="#131313" stroke-width="0.773964" stroke-miterlimit="10"/>
<path fill-rule="evenodd" clip-rule="evenodd" d="M165 7.03681C77.7593 7.03681 7.03681 77.7593 7.03681 165C7.03681 252.241 77.7593 322.963 165 322.963C252.241 322.963 322.963 252.241 322.963 165C322.963 77.7593 252.241 7.03681 165 7.03681ZM1 165C1 74.4253 74.4253 1 165 1C255.575 1 329 74.4253 329 165C329 255.575 255.575 329 165 329C74.4253 329 1 255.575 1 165Z" fill="#131313" stroke="#131313" stroke-width="0.773964" stroke-miterlimit="10"/>
<rect x="4.71409" width="24.3305" height="24.3305" transform="matrix(0.70708 -0.707133 0.70708 0.707133 6.68261 127.337)" stroke="#131313" stroke-width="6.66698"/>
<rect x="4.71409" width="24.3305" height="24.3305" transform="matrix(0.70708 -0.707133 0.70708 0.707133 49.6933 127.337)" stroke="#131313" stroke-width="6.66698"/>
<rect x="4.71409" width="24.3305" height="24.3305" transform="matrix(0.70708 -0.707133 0.70708 0.707133 92.7041 127.337)" stroke="#131313" stroke-width="6.66698"/>
<rect width="45.4476" height="6.45198" transform="matrix(0.70708 -0.707133 0.70708 0.707133 34.2158 112.717)" fill="#131313"/>
<rect width="45.4476" height="6.45198" transform="matrix(0.70708 -0.707133 0.70708 0.707133 76.2705 112.717)" fill="#131313"/>
<rect width="45.4476" height="6.45198" transform="matrix(0.70708 -0.707133 0.70708 0.707133 119.282 112.717)" fill="#131313"/>
<rect width="45.4476" height="6.45198" transform="matrix(0.70708 -0.707133 0.70708 0.707133 112.83 162.182)" fill="#131313"/>
<rect width="45.4476" height="6.45198" transform="matrix(0.70708 -0.707133 0.70708 0.707133 69.8193 162.182)" fill="#131313"/>
<rect width="45.4476" height="6.45198" transform="matrix(0.70708 -0.707133 0.70708 0.707133 26.8076 162.182)" fill="#131313"/>
<rect width="25.4155" height="6.45198" transform="matrix(0.70708 -0.707133 0.70708 0.707133 2.25977 148.018)" fill="#131313"/>
<path fill-rule="evenodd" clip-rule="evenodd" d="M143.764 124.003L156.254 111.513L161.217 116.477L162.295 117.554V108.125L160.968 106.798L156.254 102.084L151.54 106.798L139.05 119.289L134.336 124.003L139.05 128.718L151.54 141.208L156.254 145.923L160.968 141.208L162.295 139.881V130.452L161.217 131.53L156.254 136.494L143.764 124.003Z" fill="#131313"/>
<rect x="-4.71409" width="24.3305" height="24.3305" transform="matrix(-0.70708 -0.707133 -0.70708 0.707133 125.18 202.399)" stroke="#131313" stroke-width="6.66698"/>
<rect x="-4.71409" width="24.3305" height="24.3305" transform="matrix(-0.70708 -0.707133 -0.70708 0.707133 82.1675 202.399)" stroke="#131313" stroke-width="6.66698"/>
<rect width="45.4476" height="6.45198" transform="matrix(-0.707081 -0.707133 -0.707081 0.707133 147.324 194.441)" fill="#131313"/>
<rect width="45.4476" height="6.45198" transform="matrix(-0.70708 -0.707133 -0.70708 0.707133 105.27 194.441)" fill="#131313"/>
<rect width="45.4476" height="6.45198" transform="matrix(-0.70708 -0.707133 -0.70708 0.707133 62.2578 194.441)" fill="#131313"/>
<rect width="20.5696" height="6.45198" transform="matrix(-0.70708 -0.707133 -0.70708 0.707133 21.5322 194.441)" fill="#131313"/>
<rect width="45.4476" height="6.45198" transform="matrix(-0.70708 -0.707133 -0.70708 0.707133 68.71 243.91)" fill="#131313"/>
<rect width="45.4476" height="6.45198" transform="matrix(-0.70708 -0.707133 -0.70708 0.707133 111.721 243.91)" fill="#131313"/>
<rect width="45.4476" height="6.45198" transform="matrix(-0.70708 -0.707133 -0.70708 0.707133 154.732 243.91)" fill="#131313"/>
<path fill-rule="evenodd" clip-rule="evenodd" d="M37.7759 205.732L25.2864 193.241L20.3226 198.206L12.7969 205.732L20.3226 213.258L25.2864 218.222L37.7759 205.732ZM47.2041 205.732L42.49 201.017L30.0005 188.527L25.2864 183.812L20.5723 188.527L15.6085 193.491L8.4941 200.606V210.858L15.6085 217.973L20.5723 222.937L25.2864 227.651L30.0005 222.937L42.49 210.446L47.2041 205.732Z" fill="#131313"/>
<rect x="-4.71409" width="24.3305" height="24.3305" transform="matrix(-0.70708 -0.707133 -0.70708 0.707133 126.29 36.7896)" stroke="#131313" stroke-width="6.66698"/>
<rect width="15.5123" height="6.45198" transform="matrix(-0.70708 -0.707133 -0.70708 0.707133 106.378 28.8359)" fill="#131313"/>
<rect width="32.277" height="6.45198" transform="matrix(-0.70708 -0.707133 -0.70708 0.707133 149.523 28.8359)" fill="#131313"/>
<rect width="31.6657" height="6.45198" transform="matrix(-0.70708 -0.707133 -0.70708 0.707133 69.8193 78.3027)" fill="#131313"/>
<rect width="45.4476" height="6.45198" transform="matrix(-0.70708 -0.707133 -0.70708 0.707133 112.83 78.3027)" fill="#131313"/>
<rect width="45.4476" height="6.45198" transform="matrix(-0.70708 -0.707133 -0.70708 0.707133 155.841 78.3027)" fill="#131313"/>
<path fill-rule="evenodd" clip-rule="evenodd" d="M163.335 202.256L154.321 193.241L141.832 205.732L154.321 218.222L163.335 209.208V218.637L159.035 222.937L154.321 227.651L149.607 222.937L137.117 210.446L132.403 205.732L137.117 201.017L149.607 188.527L154.321 183.812L159.035 188.527L163.335 192.827V202.256Z" fill="#131313"/>
<rect x="4.71409" width="24.3305" height="24.3305" transform="matrix(0.70708 -0.707133 0.70708 0.707133 90.5537 288.644)" stroke="#131313" stroke-width="6.66698"/>
<rect width="36.4056" height="6.45198" transform="matrix(0.70708 -0.707133 0.70708 0.707133 38.458 267.627)" fill="#131313"/>
<rect width="45.4476" height="6.45198" transform="matrix(0.70708 -0.707133 0.70708 0.707133 74.1201 274.02)" fill="#131313"/>
<rect width="45.4476" height="6.45198" transform="matrix(0.70708 -0.707133 0.70708 0.707133 117.132 274.02)" fill="#131313"/>
<rect width="37.6483" height="6.45198" transform="matrix(0.70708 -0.707133 0.70708 0.707133 116.19 317.971)" fill="#131313"/>
<rect width="19.831" height="6.45198" transform="matrix(0.707081 -0.707133 0.707081 0.707133 85.7812 305.373)" fill="#131313"/>
<path fill-rule="evenodd" clip-rule="evenodd" d="M141.615 285.308L154.104 272.818L159.068 277.782L164.445 283.159V276.294H167.008L163.782 273.067L158.818 268.103L154.104 263.389L149.39 268.103L136.901 280.594L132.187 285.308L136.901 290.022L149.39 302.513L154.104 307.227L158.818 302.513L163.782 297.549L167.831 293.5H164.445V287.457L159.068 292.834L154.104 297.798L141.615 285.308Z" fill="#131313"/>
<path fill-rule="evenodd" clip-rule="evenodd" d="M53.3105 45.9512L64.6917 57.3332L69.4057 62.0476L74.1198 57.3332L86.6094 44.8427L91.3234 40.1283L86.6094 35.4138L77.37 26.1738L72.1953 30.4276L81.8953 40.1283L69.4057 52.6187L58.4853 41.6975L53.3105 45.9512Z" fill="#131313"/>
<path fill-rule="evenodd" clip-rule="evenodd" d="M164.443 35.825L156.253 27.634L143.763 40.1244L156.253 52.6149L164.443 44.4238V53.8527L160.967 57.3293L156.253 62.0438L151.539 57.3293L139.049 44.8389L134.335 40.1244L139.049 35.41L151.539 22.9195L156.253 18.2051L160.967 22.9195L164.443 26.3961V35.825Z" fill="#131313"/>
<path fill-rule="evenodd" clip-rule="evenodd" d="M56.5399 284.358L68.0794 272.818L80.5689 285.308L70.0866 295.791L75.1997 300.107L85.283 290.022L89.9971 285.308L85.283 280.594L72.7935 268.103L68.0794 263.389L63.3653 268.103L51.4268 280.043L56.5399 284.358Z" fill="#131313"/>
</svg>
