<svg width="330" height="330" viewBox="0 0 330 330" fill="none" xmlns="http://www.w3.org/2000/svg">
<path fill-rule="evenodd" clip-rule="evenodd" d="M241.498 163.353C241.498 120.022 206.088 84.8279 162.326 84.8279V78.7812C209.34 78.7812 247.516 116.611 247.516 163.353C247.516 210.096 209.34 247.926 162.326 247.926V241.879C206.088 241.879 241.498 206.685 241.498 163.353Z" fill="#131313" stroke="#131313" stroke-width="0.773178" stroke-miterlimit="10"/>
<path fill-rule="evenodd" clip-rule="evenodd" d="M161.915 326.122V4.29492H168.088V326.122H161.915Z" fill="#131313" stroke="#131313" stroke-width="0.773178" stroke-miterlimit="10"/>
<path fill-rule="evenodd" clip-rule="evenodd" d="M26.9248 78.7812H162.322V84.9544H26.9248V78.7812Z" fill="#131313" stroke="#131313" stroke-width="0.773178" stroke-miterlimit="10"/>
<path fill-rule="evenodd" clip-rule="evenodd" d="M3.88086 162.324H165.206V168.086H3.88086V162.324Z" fill="#131313" stroke="#131313" stroke-width="0.773178" stroke-miterlimit="10"/>
<path fill-rule="evenodd" clip-rule="evenodd" d="M24.4551 241.752H166.849V247.925H24.4551V241.752Z" fill="#131313" stroke="#131313" stroke-width="0.773178" stroke-miterlimit="10"/>
<path fill-rule="evenodd" clip-rule="evenodd" d="M165 7.03681C77.7593 7.03681 7.03681 77.7593 7.03681 165C7.03681 252.241 77.7593 322.963 165 322.963C252.241 322.963 322.963 252.241 322.963 165C322.963 77.7593 252.241 7.03681 165 7.03681ZM1 165C1 74.4253 74.4253 1 165 1C255.575 1 329 74.4253 329 165C329 255.575 255.575 329 165 329C74.4253 329 1 255.575 1 165Z" fill="#131313" stroke="#131313" stroke-width="0.773178" stroke-miterlimit="10"/>
<path fill-rule="evenodd" clip-rule="evenodd" d="M165 7.03681C77.7593 7.03681 7.03681 77.7593 7.03681 165C7.03681 252.241 77.7593 322.963 165 322.963C252.241 322.963 322.963 252.241 322.963 165C322.963 77.7593 252.241 7.03681 165 7.03681ZM1 165C1 74.4253 74.4253 1 165 1C255.575 1 329 74.4253 329 165C329 255.575 255.575 329 165 329C74.4253 329 1 255.575 1 165Z" fill="#131313" stroke="#131313" stroke-width="0.773178" stroke-miterlimit="10"/>
<path fill-rule="evenodd" clip-rule="evenodd" d="M99.5754 19.609C99.972 19.0048 100.279 18.5376 98.8516 17.1287C100.618 18.8732 101.644 18.5202 102.534 18.2137C103.453 17.8973 104.228 17.6303 105.528 19.7692L105.639 19.9517C108.329 24.3792 110.76 28.3463 113.716 31.2653C116.549 34.0639 119.715 35.745 123.933 35.745C128.154 35.745 131.323 34.0633 134.157 31.2648C137.113 28.346 139.546 24.3789 142.236 19.9517L142.35 19.7631L142.35 19.7631C144.907 15.5535 147.722 10.9198 151.309 7.37677C155.072 3.66025 159.82 0.998047 166.155 0.998047V7.55841C161.937 7.55841 158.771 9.23956 155.938 12.0381C152.983 14.9571 150.551 18.9242 147.861 23.3517L147.75 23.5342L147.75 23.5344C145.191 27.7458 142.375 32.3823 138.784 35.9271C135.02 39.6437 130.27 42.3054 123.933 42.3054C117.598 42.3054 112.85 39.6432 109.087 35.9266C105.5 32.3836 102.685 27.75 100.128 23.5405L100.014 23.3517C98.6221 21.0615 99.1504 20.2566 99.5754 19.609Z" fill="#131313"/>
<path fill-rule="evenodd" clip-rule="evenodd" d="M54.3441 43.94C52.8267 45.5791 54.2987 46.096 54.9673 46.225C54.7644 46.2094 54.4439 46.192 53.9693 46.18C54.1565 46.1977 53.9935 46.236 53.6404 46.319C52.6504 46.5519 50.1659 47.1362 49.7168 48.6024C52.6731 51.5212 55.1055 55.4883 57.7953 59.9154L57.9099 60.1042C60.4672 64.3137 63.2821 68.9474 66.869 72.4904C70.6316 76.2069 75.3799 78.8691 81.7146 78.8691C88.0516 78.8691 92.802 76.2075 96.5662 72.4909C100.157 68.946 102.973 64.3095 105.532 60.098L105.643 59.9154C108.333 55.488 110.764 51.5209 113.719 48.6019C116.553 45.8033 119.719 44.1222 123.937 44.1222C128.158 44.1222 131.327 45.8039 134.161 48.6024C137.117 51.5212 139.55 55.4883 142.24 59.9154L142.354 60.104L142.354 60.1041C144.911 64.3137 147.726 68.9474 151.313 72.4904C155.076 76.2069 159.824 78.8691 166.159 78.8691V72.3088C161.941 72.3088 158.775 70.6276 155.942 67.8291C152.986 64.9101 150.555 60.943 147.865 56.5155L147.754 56.333L147.754 56.3327L147.754 56.3327C145.195 52.1213 142.379 47.4849 138.788 43.94C135.024 40.2235 130.274 37.5618 123.937 37.5618C117.602 37.5618 112.854 40.224 109.091 43.9405C105.504 47.4836 102.689 52.1172 100.132 56.3267L100.017 56.5155C97.3276 60.9426 94.8952 64.9097 91.9389 67.8286C89.1045 70.6271 85.9361 72.3088 81.7146 72.3088C77.4968 72.3088 74.3306 70.6276 71.4974 67.8291C68.5422 64.9101 66.1105 60.943 63.4205 56.5155L63.3096 56.333C60.7512 52.1215 57.9345 47.485 54.3441 43.94ZM52.6141 46.1648C53.3907 46.1648 53.8088 46.1648 53.9693 46.18C53.6107 46.1709 53.1642 46.1648 52.6141 46.1648Z" fill="#131313"/>
<path fill-rule="evenodd" clip-rule="evenodd" d="M15.8488 104.383C16.4788 104.217 16.9345 104.096 15.5774 102.756C17.4076 104.563 18.14 103.666 18.7571 102.911C19.3505 102.184 19.8374 101.587 21.0916 103.652L21.2026 103.835C23.8925 108.262 26.3243 112.229 29.2794 115.148C32.1127 117.947 35.2788 119.628 39.4967 119.628C43.7181 119.628 46.8866 117.946 49.721 115.148C52.6773 112.229 55.1097 108.262 57.7994 103.835L57.9141 103.646C60.4713 99.4363 63.2863 94.8026 66.8732 91.2596C70.6358 87.5431 75.384 84.8809 81.7188 84.8809C88.0558 84.8809 92.8061 87.5425 96.5704 91.2591C100.161 94.804 102.977 99.4405 105.536 103.652L105.647 103.835C108.337 108.262 110.769 112.229 113.724 115.148C116.557 117.947 119.723 119.628 123.941 119.628C128.162 119.628 131.331 117.946 134.165 115.148C137.121 112.229 139.554 108.262 142.244 103.835L142.358 103.646C144.915 99.4364 147.73 94.8027 151.317 91.2596C155.08 87.5431 159.828 84.8809 166.163 84.8809V91.4412C161.945 91.4412 158.779 93.1224 155.946 95.9209C152.991 98.8399 150.559 102.807 147.869 107.234L147.758 107.417L147.758 107.417C145.199 111.629 142.383 116.265 138.793 119.81C135.028 123.527 130.278 126.188 123.941 126.188C117.606 126.188 112.858 123.526 109.095 119.809C105.508 116.266 102.694 111.633 100.136 107.423L100.022 107.234C97.3318 102.807 94.8994 98.8403 91.9431 95.9214C89.1087 93.1229 85.9402 91.4412 81.7188 91.4412C77.5009 91.4412 74.3348 93.1224 71.5016 95.9209C68.5464 98.8399 66.1147 102.807 63.4247 107.234L63.3138 107.417C60.7554 111.629 57.9387 116.265 54.3483 119.81C50.584 123.527 45.8337 126.188 39.4967 126.188C33.162 126.188 28.4137 123.526 24.6511 119.809C21.0642 116.266 18.2493 111.633 15.6921 107.423L15.5774 107.234C14.1223 104.84 15.1066 104.58 15.8488 104.383Z" fill="#131313"/>
<path fill-rule="evenodd" clip-rule="evenodd" d="M5.5342 156.072C5.008 158.23 4.53911 160.152 2.07617 160.152C8.29236 160.152 8.3583 160.087 11.9116 156.576C11.9807 156.508 12.051 156.439 12.1228 156.368C15.7131 152.823 18.5297 148.187 21.0882 143.975L21.1992 143.792C23.8891 139.365 26.3209 135.398 29.276 132.479C32.1092 129.68 35.2754 127.999 39.4933 127.999C43.7147 127.999 46.8832 129.681 49.7176 132.479C52.6739 135.398 55.1063 139.365 57.796 143.792L57.9107 143.981C60.4679 148.191 63.2829 152.824 66.8698 156.367C70.6324 160.084 75.3806 162.746 81.7154 162.746C88.0524 162.746 92.8027 160.084 96.567 156.368C100.157 152.823 102.974 148.186 105.533 143.975L105.643 143.792C108.333 139.365 110.765 135.398 113.72 132.479C116.553 129.68 119.72 127.999 123.938 127.999C128.159 127.999 131.327 129.681 134.162 132.479C137.118 135.398 139.551 139.365 142.24 143.792L142.355 143.981C144.912 148.191 147.727 152.824 151.314 156.367C155.077 160.084 159.825 162.746 166.16 162.746V156.186C161.942 156.186 158.776 154.505 155.942 151.706C152.987 148.787 150.555 144.82 147.865 140.392L147.755 140.21L147.755 140.21C145.196 135.998 142.379 131.362 138.789 127.817C135.025 124.1 130.275 121.439 123.938 121.439C117.603 121.439 112.854 124.101 109.092 127.818C105.505 131.361 102.69 135.994 100.133 140.204L100.018 140.392C97.3284 144.82 94.896 148.787 91.9397 151.706C89.1053 154.504 85.9368 156.186 81.7154 156.186C77.4975 156.186 74.3314 154.505 71.4981 151.706C68.543 148.787 66.1113 144.82 63.4213 140.392L63.3104 140.21C60.752 135.998 57.9353 131.362 54.3449 127.817C50.5806 124.1 45.8303 121.439 39.4933 121.439C33.1586 121.439 28.4102 124.101 24.6477 127.818C21.0608 131.36 18.2459 135.994 15.6887 140.204L15.574 140.392C12.8842 144.82 10.4518 148.787 7.49547 151.706C6.31478 152.871 5.90988 154.531 5.5342 156.072Z" fill="#131313"/>
<path fill-rule="evenodd" clip-rule="evenodd" d="M5.5285 173.092C5.00459 170.819 4.53022 168.76 2.07617 168.76C7.89431 168.76 8.32464 169.191 11.2694 172.138C11.532 172.4 11.8146 172.683 12.1228 172.988C15.7131 176.532 18.5297 181.169 21.0882 185.38L21.1992 185.563C23.8891 189.991 26.3209 193.958 29.276 196.877C32.1092 199.675 35.2754 201.356 39.4933 201.356C43.7147 201.356 46.8832 199.675 49.7176 196.876C52.6739 193.957 55.1063 189.99 57.796 185.563L57.9107 185.374C60.4679 181.165 63.2829 176.531 66.8698 172.988C70.6324 169.272 75.3806 166.609 81.7154 166.609C88.0524 166.609 92.8027 169.271 96.567 172.988C100.157 176.533 102.974 181.169 105.533 185.381L105.643 185.563C108.333 189.991 110.765 193.958 113.72 196.877C116.553 199.675 119.72 201.356 123.938 201.356C128.159 201.356 131.327 199.675 134.162 196.876C137.118 193.957 139.551 189.99 142.24 185.563L142.355 185.374C144.912 181.165 147.727 176.531 151.314 172.988C155.077 169.272 159.825 166.609 166.16 166.609V173.17C161.942 173.17 158.776 174.851 155.942 177.649C152.987 180.568 150.555 184.536 147.865 188.963L147.755 189.146L147.755 189.146C145.196 193.357 142.379 197.994 138.789 201.538C135.025 205.255 130.275 207.917 123.938 207.917C117.603 207.917 112.854 205.254 109.092 201.538C105.505 197.995 102.69 193.361 100.133 189.152L100.018 188.963C97.3284 184.536 94.896 180.569 91.9397 177.65C89.1053 174.851 85.9368 173.17 81.7154 173.17C77.4975 173.17 74.3314 174.851 71.4981 177.649C68.543 180.568 66.1113 184.536 63.4213 188.963L63.3104 189.146C60.752 193.357 57.9353 197.994 54.3449 201.538C50.5806 205.255 45.8303 207.917 39.4933 207.917C33.1586 207.917 28.4102 205.254 24.6477 201.538C21.0608 197.995 18.2459 193.361 15.6887 189.152L15.574 188.963C12.8842 184.536 10.4518 180.569 7.49547 177.65C6.30881 176.478 5.90581 174.73 5.5285 173.092Z" fill="#131313"/>
<path fill-rule="evenodd" clip-rule="evenodd" d="M15.4573 225.66C15.9787 226.146 16.381 226.52 14.9769 227.907C16.7645 226.142 17.652 226.634 18.4085 227.053C19.1713 227.475 19.8008 227.824 21.0854 225.71L21.1964 225.527C23.8864 221.099 26.3181 217.132 29.2733 214.213C32.1065 211.415 35.2727 209.734 39.4906 209.734C43.712 209.734 46.8804 211.415 49.7148 214.214C52.6711 217.133 55.1035 221.1 57.7933 225.527L57.908 225.715C60.4652 229.925 63.2801 234.559 66.867 238.102C70.6296 241.818 75.3779 244.48 81.7127 244.48C88.0496 244.48 92.8 241.819 96.5642 238.102C100.155 234.557 102.971 229.921 105.53 225.709L105.641 225.527C108.331 221.099 110.762 217.132 113.717 214.213C116.551 211.415 119.717 209.734 123.935 209.734C128.156 209.734 131.325 211.415 134.159 214.214C137.115 217.133 139.548 221.1 142.238 225.527L142.352 225.715L142.352 225.716C144.909 229.925 147.724 234.559 151.311 238.102C155.074 241.818 159.822 244.48 166.157 244.48V237.92C161.939 237.92 158.773 236.239 155.94 233.44C152.984 230.521 150.553 226.554 147.863 222.127L147.752 221.944L147.752 221.944L147.752 221.944C145.193 217.732 142.377 213.096 138.786 209.551C135.022 205.835 130.272 203.173 123.935 203.173C117.6 203.173 112.852 205.835 109.089 209.552C105.502 213.095 102.687 217.729 100.13 221.938L100.015 222.127C97.3256 226.554 94.8932 230.521 91.9369 233.44C89.1025 236.238 85.9341 237.92 81.7127 237.92C77.4948 237.92 74.3286 236.239 71.4954 233.44C68.5402 230.521 66.1085 226.554 63.4185 222.127L63.3076 221.944C60.7492 217.733 57.9325 213.096 54.3421 209.551C50.5779 205.835 45.8276 203.173 39.4906 203.173C33.1558 203.173 28.4075 205.835 24.6449 209.552C21.058 213.095 18.2432 217.728 15.686 221.938L15.686 221.938L15.5712 222.127C14.1589 224.451 14.8809 225.124 15.4573 225.66Z" fill="#131313"/>
<path fill-rule="evenodd" clip-rule="evenodd" d="M54.3409 281.119C53.9337 281.521 53.6433 281.83 53.4413 282.061C53.6199 281.457 53.3087 280.601 50.4603 280.601C52.2754 280.601 51.8675 280.352 51.038 279.846C49.9384 279.175 48.0979 278.051 49.7136 276.456C52.6699 273.537 55.1023 269.57 57.7921 265.143L57.9067 264.954C60.4639 260.745 63.2789 256.111 66.8658 252.568C70.6284 248.852 75.3766 246.189 81.7114 246.189C88.0484 246.189 92.7987 248.851 96.563 252.568C100.153 256.113 102.97 260.749 105.529 264.961L105.639 265.143C108.329 269.571 110.761 273.538 113.716 276.457C116.549 279.255 119.716 280.936 123.934 280.936C128.155 280.936 131.323 279.255 134.158 276.456C137.114 273.537 139.547 269.57 142.236 265.143L142.351 264.955L142.351 264.954C144.908 260.745 147.723 256.111 151.31 252.568C155.073 248.852 159.821 246.189 166.156 246.189V252.75C161.938 252.75 158.772 254.431 155.938 257.23C152.983 260.148 150.551 264.116 147.861 268.543L147.751 268.726L147.75 268.726C145.192 272.937 142.375 277.574 138.785 281.119C135.021 284.835 130.271 287.497 123.934 287.497C117.599 287.497 112.85 284.835 109.088 281.118C105.501 277.575 102.686 272.941 100.129 268.732L100.014 268.543C97.3244 264.116 94.892 260.149 91.9357 257.23C89.1013 254.432 85.9328 252.75 81.7114 252.75C77.4935 252.75 74.3274 254.431 71.4942 257.23C68.539 260.148 66.1073 264.116 63.4173 268.543L63.3064 268.726C60.748 272.937 57.9313 277.574 54.3409 281.119Z" fill="#131313"/>
<path fill-rule="evenodd" clip-rule="evenodd" d="M97.936 305.353C96.5829 307.824 95.5236 309.759 93.4744 311.782C96.8259 311.782 97.384 313.424 97.7229 314.42C98.0248 315.308 98.1527 315.684 99.9261 313.933C102.283 311.606 102.858 310.422 103.699 308.692C104.139 307.786 104.652 306.731 105.531 305.284L105.642 305.101C108.332 300.674 110.764 296.706 113.719 293.787C116.552 290.989 119.718 289.308 123.936 289.308C128.157 289.308 131.326 290.989 134.16 293.788C137.117 296.707 139.549 300.674 142.239 305.101L142.353 305.29L142.353 305.29L142.353 305.29C144.911 309.499 147.726 314.133 151.312 317.676C155.075 321.392 159.823 324.055 166.158 324.055V317.494C161.94 317.494 158.774 315.813 155.941 313.015C152.986 310.096 150.554 306.128 147.864 301.701L147.753 301.519L147.753 301.518C145.194 297.307 142.378 292.67 138.788 289.126C135.023 285.409 130.273 282.747 123.936 282.747C117.601 282.747 112.853 285.41 109.09 289.126C105.503 292.669 102.689 297.303 100.131 301.512L100.017 301.701C99.1913 303.059 98.5349 304.259 97.936 305.353Z" fill="#131313"/>
<ellipse cx="81.938" cy="122.81" rx="7.81891" ry="7.81949" fill="#131313"/>
<ellipse cx="81.938" cy="206.689" rx="7.81891" ry="7.81949" fill="#131313"/>
<ellipse cx="81.938" cy="286.267" rx="7.81891" ry="7.81948" fill="#131313"/>
<ellipse cx="81.938" cy="41.0793" rx="7.81891" ry="7.81949" fill="#131313"/>
<path d="M165.519 41.0793C165.519 45.3978 167.979 48.8988 163.661 48.8988C159.342 48.8988 155.842 45.3978 155.842 41.0793C155.842 36.7607 159.342 33.2598 163.661 33.2598C167.979 33.2598 165.519 36.7607 165.519 41.0793Z" fill="#131313"/>
<path d="M166.595 122.81C166.595 127.128 167.979 130.629 163.661 130.629C159.342 130.629 155.842 127.128 155.842 122.81C155.842 118.491 159.342 114.99 163.661 114.99C167.979 114.99 166.595 118.491 166.595 122.81Z" fill="#131313"/>
<path d="M166.595 206.689C166.595 211.007 167.979 214.508 163.661 214.508C159.342 214.508 155.842 211.007 155.842 206.689C155.842 202.37 159.342 198.869 163.661 198.869C167.979 198.869 166.595 202.37 166.595 206.689Z" fill="#131313"/>
<path d="M167.67 286.267C167.67 290.585 167.979 294.086 163.661 294.086C159.342 294.086 155.842 290.585 155.842 286.267C155.842 281.948 159.342 278.447 163.661 278.447C167.979 278.447 167.67 281.948 167.67 286.267Z" fill="#131313"/>
</svg>
