<svg width="32" height="32" viewBox="0 0 32 32" fill="none" xmlns="http://www.w3.org/2000/svg">
<path fill-rule="evenodd" clip-rule="evenodd" d="M23.4634 15.8393C23.4634 11.6118 20.0087 8.1783 15.7393 8.1783V7.58838C20.326 7.58838 24.0504 11.2791 24.0504 15.8393C24.0504 20.3996 20.326 24.0903 15.7393 24.0903V23.5003C20.0087 23.5003 23.4634 20.0668 23.4634 15.8393Z" fill="#FE724D"/>
<path fill-rule="evenodd" clip-rule="evenodd" d="M15.699 31.719V0.321289H16.3012V31.719H15.699Z" fill="#FE724D"/>
<path fill-rule="evenodd" clip-rule="evenodd" d="M2.5293 7.58838H15.7388V8.19064H2.5293V7.58838Z" fill="#FE724D"/>
<path fill-rule="evenodd" clip-rule="evenodd" d="M0.280762 15.7388H16.0198V16.3009H0.280762V15.7388Z" fill="#FE724D"/>
<path fill-rule="evenodd" clip-rule="evenodd" d="M2.28857 23.4883H16.1807V24.0905H2.28857V23.4883Z" fill="#FE724D"/>
<path fill-rule="evenodd" clip-rule="evenodd" d="M1.14764 17.3623C1.45642 17.0494 1.84981 16.7427 2.51317 16.7427C3.3058 16.7427 3.71515 17.1829 4.04389 17.5364C4.04804 17.5408 4.05217 17.5453 4.0563 17.5497C4.38863 17.907 4.64233 18.1687 5.16634 18.1687C5.69035 18.1687 5.94405 17.907 6.27639 17.5497C6.28051 17.5453 6.28465 17.5408 6.28879 17.5364C6.61754 17.1829 7.02688 16.7427 7.81951 16.7427C8.61266 16.7427 9.02217 17.183 9.35104 17.5367L9.36317 17.5497C9.69558 17.907 9.94908 18.1687 10.4727 18.1687C10.9967 18.1687 11.2504 17.907 11.5827 17.5497L11.5951 17.5364C11.9239 17.1829 12.3332 16.7427 13.1258 16.7427C13.919 16.7427 14.3285 17.183 14.6574 17.5367L14.6695 17.5497C15.0019 17.907 15.2554 18.1687 15.779 18.1687V18.7502C14.9864 18.7502 14.577 18.31 14.2483 17.9565L14.2359 17.9432C13.9036 17.5859 13.6499 17.3242 13.1258 17.3242C12.6022 17.3242 12.3488 17.5858 12.0163 17.9432L12.0042 17.9562C11.6753 18.3098 11.2658 18.7502 10.4727 18.7502C9.68005 18.7502 9.2707 18.31 8.94196 17.9565L8.92955 17.9432C8.59722 17.5859 8.34352 17.3242 7.81951 17.3242C7.29591 17.3242 7.04242 17.5858 6.71 17.9432L6.69787 17.9562C6.369 18.3098 5.9595 18.7502 5.16634 18.7502C4.37319 18.7502 3.96368 18.3098 3.63481 17.9562C3.63075 17.9518 3.62671 17.9475 3.62268 17.9432C3.29027 17.5858 3.03677 17.3242 2.51317 17.3242C2.0772 17.3242 1.82664 17.5074 1.56938 17.7682C1.51425 17.8241 1.46097 17.8813 1.40433 17.9422C1.3921 17.9553 1.37971 17.9686 1.36712 17.9821C1.29783 18.0564 1.22359 18.1349 1.14421 18.2107C0.984704 18.3629 0.795872 18.5126 0.554088 18.6155L0.321045 18.0815C0.473114 18.0168 0.603242 17.9183 0.734989 17.7925C0.801238 17.7293 0.865692 17.6614 0.934076 17.5881C0.945517 17.5758 0.957123 17.5633 0.968876 17.5507C1.02568 17.4896 1.08593 17.4249 1.14764 17.3623Z" fill="#FE724D"/>
<path fill-rule="evenodd" clip-rule="evenodd" d="M1.30909 19.2295C1.59962 18.9658 1.96717 18.7505 2.51723 18.7505C3.30969 18.7505 3.71894 19.1995 4.04761 19.5601C4.05176 19.5646 4.05589 19.5692 4.06002 19.5737C4.39228 19.9381 4.64593 20.205 5.16982 20.205C5.69372 20.205 5.94736 19.9381 6.27963 19.5737C6.28375 19.5692 6.28788 19.5646 6.29203 19.5601C6.6207 19.1995 7.02996 18.7505 7.82241 18.7505C8.6154 18.7505 9.02481 19.1997 9.35361 19.5604L9.36574 19.5737C9.69808 19.9381 9.95152 20.205 10.475 20.205C10.9989 20.205 11.2525 19.9381 11.5848 19.5737L11.5972 19.5601C11.9259 19.1995 12.3351 18.7505 13.1276 18.7505C13.9206 18.7505 14.33 19.1997 14.6588 19.5604L14.6709 19.5737C15.0033 19.9381 15.2567 20.205 15.7802 20.205V20.7982C14.9877 20.7982 14.5785 20.3492 14.2498 19.9886L14.2374 19.975C13.9051 19.6106 13.6515 19.3437 13.1276 19.3437C12.6041 19.3437 12.3507 19.6105 12.0183 19.975L12.0062 19.9883C11.6774 20.349 11.268 20.7982 10.475 20.7982C9.68255 20.7982 9.27329 20.3492 8.94462 19.9886L8.93222 19.975C8.59996 19.6106 8.34631 19.3437 7.82241 19.3437C7.29893 19.3437 7.04549 19.6105 6.71315 19.975C6.70912 19.9794 6.70508 19.9838 6.70102 19.9883C6.37222 20.349 5.9628 20.7982 5.16982 20.7982C4.37684 20.7982 3.96742 20.349 3.63862 19.9883C3.63457 19.9838 3.63052 19.9794 3.62649 19.975C3.29415 19.6105 3.04071 19.3437 2.51723 19.3437C2.14855 19.3437 1.91548 19.4775 1.70308 19.6702C1.60266 19.7614 1.51064 19.8622 1.40754 19.9752C1.39461 19.9893 1.3815 20.0037 1.36818 20.0183C1.25296 20.1442 1.1234 20.2828 0.972792 20.4052L0.603271 19.9434C0.716645 19.8513 0.820381 19.7419 0.935328 19.6162C0.948036 19.6023 0.960928 19.5882 0.974005 19.5738C1.0748 19.4633 1.18655 19.3407 1.30909 19.2295Z" fill="#FE724D"/>
<path fill-rule="evenodd" clip-rule="evenodd" d="M1.125 21.4376C1.43613 21.1186 1.83207 20.7979 2.51061 20.7979C3.30344 20.7979 3.7129 21.238 4.04173 21.5916C4.04588 21.596 4.05001 21.6005 4.05414 21.6049C4.38656 21.9621 4.64033 22.2238 5.16448 22.2238C5.68862 22.2238 5.9424 21.9621 6.27482 21.6049C6.27894 21.6005 6.28308 21.596 6.28723 21.5916C6.61606 21.238 7.02551 20.7979 7.81835 20.7979C8.61171 20.7979 9.02133 21.2382 9.35029 21.5919L9.36242 21.6049C9.69492 21.9622 9.94848 22.2238 10.4722 22.2238C10.9964 22.2238 11.2501 21.9621 11.5826 21.6049L11.595 21.5916C11.9238 21.238 12.3333 20.7979 13.1261 20.7979C13.9195 20.7979 14.3291 21.2382 14.658 21.5919L14.6702 21.6049C15.0027 21.9622 15.2562 22.2238 15.78 22.2238V22.8054C14.9871 22.8054 14.5777 22.3652 14.2488 22.0117L14.2364 21.9983C13.904 21.6411 13.6502 21.3794 13.1261 21.3794C12.6024 21.3794 12.3488 21.641 12.0163 21.9983L12.0042 22.0114C11.6752 22.365 11.2656 22.8054 10.4722 22.8054C9.67938 22.8054 9.26993 22.3652 8.9411 22.0117L8.92869 21.9983C8.59627 21.6411 8.34249 21.3794 7.81835 21.3794C7.29461 21.3794 7.04105 21.641 6.70855 21.9983C6.70452 22.0027 6.70047 22.007 6.69641 22.0114C6.36746 22.365 5.95784 22.8054 5.16448 22.8054C4.37111 22.8054 3.9615 22.365 3.63254 22.0114C3.62848 22.007 3.62444 22.0027 3.62041 21.9983C3.28791 21.641 3.03434 21.3794 2.51061 21.3794C2.06549 21.3794 1.8134 21.5702 1.54926 21.841L1.125 21.4376Z" fill="#FE724D"/>
<path fill-rule="evenodd" clip-rule="evenodd" d="M3.57251 25.9372V23.769H4.17477V25.9372H3.57251Z" fill="#FE724D"/>
<path fill-rule="evenodd" clip-rule="evenodd" d="M5.54175 28.025V23.769H6.14401V28.025H5.54175Z" fill="#FE724D"/>
<path fill-rule="evenodd" clip-rule="evenodd" d="M7.54785 29.4303V23.769H8.15011V29.4303H7.54785Z" fill="#FE724D"/>
<path fill-rule="evenodd" clip-rule="evenodd" d="M9.51538 30.5143V23.769H10.1176V30.5143H9.51538Z" fill="#FE724D"/>
<path fill-rule="evenodd" clip-rule="evenodd" d="M11.5232 31.1567V23.769H12.1255V31.1567H11.5232Z" fill="#FE724D"/>
<path fill-rule="evenodd" clip-rule="evenodd" d="M13.4907 31.7189V23.769H14.093V31.7189H13.4907Z" fill="#FE724D"/>
<path fill-rule="evenodd" clip-rule="evenodd" d="M15.4332 1.83627L14.1598 0.53107L14.5801 0.120605L16.2587 1.84124L14.2812 3.81996L16.2612 5.80116L14.0736 7.99012L13.6583 7.57461L15.4307 5.80116L13.4507 3.81996L15.4332 1.83627Z" fill="#FE724D"/>
<path fill-rule="evenodd" clip-rule="evenodd" d="M11.4554 1.98942L10.727 1.25943L11.1422 0.843262L12.2859 1.98942L10.3059 3.97381L12.2859 5.95819L10.0982 8.15066L9.68297 7.7345L11.4554 5.95819L9.47534 3.97381L11.4554 1.98942Z" fill="#FE724D"/>
<path fill-rule="evenodd" clip-rule="evenodd" d="M7.47777 5.88205L5.70068 4.10921L6.11704 3.69385L8.31047 5.88205L6.11704 8.07026L5.70068 7.6549L7.47777 5.88205Z" fill="#FE724D"/>
<path fill-rule="evenodd" clip-rule="evenodd" d="M16 0.588957C7.48872 0.588957 0.588957 7.48872 0.588957 16C0.588957 24.5113 7.48872 31.411 16 31.411C24.5113 31.411 31.411 24.5113 31.411 16C31.411 7.48872 24.5113 0.588957 16 0.588957ZM0 16C0 7.16344 7.16344 0 16 0C24.8366 0 32 7.16344 32 16C32 24.8366 24.8366 32 16 32C7.16344 32 0 24.8366 0 16Z" fill="#FE724D"/>
<path fill-rule="evenodd" clip-rule="evenodd" d="M16 0.588957C7.48872 0.588957 0.588957 7.48872 0.588957 16C0.588957 24.5113 7.48872 31.411 16 31.411C24.5113 31.411 31.411 24.5113 31.411 16C31.411 7.48872 24.5113 0.588957 16 0.588957ZM0 16C0 7.16344 7.16344 0 16 0C24.8366 0 32 7.16344 32 16C32 24.8366 24.8366 32 16 32C7.16344 32 0 24.8366 0 16Z" fill="#FE724D"/>
<path fill-rule="evenodd" clip-rule="evenodd" d="M11.1643 10.3244C10.6373 11.7265 10.3052 13.6834 10.3052 15.8594H9.71606C9.71606 13.6309 10.0551 11.6001 10.613 10.1156C10.8916 9.3745 11.2305 8.75424 11.6217 8.314C12.0127 7.87399 12.4807 7.58838 13.0084 7.58838C13.5361 7.58838 14.0041 7.87399 14.3951 8.314C14.7864 8.75424 15.1252 9.3745 15.4038 10.1156C15.9617 11.6001 16.3008 13.6309 16.3008 15.8594H15.7116C15.7116 13.6834 15.3796 11.7265 14.8525 10.3244C14.5886 9.62226 14.2815 9.07454 13.9554 8.70763C13.6292 8.34047 13.3085 8.17973 13.0084 8.17973C12.7083 8.17973 12.3877 8.34047 12.0614 8.70763C11.7353 9.07454 11.4282 9.62226 11.1643 10.3244Z" fill="#FE724D"/>
<path fill-rule="evenodd" clip-rule="evenodd" d="M5.18748 10.3244C4.66047 11.7265 4.32843 13.6834 4.32843 15.8594H3.73926C3.73926 13.6309 4.07828 11.6001 4.63624 10.1156C4.91482 9.3745 5.25367 8.75424 5.64489 8.314C6.03591 7.87399 6.5039 7.58838 7.0316 7.58838C7.55931 7.58838 8.02729 7.87399 8.41831 8.314C8.80954 8.75424 9.14839 9.3745 9.42697 10.1156C9.98493 11.6001 10.324 13.6309 10.324 15.8594H9.73478C9.73478 13.6834 9.40274 11.7265 8.87573 10.3244C8.61182 9.62226 8.3047 9.07454 7.97863 8.70763C7.65236 8.34047 7.33172 8.17973 7.0316 8.17973C6.73149 8.17973 6.41085 8.34047 6.08457 8.70763C5.75851 9.07454 5.45139 9.62226 5.18748 10.3244Z" fill="#FE724D"/>
<path d="M2.44285 8.31396C2.83408 8.75421 3.17293 9.37447 3.45151 10.1156C4.00946 11.6 4.34849 13.6308 4.34849 15.8594H3.75932C3.75932 13.6833 3.42728 11.7265 2.90026 10.3244C2.63636 9.62223 2.32924 9.07451 2.00317 8.70759L2.44285 8.31396Z" fill="#FE724D"/>
</svg>
