<svg width="33" height="46" viewBox="0 0 33 46" fill="none" xmlns="http://www.w3.org/2000/svg">
<path fill-rule="evenodd" clip-rule="evenodd" d="M15.2982 0.0201785C10.0015 0.558423 5.77466 3.1234 2.97362 7.49897C0.865322 10.7926 0.036676 15.0906 0.751878 19.0236C1.70802 24.2818 5.1543 31.1749 10.5423 38.6058C12.6353 41.4923 16.2709 46 16.506 46C16.7411 46 20.3767 41.4923 22.4697 38.6058C27.129 32.1799 30.4368 25.9689 31.7649 21.1523C32.2321 19.458 32.4315 18.2172 32.489 16.6486C32.7206 10.318 29.2857 4.5338 23.5726 1.63401C22.3018 0.989001 20.3665 0.382765 18.8382 0.15084C18.126 0.042812 15.8884 -0.0397868 15.2982 0.0201785ZM18.2776 10.658C19.4297 11.0472 20.3403 11.696 21.0388 12.6253C22.7864 14.9506 22.5768 18.1227 20.5404 20.1642C18.2571 22.4533 14.7549 22.4533 12.4716 20.1642C9.8457 17.5316 10.3617 13.2117 13.5426 11.1988C14.0329 10.8885 14.9441 10.5394 15.5507 10.4295C16.2975 10.2943 17.4987 10.3949 18.2776 10.658Z" fill="#75B875"/>
</svg>
