<svg width="413" height="258" viewBox="0 0 413 258" fill="none" xmlns="http://www.w3.org/2000/svg">
<path fill-rule="evenodd" clip-rule="evenodd" d="M0.799805 46.7817C0.799805 44.6036 2.72881 42.8379 5.10836 42.8379C12.9215 42.8379 18.7159 46.1143 23.2232 50.545C27.5161 54.765 30.8786 60.2735 33.9263 65.2664C33.9741 65.3446 34.0217 65.4228 34.0694 65.5008C37.2848 70.7676 40.1856 75.4737 43.7016 78.9285C47.0705 82.2386 50.7282 84.1238 55.5184 84.1238C60.3087 84.1238 63.9664 82.2386 67.3352 78.9285C70.8512 75.4737 73.7521 70.7676 76.9675 65.5008L77.1106 65.2664C80.1583 60.2735 83.5208 54.765 87.8137 50.545C92.321 46.1143 98.1153 42.8379 105.928 42.8379C113.744 42.8379 119.541 46.1135 124.05 50.5444C128.347 54.7666 131.712 60.2785 134.761 65.2736L134.9 65.5008C138.115 70.768 141.015 75.4741 144.53 78.9291C147.898 82.2394 151.553 84.1238 156.339 84.1238C161.129 84.1238 164.786 82.2386 168.155 78.9285C171.671 75.4737 174.572 70.7676 177.788 65.5008L177.931 65.2665C180.978 60.2736 184.341 54.7651 188.634 50.545C193.141 46.1143 198.935 42.8379 206.749 42.8379C214.564 42.8379 220.361 46.1135 224.871 50.5444C229.168 54.7666 232.532 60.2785 235.581 65.2736L235.72 65.5008C238.936 70.768 241.836 75.4741 245.35 78.9291C248.718 82.2394 252.373 84.1238 257.159 84.1238C259.538 84.1238 261.467 85.8895 261.467 88.0676C261.467 90.2457 259.538 92.0115 257.159 92.0115C249.346 92.0115 243.551 88.7351 239.044 84.3043C234.751 80.0843 231.388 74.5757 228.341 69.5828L228.198 69.3486C224.982 64.0817 222.081 59.3757 218.565 55.9209C215.197 52.6107 211.539 50.7256 206.749 50.7256C201.963 50.7256 198.308 52.6099 194.94 55.9203C191.426 59.3752 188.525 64.0813 185.31 69.3486L185.171 69.5757C182.122 74.5708 178.758 80.0827 174.46 84.305C169.951 88.7359 164.154 92.0115 156.339 92.0115C148.525 92.0115 142.731 88.7351 138.224 84.3043C133.931 80.0843 130.568 74.5758 127.521 69.583L127.378 69.3486C124.162 64.0817 121.261 59.3757 117.745 55.9209C114.376 52.6107 110.719 50.7256 105.928 50.7256C101.143 50.7256 97.4876 52.6099 94.1201 55.9203C90.6054 59.3752 87.7054 64.0813 84.4897 69.3486L84.3511 69.5757C81.3019 74.5708 77.9374 80.0827 73.6403 84.305C69.1309 88.7359 63.3341 92.0115 55.5184 92.0115C47.7027 92.0115 41.906 88.7359 37.3965 84.305C33.0995 80.0827 29.7349 74.5708 26.6858 69.5757L26.5471 69.3486C23.3315 64.0813 20.4314 59.3752 16.9168 55.9203C13.5493 52.6099 9.89429 50.7256 5.10836 50.7256C2.72881 50.7256 0.799805 48.9599 0.799805 46.7817Z" fill="#529952"/>
<path fill-rule="evenodd" clip-rule="evenodd" d="M289.509 50.545C294.025 46.1143 299.831 42.8379 307.66 42.8379C315.491 42.8379 321.3 46.1135 325.818 50.5444C330.124 54.7666 333.495 60.2785 336.55 65.2736L336.689 65.5008C339.912 70.768 342.817 75.4741 346.339 78.9291C349.714 82.2394 353.376 84.1238 358.171 84.1238C362.971 84.1238 366.636 82.2386 370.012 78.9285C373.535 75.4737 376.442 70.7676 379.664 65.5008L379.807 65.2663C382.861 60.2735 386.23 54.765 390.532 50.545C395.048 46.1143 400.854 42.8379 408.683 42.8379C411.067 42.8379 413 44.6036 413 46.7817C413 48.9599 411.067 50.7256 408.683 50.7256C403.887 50.7256 400.225 52.6099 396.851 55.9203C393.329 59.3752 390.423 64.0813 387.201 69.3486L387.062 69.5757C384.007 74.5708 380.635 80.0827 376.33 84.3049C371.811 88.7359 366.003 92.0115 358.171 92.0115C350.343 92.0115 344.537 88.7351 340.02 84.3043C335.719 80.0843 332.349 74.5758 329.295 69.5829L329.152 69.3486C325.93 64.0817 323.024 59.3757 319.5 55.9209C316.125 52.6107 312.46 50.7256 307.66 50.7256C302.864 50.7256 299.202 52.6099 295.828 55.9203C292.306 59.3752 289.4 64.0813 286.178 69.3486C286.132 69.4242 286.085 69.4999 286.039 69.5757C282.984 74.5709 279.612 80.0827 275.307 84.3049C270.788 88.7359 264.98 92.0115 257.148 92.0115C254.764 92.0115 252.831 90.2457 252.831 88.0676C252.831 85.8895 254.764 84.1238 257.148 84.1238C261.948 84.1238 265.613 82.2386 268.989 78.9285C272.512 75.4737 275.419 70.7676 278.641 65.5008C278.688 65.4228 278.736 65.3446 278.784 65.2664C281.838 60.2735 285.207 54.765 289.509 50.545Z" fill="#529952"/>
<path fill-rule="evenodd" clip-rule="evenodd" d="M0.799805 129.508C0.799805 127.33 2.72881 125.564 5.10836 125.564C12.9215 125.564 18.7159 128.841 23.2232 133.272C27.5161 137.492 30.8786 143 33.9263 147.993C33.9741 148.071 34.0217 148.149 34.0694 148.227C37.2848 153.494 40.1856 158.2 43.7016 161.655C47.0705 164.965 50.7282 166.85 55.5184 166.85C60.3087 166.85 63.9664 164.965 67.3352 161.655C70.8512 158.2 73.7521 153.494 76.9675 148.227L77.1106 147.993C80.1583 143 83.5208 137.492 87.8137 133.272C92.321 128.841 98.1153 125.564 105.928 125.564C113.744 125.564 119.541 128.84 124.05 133.271C128.347 137.493 131.712 143.005 134.761 148L134.9 148.227C138.115 153.495 141.015 158.201 144.53 161.656C147.898 164.966 151.553 166.85 156.339 166.85C161.129 166.85 164.786 164.965 168.155 161.655C171.671 158.2 174.572 153.494 177.788 148.227L177.931 147.993C180.978 143 184.341 137.492 188.634 133.272C193.141 128.841 198.935 125.564 206.749 125.564C214.564 125.564 220.361 128.84 224.871 133.271C229.168 137.493 232.532 143.005 235.581 148L235.72 148.227C238.936 153.495 241.836 158.201 245.35 161.656C248.718 164.966 252.373 166.85 257.159 166.85C259.538 166.85 261.467 168.616 261.467 170.794C261.467 172.972 259.538 174.738 257.159 174.738C249.346 174.738 243.551 171.462 239.044 167.031C234.751 162.811 231.388 157.302 228.341 152.309L228.198 152.075C224.982 146.808 222.081 142.102 218.565 138.647C215.197 135.337 211.539 133.452 206.749 133.452C201.963 133.452 198.308 135.337 194.94 138.647C191.426 142.102 188.525 146.808 185.31 152.075L185.171 152.302C182.122 157.297 178.758 162.809 174.46 167.032C169.951 171.462 164.154 174.738 156.339 174.738C148.525 174.738 142.731 171.462 138.224 167.031C133.931 162.811 130.568 157.302 127.521 152.31L127.378 152.075C124.162 146.808 121.261 142.102 117.745 138.647C114.376 135.337 110.719 133.452 105.928 133.452C101.143 133.452 97.4876 135.337 94.1201 138.647C90.6054 142.102 87.7054 146.808 84.4897 152.075L84.3511 152.302C81.3019 157.297 77.9374 162.809 73.6403 167.032C69.1309 171.462 63.3341 174.738 55.5184 174.738C47.7027 174.738 41.906 171.462 37.3965 167.032C33.0995 162.809 29.7349 157.297 26.6858 152.302L26.5471 152.075C23.3315 146.808 20.4314 142.102 16.9168 138.647C13.5493 135.337 9.89429 133.452 5.10836 133.452C2.72881 133.452 0.799805 131.686 0.799805 129.508Z" fill="#529952"/>
<path fill-rule="evenodd" clip-rule="evenodd" d="M289.509 133.272C294.025 128.841 299.831 125.564 307.66 125.564C315.491 125.564 321.3 128.84 325.818 133.271C330.124 137.493 333.495 143.005 336.55 148L336.689 148.227C339.912 153.495 342.817 158.201 346.339 161.656C349.714 164.966 353.376 166.85 358.171 166.85C362.971 166.85 366.636 164.965 370.012 161.655C373.535 158.2 376.442 153.494 379.664 148.227L379.807 147.993C382.861 143 386.23 137.492 390.532 133.272C395.048 128.841 400.854 125.564 408.683 125.564C411.067 125.564 413 127.33 413 129.508C413 131.686 411.067 133.452 408.683 133.452C403.887 133.452 400.225 135.337 396.851 138.647C393.329 142.102 390.423 146.808 387.201 152.075L387.062 152.302C384.007 157.297 380.635 162.809 376.33 167.032C371.811 171.462 366.003 174.738 358.171 174.738C350.343 174.738 344.537 171.462 340.02 167.031C335.719 162.811 332.349 157.302 329.295 152.309L329.152 152.075C325.93 146.808 323.024 142.102 319.5 138.647C316.125 135.337 312.46 133.452 307.66 133.452C302.864 133.452 299.202 135.337 295.828 138.647C292.306 142.102 289.4 146.808 286.178 152.075C286.132 152.151 286.085 152.226 286.039 152.302C282.984 157.297 279.612 162.809 275.307 167.032C270.788 171.462 264.98 174.738 257.148 174.738C254.764 174.738 252.831 172.972 252.831 170.794C252.831 168.616 254.764 166.85 257.148 166.85C261.948 166.85 265.613 164.965 268.989 161.655C272.512 158.2 275.419 153.494 278.641 148.227C278.688 148.149 278.736 148.071 278.784 147.993C281.838 143 285.207 137.492 289.509 133.272Z" fill="#529952"/>
<path fill-rule="evenodd" clip-rule="evenodd" d="M0.799805 212.77C0.799805 210.592 2.72881 208.826 5.10836 208.826C12.9215 208.826 18.7159 212.103 23.2232 216.533C27.5161 220.753 30.8786 226.262 33.9263 231.255C33.9741 231.333 34.0217 231.411 34.0694 231.489C37.2848 236.756 40.1856 241.462 43.7016 244.917C47.0705 248.227 50.7282 250.112 55.5184 250.112C60.3087 250.112 63.9664 248.227 67.3352 244.917C70.8512 241.462 73.7521 236.756 76.9675 231.489L77.1106 231.255C80.1583 226.262 83.5208 220.753 87.8137 216.533C92.321 212.103 98.1153 208.826 105.928 208.826C113.744 208.826 119.541 212.102 124.05 216.533C128.347 220.755 131.712 226.267 134.761 231.262L134.9 231.489C138.115 236.756 141.015 241.462 144.53 244.917C147.898 248.228 151.553 250.112 156.339 250.112C161.129 250.112 164.786 248.227 168.155 244.917C171.671 241.462 174.572 236.756 177.788 231.489L177.931 231.255C180.978 226.262 184.341 220.753 188.634 216.533C193.141 212.103 198.935 208.826 206.749 208.826C214.564 208.826 220.361 212.102 224.871 216.533C229.168 220.755 232.532 226.267 235.581 231.262L235.72 231.489C238.936 236.756 241.836 241.462 245.35 244.917C248.718 248.228 252.373 250.112 257.159 250.112C259.538 250.112 261.467 251.878 261.467 254.056C261.467 256.234 259.538 258 257.159 258C249.346 258 243.551 254.723 239.044 250.293C234.751 246.073 231.388 240.564 228.341 235.571L228.198 235.337C224.982 230.07 222.081 225.364 218.565 221.909C215.197 218.599 211.539 216.714 206.749 216.714C201.963 216.714 198.308 218.598 194.94 221.909C191.426 225.364 188.525 230.07 185.31 235.337L185.171 235.564C182.122 240.559 178.758 246.071 174.46 250.293C169.951 254.724 164.154 258 156.339 258C148.525 258 142.731 254.723 138.224 250.293C133.931 246.073 130.568 240.564 127.521 235.571L127.378 235.337C124.162 230.07 121.261 225.364 117.745 221.909C114.376 218.599 110.719 216.714 105.928 216.714C101.143 216.714 97.4876 218.598 94.1201 221.909C90.6054 225.364 87.7054 230.07 84.4897 235.337L84.3511 235.564C81.3019 240.559 77.9374 246.071 73.6403 250.293C69.1309 254.724 63.3341 258 55.5184 258C47.7027 258 41.906 254.724 37.3965 250.293C33.0995 246.071 29.7349 240.559 26.6858 235.564L26.5471 235.337C23.3315 230.07 20.4314 225.364 16.9168 221.909C13.5493 218.598 9.89429 216.714 5.10836 216.714C2.72881 216.714 0.799805 214.948 0.799805 212.77Z" fill="#529952"/>
<path fill-rule="evenodd" clip-rule="evenodd" d="M289.509 216.533C294.025 212.103 299.831 208.826 307.66 208.826C315.491 208.826 321.3 212.102 325.818 216.533C330.124 220.755 333.495 226.267 336.55 231.262L336.689 231.489C339.912 236.756 342.817 241.462 346.339 244.917C349.714 248.228 353.376 250.112 358.171 250.112C362.971 250.112 366.636 248.227 370.012 244.917C373.535 241.462 376.442 236.756 379.664 231.489L379.807 231.255C382.861 226.262 386.23 220.753 390.532 216.533C395.048 212.103 400.854 208.826 408.683 208.826C411.067 208.826 413 210.592 413 212.77C413 214.948 411.067 216.714 408.683 216.714C403.887 216.714 400.225 218.598 396.851 221.909C393.329 225.364 390.423 230.07 387.201 235.337L387.062 235.564C384.007 240.559 380.635 246.071 376.33 250.293C371.811 254.724 366.003 258 358.171 258C350.343 258 344.537 254.723 340.02 250.293C335.719 246.073 332.349 240.564 329.295 235.571L329.152 235.337C325.93 230.07 323.024 225.364 319.5 221.909C316.125 218.599 312.46 216.714 307.66 216.714C302.864 216.714 299.202 218.598 295.828 221.909C292.306 225.364 289.4 230.07 286.178 235.337C286.132 235.412 286.085 235.488 286.039 235.564C282.984 240.559 279.612 246.071 275.307 250.293C270.788 254.724 264.98 258 257.148 258C254.764 258 252.831 256.234 252.831 254.056C252.831 251.878 254.764 250.112 257.148 250.112C261.948 250.112 265.613 248.227 268.989 244.917C272.512 241.462 275.419 236.756 278.641 231.489C278.688 231.411 278.736 231.333 278.784 231.255C281.838 226.262 285.207 220.753 289.509 216.533Z" fill="#529952"/>
<path fill-rule="evenodd" clip-rule="evenodd" d="M0.799805 46.228C0.799805 48.4062 2.72881 50.1719 5.10836 50.1719C12.9215 50.1719 18.7159 46.8955 23.2232 42.4647C27.5161 38.2447 30.8786 32.7362 33.9263 27.7434C33.9741 27.6651 34.0217 27.587 34.0694 27.509C37.2848 22.2421 40.1856 17.5361 43.7016 14.0813C47.0705 10.7711 50.7282 8.886 55.5184 8.886C60.3087 8.886 63.9664 10.7711 67.3352 14.0813C70.8512 17.5361 73.7521 22.2421 76.9675 27.509L77.1106 27.7434C80.1583 32.7362 83.5208 38.2447 87.8137 42.4647C92.321 46.8955 98.1153 50.1719 105.928 50.1719C113.744 50.1719 119.541 46.8963 124.05 42.4654C128.347 38.2431 131.712 32.7313 134.761 27.7362L134.9 27.509C138.115 22.2418 141.015 17.5356 144.53 14.0807C147.898 10.7703 151.553 8.886 156.339 8.886C161.129 8.886 164.786 10.7711 168.155 14.0813C171.671 17.5361 174.572 22.2421 177.788 27.509L177.931 27.7432C180.978 32.7361 184.341 38.2447 188.634 42.4647C193.141 46.8955 198.935 50.1719 206.749 50.1719C214.564 50.1719 220.361 46.8963 224.871 42.4654C229.168 38.2431 232.532 32.7313 235.581 27.7362L235.72 27.509C238.936 22.2418 241.836 17.5356 245.35 14.0807C248.718 10.7703 252.373 8.886 257.159 8.886C259.538 8.886 261.467 7.12027 261.467 4.94215C261.467 2.76402 259.538 0.998298 257.159 0.998298C249.346 0.998298 243.551 4.27468 239.044 8.70544C234.751 12.9255 231.388 18.434 228.341 23.4269L228.198 23.6612C224.982 28.928 222.081 33.6341 218.565 37.0889C215.197 40.399 211.539 42.2842 206.749 42.2842C201.963 42.2842 198.308 40.3998 194.94 37.0895C191.426 33.6345 188.525 28.9284 185.31 23.6612L185.171 23.4341C182.122 18.439 178.758 12.9271 174.46 8.70482C169.951 4.2739 164.154 0.998298 156.339 0.998298C148.525 0.998298 142.731 4.27468 138.224 8.70544C133.931 12.9255 130.568 18.4339 127.521 23.4268L127.378 23.6612C124.162 28.928 121.261 33.6341 117.745 37.0889C114.376 40.399 110.719 42.2842 105.928 42.2842C101.143 42.2842 97.4876 40.3998 94.1201 37.0895C90.6054 33.6345 87.7054 28.9284 84.4897 23.6612L84.3511 23.434C81.3019 18.4389 77.9374 12.927 73.6403 8.70482C69.1309 4.2739 63.3341 0.998298 55.5184 0.998298C47.7027 0.998298 41.906 4.2739 37.3965 8.70482C33.0995 12.927 29.7349 18.4389 26.6858 23.434L26.5471 23.6612C23.3315 28.9284 20.4314 33.6345 16.9168 37.0895C13.5493 40.3998 9.89429 42.2842 5.10836 42.2842C2.72881 42.2842 0.799805 44.0499 0.799805 46.228Z" fill="#529952"/>
<path fill-rule="evenodd" clip-rule="evenodd" d="M289.509 42.4647C294.025 46.8955 299.831 50.1719 307.66 50.1719C315.491 50.1719 321.3 46.8963 325.818 42.4654C330.124 38.2431 333.495 32.7313 336.55 27.7362L336.689 27.509C339.912 22.2418 342.817 17.5356 346.339 14.0807C349.714 10.7703 353.376 8.886 358.171 8.886C362.971 8.886 366.636 10.7711 370.012 14.0813C373.535 17.5361 376.442 22.2421 379.664 27.509L379.807 27.7435C382.861 32.7363 386.23 38.2447 390.532 42.4647C395.048 46.8955 400.854 50.1719 408.683 50.1719C411.067 50.1719 413 48.4062 413 46.228C413 44.0499 411.067 42.2842 408.683 42.2842C403.887 42.2842 400.225 40.3998 396.851 37.0895C393.329 33.6345 390.423 28.9284 387.201 23.6612L387.062 23.434C384.007 18.4389 380.635 12.927 376.33 8.70482C371.811 4.2739 366.003 0.998298 358.171 0.998298C350.343 0.998298 344.537 4.27468 340.02 8.70544C335.719 12.9255 332.349 18.434 329.295 23.4269L329.152 23.6612C325.93 28.928 323.024 33.6341 319.5 37.0889C316.125 40.399 312.46 42.2842 307.66 42.2842C302.864 42.2842 299.202 40.3998 295.828 37.0895C292.306 33.6345 289.4 28.9284 286.178 23.6612C286.132 23.5856 286.085 23.5099 286.039 23.434C282.984 18.4389 279.612 12.927 275.307 8.70482C270.788 4.2739 264.98 0.998298 257.148 0.998298C254.764 0.998298 252.831 2.76402 252.831 4.94215C252.831 7.12027 254.764 8.886 257.148 8.886C261.948 8.886 265.613 10.7711 268.989 14.0813C272.512 17.5361 275.419 22.2421 278.641 27.509C278.688 27.587 278.736 27.6651 278.784 27.7434C281.838 32.7362 285.207 38.2447 289.509 42.4647Z" fill="#529952"/>
<path fill-rule="evenodd" clip-rule="evenodd" d="M0.799805 129.427C0.799805 131.605 2.72881 133.371 5.10836 133.371C12.9215 133.371 18.7159 130.095 23.2232 125.664C27.5161 121.444 30.8786 115.935 33.9263 110.943C33.9741 110.864 34.0217 110.786 34.0694 110.708C37.2848 105.441 40.1856 100.735 43.7016 97.2805C47.0705 93.9703 50.7282 92.0852 55.5184 92.0852C60.3087 92.0852 63.9664 93.9703 67.3352 97.2805C70.8512 100.735 73.7521 105.441 76.9675 110.708L77.1106 110.943C80.1583 115.935 83.5208 121.444 87.8137 125.664C92.321 130.095 98.1153 133.371 105.928 133.371C113.744 133.371 119.541 130.095 124.05 125.665C128.347 121.442 131.712 115.931 134.761 110.935L134.9 110.708C138.115 105.441 141.015 100.735 144.53 97.2799C147.898 93.9696 151.553 92.0852 156.339 92.0852C161.129 92.0852 164.786 93.9703 168.155 97.2805C171.671 100.735 174.572 105.441 177.788 110.708L177.931 110.942C180.978 115.935 184.341 121.444 188.634 125.664C193.141 130.095 198.935 133.371 206.749 133.371C214.564 133.371 220.361 130.095 224.871 125.665C229.168 121.442 232.532 115.931 235.581 110.935L235.72 110.708C238.936 105.441 241.836 100.735 245.35 97.2799C248.718 93.9696 252.373 92.0852 257.159 92.0852C259.538 92.0852 261.467 90.3195 261.467 88.1414C261.467 85.9632 259.538 84.1975 257.159 84.1975C249.346 84.1975 243.551 87.4739 239.044 91.9047C234.751 96.1247 231.388 101.633 228.341 106.626L228.198 106.86C224.982 112.127 222.081 116.833 218.565 120.288C215.197 123.598 211.539 125.483 206.749 125.483C201.963 125.483 198.308 123.599 194.94 120.289C191.426 116.834 188.525 112.128 185.31 106.86L185.171 106.633C182.122 101.638 178.758 96.1263 174.46 91.904C169.951 87.4731 164.154 84.1975 156.339 84.1975C148.525 84.1975 142.731 87.4739 138.224 91.9047C133.931 96.1247 130.568 101.633 127.521 106.626L127.378 106.86C124.162 112.127 121.261 116.833 117.745 120.288C114.376 123.598 110.719 125.483 105.928 125.483C101.143 125.483 97.4876 123.599 94.1201 120.289C90.6054 116.834 87.7054 112.128 84.4897 106.86L84.3511 106.633C81.3019 101.638 77.9374 96.1263 73.6403 91.904C69.1309 87.4731 63.3341 84.1975 55.5184 84.1975C47.7027 84.1975 41.906 87.4731 37.3965 91.904C33.0995 96.1263 29.7349 101.638 26.6858 106.633L26.5471 106.86C23.3315 112.128 20.4314 116.834 16.9168 120.289C13.5493 123.599 9.89429 125.483 5.10836 125.483C2.72881 125.483 0.799805 127.249 0.799805 129.427Z" fill="#529952"/>
<path fill-rule="evenodd" clip-rule="evenodd" d="M289.509 125.664C294.025 130.095 299.831 133.371 307.66 133.371C315.491 133.371 321.3 130.095 325.818 125.665C330.124 121.442 333.495 115.931 336.55 110.935L336.689 110.708C339.912 105.441 342.817 100.735 346.339 97.2799C349.714 93.9696 353.376 92.0852 358.171 92.0852C362.971 92.0852 366.636 93.9703 370.012 97.2805C373.535 100.735 376.442 105.441 379.664 110.708L379.807 110.943C382.861 115.936 386.23 121.444 390.532 125.664C395.048 130.095 400.854 133.371 408.683 133.371C411.067 133.371 413 131.605 413 129.427C413 127.249 411.067 125.483 408.683 125.483C403.887 125.483 400.225 123.599 396.851 120.289C393.329 116.834 390.423 112.128 387.201 106.86L387.062 106.633C384.007 101.638 380.635 96.1263 376.33 91.904C371.811 87.4731 366.003 84.1975 358.171 84.1975C350.343 84.1975 344.537 87.4739 340.02 91.9047C335.719 96.1247 332.349 101.633 329.295 106.626L329.152 106.86C325.93 112.127 323.024 116.833 319.5 120.288C316.125 123.598 312.46 125.483 307.66 125.483C302.864 125.483 299.202 123.599 295.828 120.289C292.306 116.834 289.4 112.128 286.178 106.86C286.132 106.785 286.085 106.709 286.039 106.633C282.984 101.638 279.612 96.1263 275.307 91.904C270.788 87.4731 264.98 84.1975 257.148 84.1975C254.764 84.1975 252.831 85.9632 252.831 88.1414C252.831 90.3195 254.764 92.0852 257.148 92.0852C261.948 92.0852 265.613 93.9703 268.989 97.2805C272.512 100.735 275.419 105.441 278.641 110.708C278.688 110.786 278.736 110.864 278.784 110.943C281.838 115.935 285.207 121.444 289.509 125.664Z" fill="#529952"/>
<path fill-rule="evenodd" clip-rule="evenodd" d="M0.799805 212.689C0.799805 214.867 2.72881 216.633 5.10836 216.633C12.9215 216.633 18.7159 213.356 23.2232 208.926C27.5161 204.706 30.8786 199.197 33.9263 194.204C33.9741 194.126 34.0217 194.048 34.0694 193.97C37.2848 188.703 40.1856 183.997 43.7016 180.542C47.0705 177.232 50.7282 175.347 55.5184 175.347C60.3087 175.347 63.9664 177.232 67.3352 180.542C70.8512 183.997 73.7521 188.703 76.9675 193.97L77.1106 194.204C80.1583 199.197 83.5208 204.706 87.8137 208.926C92.321 213.356 98.1153 216.633 105.928 216.633C113.744 216.633 119.541 213.357 124.05 208.926C128.347 204.704 131.712 199.192 134.761 194.197L134.9 193.97C138.115 188.703 141.015 183.997 144.53 180.542C147.898 177.231 151.553 175.347 156.339 175.347C161.129 175.347 164.786 177.232 168.155 180.542C171.671 183.997 174.572 188.703 177.788 193.97L177.931 194.204C180.978 199.197 184.341 204.706 188.634 208.926C193.141 213.356 198.935 216.633 206.749 216.633C214.564 216.633 220.361 213.357 224.871 208.926C229.168 204.704 232.532 199.192 235.581 194.197L235.72 193.97C238.936 188.703 241.836 183.997 245.35 180.542C248.718 177.231 252.373 175.347 257.159 175.347C259.538 175.347 261.467 173.581 261.467 171.403C261.467 169.225 259.538 167.459 257.159 167.459C249.346 167.459 243.551 170.736 239.044 175.166C234.751 179.386 231.388 184.895 228.341 189.888L228.198 190.122C224.982 195.389 222.081 200.095 218.565 203.55C215.197 206.86 211.539 208.745 206.749 208.745C201.963 208.745 198.308 206.861 194.94 203.55C191.426 200.095 188.525 195.389 185.31 190.122L185.171 189.895C182.122 184.9 178.758 179.388 174.46 175.166C169.951 170.735 164.154 167.459 156.339 167.459C148.525 167.459 142.731 170.736 138.224 175.166C133.931 179.386 130.568 184.895 127.521 189.888L127.378 190.122C124.162 195.389 121.261 200.095 117.745 203.55C114.376 206.86 110.719 208.745 105.928 208.745C101.143 208.745 97.4876 206.861 94.1201 203.55C90.6054 200.095 87.7054 195.389 84.4897 190.122L84.3511 189.895C81.3019 184.9 77.9374 179.388 73.6403 175.166C69.1309 170.735 63.3341 167.459 55.5184 167.459C47.7027 167.459 41.906 170.735 37.3965 175.166C33.0995 179.388 29.7349 184.9 26.6858 189.895L26.5471 190.122C23.3315 195.389 20.4314 200.095 16.9168 203.55C13.5493 206.861 9.89429 208.745 5.10836 208.745C2.72881 208.745 0.799805 210.511 0.799805 212.689Z" fill="#529952"/>
<path fill-rule="evenodd" clip-rule="evenodd" d="M289.509 208.926C294.025 213.356 299.831 216.633 307.66 216.633C315.491 216.633 321.3 213.357 325.818 208.926C330.124 204.704 333.495 199.192 336.55 194.197L336.689 193.97C339.912 188.703 342.817 183.997 346.339 180.542C349.714 177.231 353.376 175.347 358.171 175.347C362.971 175.347 366.636 177.232 370.012 180.542C373.535 183.997 376.442 188.703 379.664 193.97L379.807 194.204C382.861 199.197 386.23 204.706 390.532 208.926C395.048 213.356 400.854 216.633 408.683 216.633C411.067 216.633 413 214.867 413 212.689C413 210.511 411.067 208.745 408.683 208.745C403.887 208.745 400.225 206.861 396.851 203.55C393.329 200.095 390.423 195.389 387.201 190.122L387.062 189.895C384.007 184.9 380.635 179.388 376.33 175.166C371.811 170.735 366.003 167.459 358.171 167.459C350.343 167.459 344.537 170.736 340.02 175.166C335.719 179.386 332.349 184.895 329.295 189.888L329.152 190.122C325.93 195.389 323.024 200.095 319.5 203.55C316.125 206.86 312.46 208.745 307.66 208.745C302.864 208.745 299.202 206.861 295.828 203.55C292.306 200.095 289.4 195.389 286.178 190.122C286.132 190.047 286.085 189.971 286.039 189.895C282.984 184.9 279.612 179.388 275.307 175.166C270.788 170.735 264.98 167.459 257.148 167.459C254.764 167.459 252.831 169.225 252.831 171.403C252.831 173.581 254.764 175.347 257.148 175.347C261.948 175.347 265.613 177.232 268.989 180.542C272.512 183.997 275.419 188.703 278.641 193.97C278.688 194.048 278.736 194.126 278.784 194.204C281.838 199.197 285.207 204.706 289.509 208.926Z" fill="#529952"/>
<path d="M113.733 249.867C113.733 254.211 110.211 257.733 105.867 257.733C101.522 257.733 98 254.211 98 249.867C98 245.522 101.522 242 105.867 242C110.211 242 113.733 245.522 113.733 249.867Z" fill="#529952"/>
<path d="M113.733 170.867C113.733 175.211 110.211 178.733 105.867 178.733C101.522 178.733 98 175.211 98 170.867C98 166.522 101.522 163 105.867 163C110.211 163 113.733 166.522 113.733 170.867Z" fill="#529952"/>
<path d="M113.733 87.8667C113.733 92.2113 110.211 95.7333 105.867 95.7333C101.522 95.7333 98 92.2113 98 87.8667C98 83.522 101.522 80 105.867 80C110.211 80 113.733 83.522 113.733 87.8667Z" fill="#529952"/>
<path d="M113.733 8.86667C113.733 13.2113 110.211 16.7333 105.867 16.7333C101.522 16.7333 98 13.2113 98 8.86667C98 4.52203 101.522 1 105.867 1C110.211 1 113.733 4.52203 113.733 8.86667Z" fill="#529952"/>
<path d="M63.7333 45.8667C63.7333 50.2113 60.2113 53.7333 55.8667 53.7333C51.522 53.7333 48 50.2113 48 45.8667C48 41.522 51.522 38 55.8667 38C60.2113 38 63.7333 41.522 63.7333 45.8667Z" fill="#529952"/>
<path d="M63.7333 129.867C63.7333 134.211 60.2113 137.733 55.8667 137.733C51.522 137.733 48 134.211 48 129.867C48 125.522 51.522 122 55.8667 122C60.2113 122 63.7333 125.522 63.7333 129.867Z" fill="#529952"/>
<path d="M63.7333 213.867C63.7333 218.211 60.2113 221.733 55.8667 221.733C51.522 221.733 48 218.211 48 213.867C48 209.522 51.522 206 55.8667 206C60.2113 206 63.7333 209.522 63.7333 213.867Z" fill="#529952"/>
<path d="M164.733 45.8667C164.733 50.2113 161.211 53.7333 156.867 53.7333C152.522 53.7333 149 50.2113 149 45.8667C149 41.522 152.522 38 156.867 38C161.211 38 164.733 41.522 164.733 45.8667Z" fill="#529952"/>
<path d="M164.733 129.867C164.733 134.211 161.211 137.733 156.867 137.733C152.522 137.733 149 134.211 149 129.867C149 125.522 152.522 122 156.867 122C161.211 122 164.733 125.522 164.733 129.867Z" fill="#529952"/>
<path d="M164.733 213.867C164.733 218.211 161.211 221.733 156.867 221.733C152.522 221.733 149 218.211 149 213.867C149 209.522 152.522 206 156.867 206C161.211 206 164.733 209.522 164.733 213.867Z" fill="#529952"/>
<path d="M265.733 45.8667C265.733 50.2113 262.211 53.7333 257.867 53.7333C253.522 53.7333 250 50.2113 250 45.8667C250 41.522 253.522 38 257.867 38C262.211 38 265.733 41.522 265.733 45.8667Z" fill="#529952"/>
<path d="M265.733 129.867C265.733 134.211 262.211 137.733 257.867 137.733C253.522 137.733 250 134.211 250 129.867C250 125.522 253.522 122 257.867 122C262.211 122 265.733 125.522 265.733 129.867Z" fill="#529952"/>
<path d="M265.733 213.867C265.733 218.211 262.211 221.733 257.867 221.733C253.522 221.733 250 218.211 250 213.867C250 209.522 253.522 206 257.867 206C262.211 206 265.733 209.522 265.733 213.867Z" fill="#529952"/>
<path d="M366.733 45.8667C366.733 50.2113 363.211 53.7333 358.867 53.7333C354.522 53.7333 351 50.2113 351 45.8667C351 41.522 354.522 38 358.867 38C363.211 38 366.733 41.522 366.733 45.8667Z" fill="#529952"/>
<path d="M366.733 129.867C366.733 134.211 363.211 137.733 358.867 137.733C354.522 137.733 351 134.211 351 129.867C351 125.522 354.522 122 358.867 122C363.211 122 366.733 125.522 366.733 129.867Z" fill="#529952"/>
<path d="M366.733 213.867C366.733 218.211 363.211 221.733 358.867 221.733C354.522 221.733 351 218.211 351 213.867C351 209.522 354.522 206 358.867 206C363.211 206 366.733 209.522 366.733 213.867Z" fill="#529952"/>
<path d="M214.733 249.867C214.733 254.211 211.211 257.733 206.867 257.733C202.522 257.733 199 254.211 199 249.867C199 245.522 202.522 242 206.867 242C211.211 242 214.733 245.522 214.733 249.867Z" fill="#529952"/>
<path d="M214.733 170.867C214.733 175.211 211.211 178.733 206.867 178.733C202.522 178.733 199 175.211 199 170.867C199 166.522 202.522 163 206.867 163C211.211 163 214.733 166.522 214.733 170.867Z" fill="#529952"/>
<path d="M214.733 87.8667C214.733 92.2113 211.211 95.7333 206.867 95.7333C202.522 95.7333 199 92.2113 199 87.8667C199 83.522 202.522 80 206.867 80C211.211 80 214.733 83.522 214.733 87.8667Z" fill="#529952"/>
<path d="M214.733 8.86667C214.733 13.2113 211.211 16.7333 206.867 16.7333C202.522 16.7333 199 13.2113 199 8.86667C199 4.52203 202.522 1 206.867 1C211.211 1 214.733 4.52203 214.733 8.86667Z" fill="#529952"/>
<path d="M315.733 249.867C315.733 254.211 312.211 257.733 307.867 257.733C303.522 257.733 300 254.211 300 249.867C300 245.522 303.522 242 307.867 242C312.211 242 315.733 245.522 315.733 249.867Z" fill="#529952"/>
<path d="M315.733 170.867C315.733 175.211 312.211 178.733 307.867 178.733C303.522 178.733 300 175.211 300 170.867C300 166.522 303.522 163 307.867 163C312.211 163 315.733 166.522 315.733 170.867Z" fill="#529952"/>
<path d="M315.733 87.8667C315.733 92.2113 312.211 95.7333 307.867 95.7333C303.522 95.7333 300 92.2113 300 87.8667C300 83.522 303.522 80 307.867 80C312.211 80 315.733 83.522 315.733 87.8667Z" fill="#529952"/>
<path d="M315.733 8.86667C315.733 13.2113 312.211 16.7333 307.867 16.7333C303.522 16.7333 300 13.2113 300 8.86667C300 4.52203 303.522 1 307.867 1C312.211 1 315.733 4.52203 315.733 8.86667Z" fill="#529952"/>
</svg>
