<svg width="413" height="258" viewBox="0 0 413 258" fill="none" xmlns="http://www.w3.org/2000/svg">
<path d="M113.28 44.4465C113.28 49.0084 109.758 52.7065 105.414 52.7065C101.069 52.7065 97.5469 49.0084 97.5469 44.4465C97.5469 39.8847 101.069 36.1865 105.414 36.1865C109.758 36.1865 113.28 39.8847 113.28 44.4465Z" fill="#FE724D"/>
<path d="M63.7202 11.8003C63.7202 16.1449 60.0221 19.6669 55.4602 19.6669C50.8983 19.6669 47.2002 16.1449 47.2002 11.8003C47.2002 7.45562 50.8983 3.93359 55.4602 3.93359C60.0221 3.93359 63.7202 7.45562 63.7202 11.8003Z" fill="#FE724D"/>
<path d="M213.974 44.4465C213.974 49.0084 210.452 52.7065 206.107 52.7065C201.762 52.7065 198.24 49.0084 198.24 44.4465C198.24 39.8847 201.762 36.1865 206.107 36.1865C210.452 36.1865 213.974 39.8847 213.974 44.4465Z" fill="#FE724D"/>
<path d="M163.627 11.8003C163.627 16.1449 160.105 19.6669 155.76 19.6669C151.416 19.6669 147.894 16.1449 147.894 11.8003C147.894 7.45562 151.416 3.93359 155.76 3.93359C160.105 3.93359 163.627 7.45562 163.627 11.8003Z" fill="#FE724D"/>
<path d="M314.667 44.4465C314.667 49.0084 311.145 52.7065 306.8 52.7065C302.456 52.7065 298.934 49.0084 298.934 44.4465C298.934 39.8847 302.456 36.1865 306.8 36.1865C311.145 36.1865 314.667 39.8847 314.667 44.4465Z" fill="#FE724D"/>
<path d="M264.32 11.8003C264.32 16.1449 260.798 19.6669 256.454 19.6669C252.109 19.6669 248.587 16.1449 248.587 11.8003C248.587 7.45562 252.109 3.93359 256.454 3.93359C260.798 3.93359 264.32 7.45562 264.32 11.8003Z" fill="#FE724D"/>
<path d="M365.014 11.8003C365.014 16.1449 361.492 19.6669 357.147 19.6669C352.802 19.6669 349.28 16.1449 349.28 11.8003C349.28 7.45562 352.802 3.93359 357.147 3.93359C361.492 3.93359 365.014 7.45562 365.014 11.8003Z" fill="#FE724D"/>
<path fill-rule="evenodd" clip-rule="evenodd" d="M0 4.29031C0 1.92083 1.93275 0 4.31691 0C12.1452 0 17.9508 3.5642 22.4669 8.3842C26.7681 12.9749 30.1371 18.9673 33.1908 24.3988C33.2386 24.4839 33.2864 24.5689 33.3341 24.6538C36.5558 30.3833 39.4623 35.5027 42.9851 39.261C46.3605 42.862 50.0253 44.9127 54.8248 44.9127C59.6244 44.9127 63.2892 42.862 66.6645 39.261C70.1874 35.5027 73.0938 30.3833 76.3155 24.6538L76.4589 24.3987C79.5125 18.9673 82.8815 12.9749 87.1827 8.3842C91.6988 3.5642 97.5044 0 105.333 0C113.164 0 118.972 3.56336 123.49 8.38352C127.795 12.9766 131.166 18.9727 134.221 24.4066L134.36 24.6538C137.582 30.3837 140.488 35.5032 144.009 39.2617C147.383 42.8628 151.045 44.9127 155.841 44.9127C160.64 44.9127 164.305 42.862 167.68 39.261C171.203 35.5027 174.11 30.3833 177.331 24.6538L177.475 24.3989C180.528 18.9674 183.897 12.975 188.199 8.3842C192.715 3.5642 198.52 0 206.349 0C214.179 0 219.987 3.56336 224.506 8.38352C228.811 12.9766 232.182 18.9727 235.237 24.4066L235.376 24.6538C238.598 30.3837 241.504 35.5032 245.025 39.2617C248.399 42.8628 252.061 44.9127 256.856 44.9127C259.241 44.9127 261.173 46.8336 261.173 49.203C261.173 51.5725 259.241 53.4933 256.856 53.4933C249.028 53.4933 243.223 49.9291 238.706 45.1091C234.405 40.5184 231.036 34.5259 227.982 29.0944L227.839 28.8396C224.618 23.11 221.711 17.9906 218.188 14.2323C214.813 10.6313 211.148 8.58061 206.349 8.58061C201.553 8.58061 197.891 10.6305 194.517 14.2316C190.996 17.9901 188.09 23.1096 184.868 28.8396L184.729 29.0866C181.674 34.5206 178.303 40.5167 173.998 45.1098C169.479 49.93 163.671 53.4933 155.841 53.4933C148.012 53.4933 142.207 49.9291 137.691 45.1091C133.389 40.5184 130.02 34.526 126.967 29.0946L126.823 28.8396C123.602 23.11 120.695 17.9906 117.172 14.2323C113.797 10.6313 110.132 8.58061 105.333 8.58061C100.537 8.58061 96.8754 10.6305 93.5014 14.2316C89.9799 17.9901 87.0742 23.1096 83.8523 28.8396L83.7134 29.0867C80.6584 34.5206 77.2873 40.5167 72.9819 45.1098C68.4637 49.93 62.6557 53.4933 54.8248 53.4933C46.994 53.4933 41.1859 49.93 36.6677 45.1098C32.3623 40.5167 28.9913 34.5206 25.9362 29.0867L25.7973 28.8396C22.5754 23.1096 19.6697 17.9901 16.1483 14.2316C12.7742 10.6305 9.11214 8.58061 4.31691 8.58061C1.93275 8.58061 0 6.65978 0 4.29031Z" fill="#FE724D"/>
<path fill-rule="evenodd" clip-rule="evenodd" d="M289.269 8.3842C293.794 3.5642 299.612 0 307.456 0C315.302 0 321.122 3.56336 325.649 8.38352C329.963 12.9766 333.341 18.9727 336.402 24.4066L336.542 24.6538C339.77 30.3837 342.682 35.5032 346.21 39.2617C349.591 42.8628 353.26 44.9127 358.065 44.9127C362.875 44.9127 366.547 42.862 369.929 39.261C373.459 35.5027 376.371 30.3833 379.599 24.6538L379.743 24.3987C382.803 18.9673 386.178 12.9749 390.488 8.3842C395.014 3.5642 400.831 0 408.675 0C411.064 0 413.001 1.92083 413.001 4.29031C413.001 6.65978 411.064 8.58061 408.675 8.58061C403.87 8.58061 400.201 10.6305 396.82 14.2316C393.291 17.9901 390.38 23.1096 387.151 28.8396L387.012 29.0867C383.951 34.5206 380.573 40.5167 376.259 45.1098C371.732 49.93 365.912 53.4933 358.065 53.4933C350.221 53.4933 344.404 49.9291 339.879 45.1091C335.569 40.5184 332.193 34.526 329.133 29.0945L328.99 28.8396C325.762 23.11 322.849 17.9906 319.319 14.2323C315.937 10.6313 312.265 8.58061 307.456 8.58061C302.651 8.58061 298.981 10.6305 295.601 14.2316C292.072 17.9901 289.16 23.1096 285.932 28.8396C285.886 28.9218 285.839 29.0042 285.793 29.0867C282.732 34.5206 279.354 40.5167 275.04 45.1098C270.512 49.93 264.693 53.4933 256.846 53.4933C254.457 53.4933 252.521 51.5725 252.521 49.203C252.521 46.8336 254.457 44.9127 256.846 44.9127C261.655 44.9127 265.327 42.862 268.71 39.261C272.24 35.5027 275.152 30.3833 278.38 24.6538C278.428 24.5689 278.476 24.4839 278.524 24.3988C281.583 18.9673 284.959 12.9749 289.269 8.3842Z" fill="#FE724D"/>
<path d="M113.28 112.195C113.28 116.756 109.758 120.455 105.414 120.455C101.069 120.455 97.5469 116.756 97.5469 112.195C97.5469 107.633 101.069 103.935 105.414 103.935C109.758 103.935 113.28 107.633 113.28 112.195Z" fill="#FE724D"/>
<path d="M63.7202 79.5483C63.7202 83.8929 60.0221 87.415 55.4602 87.415C50.8983 87.415 47.2002 83.8929 47.2002 79.5483C47.2002 75.2037 50.8983 71.6816 55.4602 71.6816C60.0221 71.6816 63.7202 75.2037 63.7202 79.5483Z" fill="#FE724D"/>
<path d="M213.974 112.195C213.974 116.756 210.452 120.455 206.107 120.455C201.762 120.455 198.24 116.756 198.24 112.195C198.24 107.633 201.762 103.935 206.107 103.935C210.452 103.935 213.974 107.633 213.974 112.195Z" fill="#FE724D"/>
<path d="M163.627 79.5483C163.627 83.8929 160.105 87.415 155.76 87.415C151.416 87.415 147.894 83.8929 147.894 79.5483C147.894 75.2037 151.416 71.6816 155.76 71.6816C160.105 71.6816 163.627 75.2037 163.627 79.5483Z" fill="#FE724D"/>
<path d="M314.667 112.195C314.667 116.756 311.145 120.455 306.8 120.455C302.456 120.455 298.934 116.756 298.934 112.195C298.934 107.633 302.456 103.935 306.8 103.935C311.145 103.935 314.667 107.633 314.667 112.195Z" fill="#FE724D"/>
<path d="M264.32 79.5483C264.32 83.8929 260.798 87.415 256.454 87.415C252.109 87.415 248.587 83.8929 248.587 79.5483C248.587 75.2037 252.109 71.6816 256.454 71.6816C260.798 71.6816 264.32 75.2037 264.32 79.5483Z" fill="#FE724D"/>
<path d="M365.014 79.5483C365.014 83.8929 361.492 87.415 357.147 87.415C352.802 87.415 349.28 83.8929 349.28 79.5483C349.28 75.2037 352.802 71.6816 357.147 71.6816C361.492 71.6816 365.014 75.2037 365.014 79.5483Z" fill="#FE724D"/>
<path fill-rule="evenodd" clip-rule="evenodd" d="M0 72.0384C0 69.6689 1.93275 67.748 4.31691 67.748C12.1452 67.748 17.9508 71.3122 22.4669 76.1322C26.7681 80.723 30.1371 86.7154 33.1908 92.1468C33.2386 92.232 33.2864 92.317 33.3341 92.4018C36.5558 98.1313 39.4623 103.251 42.9851 107.009C46.3605 110.61 50.0253 112.661 54.8248 112.661C59.6244 112.661 63.2892 110.61 66.6645 107.009C70.1874 103.251 73.0938 98.1313 76.3155 92.4018L76.4589 92.1468C79.5125 86.7153 82.8815 80.723 87.1827 76.1322C91.6988 71.3122 97.5044 67.748 105.333 67.748C113.164 67.748 118.972 71.3114 123.49 76.1316C127.795 80.7247 131.166 86.7207 134.221 92.1546L134.36 92.4018C137.582 98.1317 140.488 103.251 144.009 107.01C147.383 110.611 151.045 112.661 155.841 112.661C160.64 112.661 164.305 110.61 167.68 107.009C171.203 103.251 174.11 98.1313 177.331 92.4018L177.475 92.147C180.528 86.7155 183.897 80.723 188.199 76.1322C192.715 71.3122 198.52 67.748 206.349 67.748C214.179 67.748 219.987 71.3114 224.506 76.1316C228.811 80.7247 232.182 86.7207 235.237 92.1546L235.376 92.4018C238.598 98.1317 241.504 103.251 245.025 107.01C248.399 110.611 252.061 112.661 256.856 112.661C259.241 112.661 261.173 114.582 261.173 116.951C261.173 119.321 259.241 121.241 256.856 121.241C249.028 121.241 243.223 117.677 238.706 112.857C234.405 108.266 231.036 102.274 227.982 96.8425L227.839 96.5876C224.618 90.8581 221.711 85.7386 218.188 81.9804C214.813 78.3794 211.148 76.3287 206.349 76.3287C201.553 76.3287 197.891 78.3785 194.517 81.9797C190.996 85.7381 188.09 90.8577 184.868 96.5876L184.729 96.8346C181.674 102.269 178.303 108.265 173.998 112.858C169.479 117.678 163.671 121.241 155.841 121.241C148.012 121.241 142.207 117.677 137.691 112.857C133.389 108.266 130.02 102.274 126.967 96.8426L126.823 96.5876C123.602 90.8581 120.695 85.7386 117.172 81.9804C113.797 78.3794 110.132 76.3287 105.333 76.3287C100.537 76.3287 96.8754 78.3785 93.5014 81.9797C89.9799 85.7381 87.0742 90.8577 83.8523 96.5876L83.7134 96.8347C80.6584 102.269 77.2873 108.265 72.9819 112.858C68.4637 117.678 62.6557 121.241 54.8248 121.241C46.994 121.241 41.1859 117.678 36.6677 112.858C32.3623 108.265 28.9913 102.269 25.9362 96.8347L25.7973 96.5876C22.5754 90.8577 19.6697 85.7381 16.1483 81.9797C12.7742 78.3785 9.11214 76.3287 4.31691 76.3287C1.93275 76.3287 0 74.4078 0 72.0384Z" fill="#FE724D"/>
<path fill-rule="evenodd" clip-rule="evenodd" d="M289.269 76.1322C293.794 71.3122 299.612 67.748 307.456 67.748C315.302 67.748 321.122 71.3114 325.649 76.1316C329.963 80.7247 333.341 86.7207 336.402 92.1546L336.542 92.4018C339.77 98.1317 342.682 103.251 346.21 107.01C349.591 110.611 353.26 112.661 358.065 112.661C362.875 112.661 366.547 110.61 369.929 107.009C373.459 103.251 376.371 98.1313 379.599 92.4018L379.743 92.1467C382.803 86.7153 386.178 80.7229 390.488 76.1322C395.014 71.3122 400.831 67.748 408.675 67.748C411.064 67.748 413.001 69.6689 413.001 72.0384C413.001 74.4078 411.064 76.3287 408.675 76.3287C403.87 76.3287 400.201 78.3785 396.82 81.9797C393.291 85.7381 390.38 90.8577 387.151 96.5876L387.012 96.8347C383.951 102.269 380.573 108.265 376.259 112.858C371.732 117.678 365.912 121.241 358.065 121.241C350.221 121.241 344.404 117.677 339.879 112.857C335.569 108.266 332.193 102.274 329.133 96.8425L328.99 96.5876C325.762 90.8581 322.849 85.7386 319.319 81.9804C315.937 78.3794 312.265 76.3287 307.456 76.3287C302.651 76.3287 298.981 78.3785 295.601 81.9797C292.072 85.7381 289.16 90.8577 285.932 96.5876C285.886 96.6699 285.839 96.7522 285.793 96.8347C282.732 102.269 279.354 108.265 275.04 112.858C270.512 117.678 264.693 121.241 256.846 121.241C254.457 121.241 252.521 119.321 252.521 116.951C252.521 114.582 254.457 112.661 256.846 112.661C261.655 112.661 265.327 110.61 268.71 107.009C272.24 103.251 275.152 98.1313 278.38 92.4018C278.428 92.317 278.476 92.232 278.524 92.1468C281.583 86.7154 284.959 80.723 289.269 76.1322Z" fill="#FE724D"/>
<path d="M113.28 180.195C113.28 184.756 109.758 188.455 105.414 188.455C101.069 188.455 97.5469 184.756 97.5469 180.195C97.5469 175.633 101.069 171.935 105.414 171.935C109.758 171.935 113.28 175.633 113.28 180.195Z" fill="#FE724D"/>
<path d="M63.7202 147.548C63.7202 151.893 60.0221 155.415 55.4602 155.415C50.8983 155.415 47.2002 151.893 47.2002 147.548C47.2002 143.204 50.8983 139.682 55.4602 139.682C60.0221 139.682 63.7202 143.204 63.7202 147.548Z" fill="#FE724D"/>
<path d="M213.974 180.195C213.974 184.756 210.452 188.455 206.107 188.455C201.762 188.455 198.24 184.756 198.24 180.195C198.24 175.633 201.762 171.935 206.107 171.935C210.452 171.935 213.974 175.633 213.974 180.195Z" fill="#FE724D"/>
<path d="M163.627 147.548C163.627 151.893 160.105 155.415 155.76 155.415C151.416 155.415 147.894 151.893 147.894 147.548C147.894 143.204 151.416 139.682 155.76 139.682C160.105 139.682 163.627 143.204 163.627 147.548Z" fill="#FE724D"/>
<path d="M314.667 180.195C314.667 184.756 311.145 188.455 306.8 188.455C302.456 188.455 298.934 184.756 298.934 180.195C298.934 175.633 302.456 171.935 306.8 171.935C311.145 171.935 314.667 175.633 314.667 180.195Z" fill="#FE724D"/>
<path d="M264.32 147.548C264.32 151.893 260.798 155.415 256.454 155.415C252.109 155.415 248.587 151.893 248.587 147.548C248.587 143.204 252.109 139.682 256.454 139.682C260.798 139.682 264.32 143.204 264.32 147.548Z" fill="#FE724D"/>
<path d="M365.014 147.548C365.014 151.893 361.492 155.415 357.147 155.415C352.802 155.415 349.28 151.893 349.28 147.548C349.28 143.204 352.802 139.682 357.147 139.682C361.492 139.682 365.014 143.204 365.014 147.548Z" fill="#FE724D"/>
<path fill-rule="evenodd" clip-rule="evenodd" d="M0 140.038C0 137.669 1.93275 135.748 4.31691 135.748C12.1452 135.748 17.9508 139.312 22.4669 144.132C26.7681 148.723 30.1371 154.715 33.1908 160.147C33.2386 160.232 33.2864 160.317 33.3341 160.402C36.5558 166.131 39.4623 171.251 42.9851 175.009C46.3605 178.61 50.0253 180.661 54.8248 180.661C59.6244 180.661 63.2892 178.61 66.6645 175.009C70.1874 171.251 73.0938 166.131 76.3155 160.402L76.4589 160.147C79.5125 154.715 82.8815 148.723 87.1827 144.132C91.6988 139.312 97.5044 135.748 105.333 135.748C113.164 135.748 118.972 139.311 123.49 144.132C127.795 148.725 131.166 154.721 134.221 160.155L134.36 160.402C137.582 166.132 140.488 171.251 144.009 175.01C147.383 178.611 151.045 180.661 155.841 180.661C160.64 180.661 164.305 178.61 167.68 175.009C171.203 171.251 174.11 166.131 177.331 160.402L177.475 160.147C180.528 154.715 183.897 148.723 188.199 144.132C192.715 139.312 198.52 135.748 206.349 135.748C214.179 135.748 219.987 139.311 224.506 144.132C228.811 148.725 232.182 154.721 235.237 160.155L235.376 160.402C238.598 166.132 241.504 171.251 245.025 175.01C248.399 178.611 252.061 180.661 256.856 180.661C259.241 180.661 261.173 182.582 261.173 184.951C261.173 187.321 259.241 189.241 256.856 189.241C249.028 189.241 243.223 185.677 238.706 180.857C234.405 176.266 231.036 170.274 227.982 164.842L227.839 164.588C224.618 158.858 221.711 153.739 218.188 149.98C214.813 146.379 211.148 144.329 206.349 144.329C201.553 144.329 197.891 146.379 194.517 149.98C190.996 153.738 188.09 158.858 184.868 164.588L184.729 164.835C181.674 170.269 178.303 176.265 173.998 180.858C169.479 185.678 163.671 189.241 155.841 189.241C148.012 189.241 142.207 185.677 137.691 180.857C133.389 176.266 130.02 170.274 126.967 164.843L126.823 164.588C123.602 158.858 120.695 153.739 117.172 149.98C113.797 146.379 110.132 144.329 105.333 144.329C100.537 144.329 96.8754 146.379 93.5014 149.98C89.9799 153.738 87.0742 158.858 83.8523 164.588L83.7134 164.835C80.6584 170.269 77.2873 176.265 72.9819 180.858C68.4637 185.678 62.6557 189.241 54.8248 189.241C46.994 189.241 41.1859 185.678 36.6677 180.858C32.3623 176.265 28.9913 170.269 25.9362 164.835L25.7973 164.588C22.5754 158.858 19.6697 153.738 16.1483 149.98C12.7742 146.379 9.11214 144.329 4.31691 144.329C1.93275 144.329 0 142.408 0 140.038Z" fill="#FE724D"/>
<path fill-rule="evenodd" clip-rule="evenodd" d="M289.269 144.132C293.794 139.312 299.612 135.748 307.456 135.748C315.302 135.748 321.122 139.311 325.649 144.132C329.963 148.725 333.341 154.721 336.402 160.155L336.542 160.402C339.77 166.132 342.682 171.251 346.21 175.01C349.591 178.611 353.26 180.661 358.065 180.661C362.875 180.661 366.547 178.61 369.929 175.009C373.459 171.251 376.371 166.131 379.599 160.402L379.743 160.147C382.803 154.715 386.178 148.723 390.488 144.132C395.014 139.312 400.831 135.748 408.675 135.748C411.064 135.748 413.001 137.669 413.001 140.038C413.001 142.408 411.064 144.329 408.675 144.329C403.87 144.329 400.201 146.379 396.82 149.98C393.291 153.738 390.38 158.858 387.151 164.588L387.012 164.835C383.951 170.269 380.573 176.265 376.259 180.858C371.732 185.678 365.912 189.241 358.065 189.241C350.221 189.241 344.404 185.677 339.879 180.857C335.569 176.266 332.193 170.274 329.133 164.843L328.99 164.588C325.762 158.858 322.849 153.739 319.319 149.98C315.937 146.379 312.265 144.329 307.456 144.329C302.651 144.329 298.981 146.379 295.601 149.98C292.072 153.738 289.16 158.858 285.932 164.588C285.886 164.67 285.839 164.752 285.793 164.835C282.732 170.269 279.354 176.265 275.04 180.858C270.512 185.678 264.693 189.241 256.846 189.241C254.457 189.241 252.521 187.321 252.521 184.951C252.521 182.582 254.457 180.661 256.846 180.661C261.655 180.661 265.327 178.61 268.71 175.009C272.24 171.251 275.152 166.131 278.38 160.402C278.428 160.317 278.476 160.232 278.524 160.147C281.583 154.715 284.959 148.723 289.269 144.132Z" fill="#FE724D"/>
<path d="M113.28 248.447C113.28 253.008 109.758 256.707 105.414 256.707C101.069 256.707 97.5469 253.008 97.5469 248.447C97.5469 243.885 101.069 240.187 105.414 240.187C109.758 240.187 113.28 243.885 113.28 248.447Z" fill="#FE724D"/>
<path d="M63.7202 215.8C63.7202 220.145 60.0221 223.667 55.4602 223.667C50.8983 223.667 47.2002 220.145 47.2002 215.8C47.2002 211.456 50.8983 207.934 55.4602 207.934C60.0221 207.934 63.7202 211.456 63.7202 215.8Z" fill="#FE724D"/>
<path d="M213.974 248.447C213.974 253.008 210.452 256.707 206.107 256.707C201.762 256.707 198.24 253.008 198.24 248.447C198.24 243.885 201.762 240.187 206.107 240.187C210.452 240.187 213.974 243.885 213.974 248.447Z" fill="#FE724D"/>
<path d="M163.627 215.8C163.627 220.145 160.105 223.667 155.76 223.667C151.416 223.667 147.894 220.145 147.894 215.8C147.894 211.456 151.416 207.934 155.76 207.934C160.105 207.934 163.627 211.456 163.627 215.8Z" fill="#FE724D"/>
<path d="M314.667 248.447C314.667 253.008 311.145 256.707 306.8 256.707C302.456 256.707 298.934 253.008 298.934 248.447C298.934 243.885 302.456 240.187 306.8 240.187C311.145 240.187 314.667 243.885 314.667 248.447Z" fill="#FE724D"/>
<path d="M264.32 215.8C264.32 220.145 260.798 223.667 256.454 223.667C252.109 223.667 248.587 220.145 248.587 215.8C248.587 211.456 252.109 207.934 256.454 207.934C260.798 207.934 264.32 211.456 264.32 215.8Z" fill="#FE724D"/>
<path d="M365.014 215.8C365.014 220.145 361.492 223.667 357.147 223.667C352.802 223.667 349.28 220.145 349.28 215.8C349.28 211.456 352.802 207.934 357.147 207.934C361.492 207.934 365.014 211.456 365.014 215.8Z" fill="#FE724D"/>
<path fill-rule="evenodd" clip-rule="evenodd" d="M0 208.29C0 205.921 1.93275 204 4.31691 204C12.1452 204 17.9508 207.564 22.4669 212.384C26.7681 216.975 30.1371 222.967 33.1908 228.399C33.2386 228.484 33.2864 228.569 33.3341 228.654C36.5558 234.383 39.4623 239.503 42.9851 243.261C46.3605 246.862 50.0253 248.913 54.8248 248.913C59.6244 248.913 63.2892 246.862 66.6645 243.261C70.1874 239.503 73.0938 234.383 76.3155 228.654L76.4589 228.399C79.5125 222.967 82.8815 216.975 87.1827 212.384C91.6988 207.564 97.5044 204 105.333 204C113.164 204 118.972 207.563 123.49 212.384C127.795 216.977 131.166 222.973 134.221 228.407L134.36 228.654C137.582 234.384 140.488 239.503 144.009 243.262C147.383 246.863 151.045 248.913 155.841 248.913C160.64 248.913 164.305 246.862 167.68 243.261C171.203 239.503 174.11 234.383 177.331 228.654L177.475 228.399C180.528 222.967 183.897 216.975 188.199 212.384C192.715 207.564 198.52 204 206.349 204C214.179 204 219.987 207.563 224.506 212.384C228.811 216.977 232.182 222.973 235.237 228.407L235.376 228.654C238.598 234.384 241.504 239.503 245.025 243.262C248.399 246.863 252.061 248.913 256.856 248.913C259.241 248.913 261.173 250.834 261.173 253.203C261.173 255.572 259.241 257.493 256.856 257.493C249.028 257.493 243.223 253.929 238.706 249.109C234.405 244.518 231.036 238.526 227.982 233.094L227.839 232.84C224.618 227.11 221.711 221.991 218.188 218.232C214.813 214.631 211.148 212.581 206.349 212.581C201.553 212.581 197.891 214.63 194.517 218.232C190.996 221.99 188.09 227.11 184.868 232.84L184.729 233.087C181.674 238.521 178.303 244.517 173.998 249.11C169.479 253.93 163.671 257.493 155.841 257.493C148.012 257.493 142.207 253.929 137.691 249.109C133.389 244.518 130.02 238.526 126.967 233.095L126.823 232.84C123.602 227.11 120.695 221.991 117.172 218.232C113.797 214.631 110.132 212.581 105.333 212.581C100.537 212.581 96.8754 214.63 93.5014 218.232C89.9799 221.99 87.0742 227.11 83.8523 232.84L83.7134 233.087C80.6584 238.521 77.2873 244.517 72.9819 249.11C68.4637 253.93 62.6557 257.493 54.8248 257.493C46.994 257.493 41.1859 253.93 36.6677 249.11C32.3623 244.517 28.9913 238.521 25.9362 233.087L25.7973 232.84C22.5754 227.11 19.6697 221.99 16.1483 218.232C12.7742 214.63 9.11214 212.581 4.31691 212.581C1.93275 212.581 0 210.66 0 208.29Z" fill="#FE724D"/>
<path fill-rule="evenodd" clip-rule="evenodd" d="M289.269 212.384C293.794 207.564 299.612 204 307.456 204C315.302 204 321.122 207.563 325.649 212.384C329.963 216.977 333.341 222.973 336.402 228.407L336.542 228.654C339.77 234.384 342.682 239.503 346.21 243.262C349.591 246.863 353.26 248.913 358.065 248.913C362.875 248.913 366.547 246.862 369.929 243.261C373.459 239.503 376.371 234.383 379.599 228.654L379.743 228.399C382.803 222.967 386.178 216.975 390.488 212.384C395.014 207.564 400.831 204 408.675 204C411.064 204 413.001 205.921 413.001 208.29C413.001 210.66 411.064 212.581 408.675 212.581C403.87 212.581 400.201 214.63 396.82 218.232C393.291 221.99 390.38 227.11 387.151 232.84L387.012 233.087C383.951 238.521 380.573 244.517 376.259 249.11C371.732 253.93 365.912 257.493 358.065 257.493C350.221 257.493 344.404 253.929 339.879 249.109C335.569 244.518 332.193 238.526 329.133 233.094L328.99 232.84C325.762 227.11 322.849 221.991 319.319 218.232C315.937 214.631 312.265 212.581 307.456 212.581C302.651 212.581 298.981 214.63 295.601 218.232C292.072 221.99 289.16 227.11 285.932 232.84C285.886 232.922 285.839 233.004 285.793 233.087C282.732 238.521 279.354 244.517 275.04 249.11C270.512 253.93 264.693 257.493 256.846 257.493C254.457 257.493 252.521 255.572 252.521 253.203C252.521 250.834 254.457 248.913 256.846 248.913C261.655 248.913 265.327 246.862 268.71 243.261C272.24 239.503 275.152 234.383 278.38 228.654C278.428 228.569 278.476 228.484 278.524 228.399C281.583 222.967 284.959 216.975 289.269 212.384Z" fill="#FE724D"/>
</svg>
