<svg width="412" height="257" viewBox="0 0 412 257" fill="none" xmlns="http://www.w3.org/2000/svg">
<path fill-rule="evenodd" clip-rule="evenodd" d="M81.1192 53.6423C80.793 38.6137 68.7028 26.7129 54.0608 26.7129C39.4189 26.7129 27.3286 38.6137 27.0025 53.6423H19.001C19.3291 34.2946 34.9003 18.7129 54.0608 18.7129C73.2214 18.7129 88.7926 34.2946 89.1207 53.6423H81.1192Z" fill="#5395FF"/>
<path fill-rule="evenodd" clip-rule="evenodd" d="M182.119 53.6423C181.793 38.6137 169.703 26.7129 155.061 26.7129C140.419 26.7129 128.329 38.6137 128.002 53.6423H120.001C120.329 34.2946 135.9 18.7129 155.061 18.7129C174.221 18.7129 189.793 34.2946 190.121 53.6423H182.119Z" fill="#5395FF"/>
<path fill-rule="evenodd" clip-rule="evenodd" d="M284.119 53.6423C283.793 38.6137 271.703 26.7129 257.061 26.7129C242.419 26.7129 230.329 38.6137 230.002 53.6423H222.001C222.329 34.2946 237.9 18.7129 257.061 18.7129C276.221 18.7129 291.793 34.2946 292.121 53.6423H284.119Z" fill="#5395FF"/>
<path fill-rule="evenodd" clip-rule="evenodd" d="M385.119 53.6423C384.793 38.6137 372.703 26.7129 358.061 26.7129C343.419 26.7129 331.329 38.6137 331.002 53.6423H323.001C323.329 34.2946 338.9 18.7129 358.061 18.7129C377.221 18.7129 392.793 34.2946 393.121 53.6423H385.119Z" fill="#5395FF"/>
<path fill-rule="evenodd" clip-rule="evenodd" d="M99.6954 53.6408C99.3642 28.3207 78.9084 8 53.8495 8C28.7906 8 8.33476 28.3207 8.00352 53.6408H0.00292969C0.334902 23.9586 24.3157 0 53.8495 0C83.3833 0 107.364 23.9586 107.696 53.6408H99.6954Z" fill="#5395FF"/>
<path fill-rule="evenodd" clip-rule="evenodd" d="M200.693 53.6408C200.361 28.3207 179.905 8 154.847 8C129.788 8 109.332 28.3207 109.001 53.6408H101C101.332 23.9586 125.313 0 154.847 0C184.38 0 208.361 23.9586 208.693 53.6408H200.693Z" fill="#5395FF"/>
<path fill-rule="evenodd" clip-rule="evenodd" d="M302.693 53.6408C302.361 28.3207 281.905 8 256.847 8C231.788 8 211.332 28.3207 211.001 53.6408H203C203.332 23.9586 227.313 0 256.847 0C286.38 0 310.361 23.9586 310.693 53.6408H302.693Z" fill="#5395FF"/>
<path fill-rule="evenodd" clip-rule="evenodd" d="M403.693 53.6408C403.361 28.3207 382.905 8 357.847 8C332.788 8 312.332 28.3207 312.001 53.6408H304C304.332 23.9586 328.313 0 357.847 0C387.38 0 411.361 23.9586 411.693 53.6408H403.693Z" fill="#5395FF"/>
<path d="M61.7333 45.6887C61.7333 50.0165 58.2113 53.5249 53.8667 53.5249C49.522 53.5249 46 50.0165 46 45.6887C46 41.3609 49.522 37.8525 53.8667 37.8525C58.2113 37.8525 61.7333 41.3609 61.7333 45.6887Z" fill="#5395FF"/>
<path d="M162.733 45.6887C162.733 50.0165 159.211 53.5249 154.867 53.5249C150.522 53.5249 147 50.0165 147 45.6887C147 41.3609 150.522 37.8525 154.867 37.8525C159.211 37.8525 162.733 41.3609 162.733 45.6887Z" fill="#5395FF"/>
<path d="M264.733 45.6887C264.733 50.0165 261.211 53.5249 256.867 53.5249C252.522 53.5249 249 50.0165 249 45.6887C249 41.3609 252.522 37.8525 256.867 37.8525C261.211 37.8525 264.733 41.3609 264.733 45.6887Z" fill="#5395FF"/>
<path d="M365.733 45.6887C365.733 50.0165 362.211 53.5249 357.867 53.5249C353.522 53.5249 350 50.0165 350 45.6887C350 41.3609 353.522 37.8525 357.867 37.8525C362.211 37.8525 365.733 41.3609 365.733 45.6887Z" fill="#5395FF"/>
<path fill-rule="evenodd" clip-rule="evenodd" d="M81.1192 121.379C80.793 106.35 68.7028 94.4492 54.0608 94.4492C39.4189 94.4492 27.3286 106.35 27.0025 121.379H19.001C19.3291 102.031 34.9003 86.4492 54.0608 86.4492C73.2214 86.4492 88.7926 102.031 89.1207 121.379H81.1192Z" fill="#5395FF"/>
<path fill-rule="evenodd" clip-rule="evenodd" d="M182.119 121.379C181.793 106.35 169.703 94.4492 155.061 94.4492C140.419 94.4492 128.329 106.35 128.002 121.379H120.001C120.329 102.031 135.9 86.4492 155.061 86.4492C174.221 86.4492 189.793 102.031 190.121 121.379H182.119Z" fill="#5395FF"/>
<path fill-rule="evenodd" clip-rule="evenodd" d="M284.119 121.379C283.793 106.35 271.703 94.4492 257.061 94.4492C242.419 94.4492 230.329 106.35 230.002 121.379H222.001C222.329 102.031 237.9 86.4492 257.061 86.4492C276.221 86.4492 291.793 102.031 292.121 121.379H284.119Z" fill="#5395FF"/>
<path fill-rule="evenodd" clip-rule="evenodd" d="M385.119 121.379C384.793 106.35 372.703 94.4492 358.061 94.4492C343.419 94.4492 331.329 106.35 331.002 121.379H323.001C323.329 102.031 338.9 86.4492 358.061 86.4492C377.221 86.4492 392.793 102.031 393.121 121.379H385.119Z" fill="#5395FF"/>
<path fill-rule="evenodd" clip-rule="evenodd" d="M99.6954 121.377C99.3642 96.0571 78.9084 75.7363 53.8495 75.7363C28.7906 75.7363 8.33477 96.0571 8.00352 121.377H0.00292969C0.334904 91.695 24.3157 67.7363 53.8495 67.7363C83.3833 67.7363 107.364 91.695 107.696 121.377H99.6954Z" fill="#5395FF"/>
<path fill-rule="evenodd" clip-rule="evenodd" d="M200.693 121.377C200.361 96.0571 179.905 75.7363 154.847 75.7363C129.788 75.7363 109.332 96.0571 109.001 121.377H101C101.332 91.695 125.313 67.7363 154.847 67.7363C184.38 67.7363 208.361 91.695 208.693 121.377H200.693Z" fill="#5395FF"/>
<path fill-rule="evenodd" clip-rule="evenodd" d="M302.693 121.377C302.361 96.0571 281.905 75.7363 256.847 75.7363C231.788 75.7363 211.332 96.0571 211.001 121.377H203C203.332 91.695 227.313 67.7363 256.847 67.7363C286.38 67.7363 310.361 91.695 310.693 121.377H302.693Z" fill="#5395FF"/>
<path fill-rule="evenodd" clip-rule="evenodd" d="M403.693 121.377C403.361 96.0571 382.905 75.7363 357.847 75.7363C332.788 75.7363 312.332 96.0571 312.001 121.377H304C304.332 91.695 328.313 67.7363 357.847 67.7363C387.38 67.7363 411.361 91.695 411.693 121.377H403.693Z" fill="#5395FF"/>
<path d="M61.7333 113.425C61.7333 117.753 58.2113 121.261 53.8667 121.261C49.522 121.261 46 117.753 46 113.425C46 109.097 49.522 105.589 53.8667 105.589C58.2113 105.589 61.7333 109.097 61.7333 113.425Z" fill="#5395FF"/>
<path d="M162.733 113.425C162.733 117.753 159.211 121.261 154.867 121.261C150.522 121.261 147 117.753 147 113.425C147 109.097 150.522 105.589 154.867 105.589C159.211 105.589 162.733 109.097 162.733 113.425Z" fill="#5395FF"/>
<path d="M264.733 113.425C264.733 117.753 261.211 121.261 256.867 121.261C252.522 121.261 249 117.753 249 113.425C249 109.097 252.522 105.589 256.867 105.589C261.211 105.589 264.733 109.097 264.733 113.425Z" fill="#5395FF"/>
<path d="M365.733 113.425C365.733 117.753 362.211 121.261 357.867 121.261C353.522 121.261 350 117.753 350 113.425C350 109.097 353.522 105.589 357.867 105.589C362.211 105.589 365.733 109.097 365.733 113.425Z" fill="#5395FF"/>
<path fill-rule="evenodd" clip-rule="evenodd" d="M81.1192 256.851C80.793 241.823 68.7028 229.922 54.0608 229.922C39.4189 229.922 27.3286 241.823 27.0025 256.851H19.001C19.3291 237.504 34.9003 221.922 54.0608 221.922C73.2214 221.922 88.7926 237.504 89.1207 256.851H81.1192Z" fill="#5395FF"/>
<path fill-rule="evenodd" clip-rule="evenodd" d="M182.119 256.851C181.793 241.823 169.703 229.922 155.061 229.922C140.419 229.922 128.329 241.823 128.002 256.851H120.001C120.329 237.504 135.9 221.922 155.061 221.922C174.221 221.922 189.793 237.504 190.121 256.851H182.119Z" fill="#5395FF"/>
<path fill-rule="evenodd" clip-rule="evenodd" d="M284.119 256.851C283.793 241.823 271.703 229.922 257.061 229.922C242.419 229.922 230.329 241.823 230.002 256.851H222.001C222.329 237.504 237.9 221.922 257.061 221.922C276.221 221.922 291.793 237.504 292.121 256.851H284.119Z" fill="#5395FF"/>
<path fill-rule="evenodd" clip-rule="evenodd" d="M385.119 256.851C384.793 241.823 372.703 229.922 358.061 229.922C343.419 229.922 331.329 241.823 331.002 256.851H323.001C323.329 237.504 338.9 221.922 358.061 221.922C377.221 221.922 392.793 237.504 393.121 256.851H385.119Z" fill="#5395FF"/>
<path fill-rule="evenodd" clip-rule="evenodd" d="M99.6954 256.85C99.3642 231.53 78.9084 211.209 53.8495 211.209C28.7906 211.209 8.33476 231.53 8.00352 256.85H0.00292969C0.334902 227.168 24.3157 203.209 53.8495 203.209C83.3833 203.209 107.364 227.168 107.696 256.85H99.6954Z" fill="#5395FF"/>
<path fill-rule="evenodd" clip-rule="evenodd" d="M200.693 256.85C200.361 231.53 179.905 211.209 154.847 211.209C129.788 211.209 109.332 231.53 109.001 256.85H101C101.332 227.168 125.313 203.209 154.847 203.209C184.38 203.209 208.361 227.168 208.693 256.85H200.693Z" fill="#5395FF"/>
<path fill-rule="evenodd" clip-rule="evenodd" d="M302.693 256.85C302.361 231.53 281.905 211.209 256.847 211.209C231.788 211.209 211.332 231.53 211.001 256.85H203C203.332 227.168 227.313 203.209 256.847 203.209C286.38 203.209 310.361 227.168 310.693 256.85H302.693Z" fill="#5395FF"/>
<path fill-rule="evenodd" clip-rule="evenodd" d="M403.693 256.85C403.361 231.53 382.905 211.209 357.847 211.209C332.788 211.209 312.332 231.53 312.001 256.85H304C304.332 227.168 328.313 203.209 357.847 203.209C387.38 203.209 411.361 227.168 411.693 256.85H403.693Z" fill="#5395FF"/>
<path d="M61.7333 248.898C61.7333 253.225 58.2113 256.734 53.8667 256.734C49.522 256.734 46 253.225 46 248.898C46 244.57 49.522 241.062 53.8667 241.062C58.2113 241.062 61.7333 244.57 61.7333 248.898Z" fill="#5395FF"/>
<path d="M162.733 248.898C162.733 253.225 159.211 256.734 154.867 256.734C150.522 256.734 147 253.225 147 248.898C147 244.57 150.522 241.062 154.867 241.062C159.211 241.062 162.733 244.57 162.733 248.898Z" fill="#5395FF"/>
<path d="M264.733 248.898C264.733 253.225 261.211 256.734 256.867 256.734C252.522 256.734 249 253.225 249 248.898C249 244.57 252.522 241.062 256.867 241.062C261.211 241.062 264.733 244.57 264.733 248.898Z" fill="#5395FF"/>
<path d="M365.733 248.898C365.733 253.225 362.211 256.734 357.867 256.734C353.522 256.734 350 253.225 350 248.898C350 244.57 353.522 241.062 357.867 241.062C362.211 241.062 365.733 244.57 365.733 248.898Z" fill="#5395FF"/>
<path fill-rule="evenodd" clip-rule="evenodd" d="M81.1192 189.115C80.793 174.086 68.7028 162.186 54.0608 162.186C39.4189 162.186 27.3286 174.086 27.0025 189.115H19.001C19.3291 169.767 34.9003 154.186 54.0608 154.186C73.2214 154.186 88.7926 169.767 89.1207 189.115H81.1192Z" fill="#5395FF"/>
<path fill-rule="evenodd" clip-rule="evenodd" d="M182.119 189.115C181.793 174.086 169.703 162.186 155.061 162.186C140.419 162.186 128.329 174.086 128.002 189.115H120.001C120.329 169.767 135.9 154.186 155.061 154.186C174.221 154.186 189.793 169.767 190.121 189.115H182.119Z" fill="#5395FF"/>
<path fill-rule="evenodd" clip-rule="evenodd" d="M284.119 189.115C283.793 174.086 271.703 162.186 257.061 162.186C242.419 162.186 230.329 174.086 230.002 189.115H222.001C222.329 169.767 237.9 154.186 257.061 154.186C276.221 154.186 291.793 169.767 292.121 189.115H284.119Z" fill="#5395FF"/>
<path fill-rule="evenodd" clip-rule="evenodd" d="M385.119 189.115C384.793 174.086 372.703 162.186 358.061 162.186C343.419 162.186 331.329 174.086 331.002 189.115H323.001C323.329 169.767 338.9 154.186 358.061 154.186C377.221 154.186 392.793 169.767 393.121 189.115H385.119Z" fill="#5395FF"/>
<path fill-rule="evenodd" clip-rule="evenodd" d="M99.6954 189.113C99.3642 163.793 78.9084 143.473 53.8495 143.473C28.7906 143.473 8.33476 163.793 8.00352 189.113H0.00292969C0.334902 159.431 24.3157 135.473 53.8495 135.473C83.3833 135.473 107.364 159.431 107.696 189.113H99.6954Z" fill="#5395FF"/>
<path fill-rule="evenodd" clip-rule="evenodd" d="M200.693 189.113C200.361 163.793 179.905 143.473 154.847 143.473C129.788 143.473 109.332 163.793 109.001 189.113H101C101.332 159.431 125.313 135.473 154.847 135.473C184.38 135.473 208.361 159.431 208.693 189.113H200.693Z" fill="#5395FF"/>
<path fill-rule="evenodd" clip-rule="evenodd" d="M302.693 189.113C302.361 163.793 281.905 143.473 256.847 143.473C231.788 143.473 211.332 163.793 211.001 189.113H203C203.332 159.431 227.313 135.473 256.847 135.473C286.38 135.473 310.361 159.431 310.693 189.113H302.693Z" fill="#5395FF"/>
<path fill-rule="evenodd" clip-rule="evenodd" d="M403.693 189.113C403.361 163.793 382.905 143.473 357.847 143.473C332.788 143.473 312.332 163.793 312.001 189.113H304C304.332 159.431 328.313 135.473 357.847 135.473C387.38 135.473 411.361 159.431 411.693 189.113H403.693Z" fill="#5395FF"/>
<path d="M61.7333 181.161C61.7333 185.489 58.2113 188.998 53.8667 188.998C49.522 188.998 46 185.489 46 181.161C46 176.834 49.522 173.325 53.8667 173.325C58.2113 173.325 61.7333 176.834 61.7333 181.161Z" fill="#5395FF"/>
<path d="M162.733 181.161C162.733 185.489 159.211 188.998 154.867 188.998C150.522 188.998 147 185.489 147 181.161C147 176.834 150.522 173.325 154.867 173.325C159.211 173.325 162.733 176.834 162.733 181.161Z" fill="#5395FF"/>
<path d="M264.733 181.161C264.733 185.489 261.211 188.998 256.867 188.998C252.522 188.998 249 185.489 249 181.161C249 176.834 252.522 173.325 256.867 173.325C261.211 173.325 264.733 176.834 264.733 181.161Z" fill="#5395FF"/>
<path d="M365.733 181.161C365.733 185.489 362.211 188.998 357.867 188.998C353.522 188.998 350 185.489 350 181.161C350 176.834 353.522 173.325 357.867 173.325C362.211 173.325 365.733 176.834 365.733 181.161Z" fill="#5395FF"/>
</svg>
