<svg width="141" height="142" viewBox="0 0 141 142" fill="none" xmlns="http://www.w3.org/2000/svg">
<path fill-rule="evenodd" clip-rule="evenodd" d="M103.217 70.3741C103.217 51.8584 88.0847 36.8201 69.3838 36.8201V34.2363C89.4744 34.2363 105.788 50.401 105.788 70.3741C105.788 90.3473 89.4744 106.512 69.3838 106.512V103.928C88.0847 103.928 103.217 88.8899 103.217 70.3741Z" fill="#131313" stroke="#131313" stroke-width="0.330729" stroke-miterlimit="10"/>
<path fill-rule="evenodd" clip-rule="evenodd" d="M69.208 139.924V2.40723H71.846V139.924H69.208Z" fill="#131313" stroke="#131313" stroke-width="0.330729" stroke-miterlimit="10"/>
<path fill-rule="evenodd" clip-rule="evenodd" d="M11.5215 34.2363H69.3814V36.8741H11.5215V34.2363Z" fill="#131313" stroke="#131313" stroke-width="0.330729" stroke-miterlimit="10"/>
<path fill-rule="evenodd" clip-rule="evenodd" d="M1.6748 69.9346H70.6143V72.3965H1.6748V69.9346Z" fill="#131313" stroke="#131313" stroke-width="0.330729" stroke-miterlimit="10"/>
<path fill-rule="evenodd" clip-rule="evenodd" d="M10.4668 103.874H71.3165V106.512H10.4668V103.874Z" fill="#131313" stroke="#131313" stroke-width="0.330729" stroke-miterlimit="10"/>
<path fill-rule="evenodd" clip-rule="evenodd" d="M70.526 3.57954C33.2452 3.57954 3.02309 33.7994 3.02309 71.0774C3.02309 108.355 33.2452 138.575 70.526 138.575C107.807 138.575 138.029 108.355 138.029 71.0774C138.029 33.7994 107.807 3.57954 70.526 3.57954ZM0.443359 71.0774C0.443359 32.3747 31.8204 1 70.526 1C109.232 1 140.609 32.3747 140.609 71.0774C140.609 109.78 109.232 141.155 70.526 141.155C31.8204 141.155 0.443359 109.78 0.443359 71.0774Z" fill="#131313" stroke="#131313" stroke-width="0.330729" stroke-miterlimit="10"/>
<path d="M12.4415 36.8418L21.5132 47.4323L5.03809 47.4105L12.4415 36.8418Z" fill="#131313"/>
<path d="M36.645 47.4326L45.7167 36.8421H27.5615L36.645 47.4326Z" fill="#131313"/>
<path d="M60.8549 36.8418L69.9267 47.4323H51.7715L60.8549 36.8418Z" fill="#131313"/>
<path d="M12.4415 72.6836L21.5132 83.2741L5.03809 83.2523L12.4415 72.6836Z" fill="#131313"/>
<path d="M36.645 83.2744L45.7167 72.514H27.5615L36.645 83.2744Z" fill="#131313"/>
<path d="M60.8549 72.6836L69.9267 83.2741H51.7715L60.8549 72.6836Z" fill="#131313"/>
<path d="M11.9307 104.849L21.5132 93.8206L5.03809 93.8424L11.9307 104.849Z" fill="#131313"/>
<path d="M36.645 93.5391L45.7167 104.13H27.5615L36.645 93.5391Z" fill="#131313"/>
<path d="M60.8549 104.13L69.9267 93.5394H51.7715L60.8549 104.13Z" fill="#131313"/>
<path d="M11.9307 69.4668L21.5132 58.2606L5.03809 58.2825L11.9307 69.4668Z" fill="#131313"/>
<path d="M36.645 58.8984L45.7167 69.9266H27.5615L36.645 58.8984Z" fill="#131313"/>
<path d="M61.0981 69.4668L69.9267 57.9792H51.7715L61.0981 69.4668Z" fill="#131313"/>
<path d="M53.6699 16.2979L60.3873 30.8428L67.0959 16.2979H53.6699Z" stroke="#131313" stroke-width="3.02587"/>
<path d="M29.87 32.9403L36.2136 18.4731L42.8864 32.9403H29.87Z" stroke="#131313" stroke-width="3.02587"/>
<path d="M54.567 124.842L61.1296 110.297L67.993 124.842H54.567Z" stroke="#131313" stroke-width="3.02587"/>
<path d="M30.3563 107.74L37.041 122.552L43.2065 107.74L30.3563 107.74Z" stroke="#131313" stroke-width="3.02587"/>
</svg>
