<svg width="141" height="141" viewBox="0 0 141 141" fill="none" xmlns="http://www.w3.org/2000/svg">
<path fill-rule="evenodd" clip-rule="evenodd" d="M103 69.3741C103 50.8584 87.8679 35.8201 69.167 35.8201V33.2363C89.2576 33.2363 105.571 49.401 105.571 69.3741C105.571 89.3473 89.2576 105.512 69.167 105.512V102.928C87.8679 102.928 103 87.8899 103 69.3741Z" fill="#131313"/>
<path fill-rule="evenodd" clip-rule="evenodd" d="M68.9912 138.924V1.40723H71.6292V138.924H68.9912Z" fill="#131313"/>
<path fill-rule="evenodd" clip-rule="evenodd" d="M11.3047 33.2363H69.1646V35.8741H11.3047V33.2363Z" fill="#131313"/>
<path fill-rule="evenodd" clip-rule="evenodd" d="M1.45801 68.9346H70.3975V71.3965H1.45801V68.9346Z" fill="#131313"/>
<path fill-rule="evenodd" clip-rule="evenodd" d="M10.25 102.874H71.0997V105.512H10.25V102.874Z" fill="#131313"/>
<path fill-rule="evenodd" clip-rule="evenodd" d="M70.3092 2.57954C33.0284 2.57954 2.80629 32.7994 2.80629 70.0774C2.80629 107.355 33.0284 137.575 70.3092 137.575C107.59 137.575 137.812 107.355 137.812 70.0774C137.812 32.7994 107.59 2.57954 70.3092 2.57954ZM0.226562 70.0774C0.226562 31.3747 31.6036 0 70.3092 0C109.015 0 140.392 31.3747 140.392 70.0774C140.392 108.78 109.015 140.155 70.3092 140.155C31.6036 140.155 0.226562 108.78 0.226562 70.0774Z" fill="#131313"/>
<path fill-rule="evenodd" clip-rule="evenodd" d="M70.3092 2.57954C33.0284 2.57954 2.80629 32.7994 2.80629 70.0774C2.80629 107.355 33.0284 137.575 70.3092 137.575C107.59 137.575 137.812 107.355 137.812 70.0774C137.812 32.7994 107.59 2.57954 70.3092 2.57954ZM0.226562 70.0774C0.226562 31.3747 31.6036 0 70.3092 0C109.015 0 140.392 31.3747 140.392 70.0774C140.392 108.78 109.015 140.155 70.3092 140.155C31.6036 140.155 0.226562 108.78 0.226562 70.0774Z" fill="#131313"/>
<path d="M58.1242 69.8453C58.1242 65.7848 54.8325 62.4932 50.772 62.4932C46.7116 62.4932 43.4199 65.7848 43.4199 69.8453" stroke="#131313" stroke-width="2.45071"/>
<path d="M63.6387 69.8447C63.6387 62.7389 57.8783 56.9785 50.7725 56.9785C43.6667 56.9785 37.9062 62.7389 37.9062 69.8447" stroke="#131313" stroke-width="2.45071"/>
<path d="M69.1532 69.8452C69.1532 59.694 60.9241 51.4648 50.7729 51.4648C40.6217 51.4648 32.3926 59.694 32.3926 69.8452" stroke="#131313" stroke-width="2.45071"/>
<path d="M21.3644 69.8453C21.3644 65.7848 18.0727 62.4932 14.0123 62.4932C9.95181 62.4932 6.66016 65.7848 6.66016 69.8453" stroke="#131313" stroke-width="2.45071"/>
<path d="M26.8764 69.8447C26.8764 62.7389 21.116 56.9785 14.0102 56.9785C8.18173 56.9785 3.25847 60.854 1.67676 66.1687" stroke="#131313" stroke-width="2.45071"/>
<path d="M32.3919 69.8452C32.3919 59.694 24.1627 51.4648 14.0116 51.4648C9.87379 51.4648 6.05534 52.8321 2.9834 55.1396" stroke="#131313" stroke-width="2.45071"/>
<path d="M43.8799 104.961C44.9205 102.165 47.6139 100.173 50.7725 100.173C53.9311 100.173 56.6245 102.165 57.6651 104.961" stroke="#131313" stroke-width="2.45071"/>
<path d="M63.3405 104.767C62.0783 98.9864 56.9298 94.6582 50.7703 94.6582C44.6109 94.6582 39.4623 98.9864 38.2002 104.767" stroke="#131313" stroke-width="2.45071"/>
<path d="M68.9491 104.768C67.6189 95.9245 59.9884 89.1445 50.7742 89.1445C41.4012 89.1445 33.6667 96.1605 32.5361 105.227" stroke="#131313" stroke-width="2.45071"/>
<path d="M9.14746 102.011C10.4435 100.867 12.146 100.173 14.0106 100.173C17.096 100.173 19.7376 102.074 20.8283 104.768" stroke="#131313" stroke-width="2.45071"/>
<path d="M6.6709 96.9557C8.75257 95.5073 11.2824 94.6582 14.0107 94.6582C20.1701 94.6582 25.3187 98.9864 26.5808 104.767" stroke="#131313" stroke-width="2.45071"/>
<path d="M32.2306 105.085C31.0373 96.0873 23.3348 89.1445 14.0107 89.1445C10.7798 89.1445 7.74362 89.9782 5.10547 91.4421" stroke="#131313" stroke-width="2.45071"/>
<path d="M43.8799 35.1896C44.9205 37.9857 47.6139 39.9775 50.7725 39.9775C53.9311 39.9775 56.6245 37.9857 57.6651 35.1896" stroke="#131313" stroke-width="2.45071"/>
<path d="M63.3405 35.382C62.0783 41.163 56.9298 45.4912 50.7703 45.4912C44.6109 45.4912 39.4623 41.163 38.2002 35.382" stroke="#131313" stroke-width="2.45071"/>
<path d="M68.9491 35.3816C67.6189 44.2249 59.9884 51.0049 50.7742 51.0049C41.4012 51.0049 33.6667 43.9889 32.5361 34.9221" stroke="#131313" stroke-width="2.45071"/>
<path d="M58.4393 2.10461C57.3987 4.90074 54.7053 6.89258 51.5467 6.89258C49.6821 6.89258 47.9797 6.19847 46.6836 5.05455" stroke="#131313" stroke-width="2.45071"/>
<path d="M64.116 2.29708C62.8539 8.07802 57.7053 12.4062 51.5459 12.4062C47.5287 12.4062 43.9415 10.5652 41.582 7.68074" stroke="#131313" stroke-width="2.45071"/>
<path d="M69.7238 2.29764C68.3936 11.1409 60.763 17.9209 51.5489 17.9209C45.343 17.9209 39.8554 14.8453 36.5273 10.1351" stroke="#131313" stroke-width="2.45071"/>
<path d="M9.14746 38.1395C10.4435 39.2834 12.146 39.9775 14.0106 39.9775C17.096 39.9775 19.7376 38.0769 20.8283 35.3825" stroke="#131313" stroke-width="2.45071"/>
<path d="M6.6709 43.1937C8.75257 44.6421 11.2824 45.4912 14.0107 45.4912C20.1701 45.4912 25.3187 41.163 26.5808 35.382" stroke="#131313" stroke-width="2.45071"/>
<path d="M32.2306 35.0642C31.0373 44.0621 23.3348 51.0049 14.0107 51.0049C10.7798 51.0049 7.74362 50.1713 5.10547 48.7073" stroke="#131313" stroke-width="2.45071"/>
<path d="M15.8505 70.7641C15.8505 74.8246 12.5588 78.1162 8.49836 78.1162C5.41288 78.1162 2.77133 76.2155 1.68066 73.5211" stroke="#131313" stroke-width="2.45071"/>
<path d="M21.3642 70.7646C21.3642 77.8705 15.6038 83.6309 8.49801 83.6309C6.34181 83.6309 4.3095 83.1005 2.52441 82.163" stroke="#131313" stroke-width="2.45071"/>
<path d="M26.8782 70.7642C26.8782 80.9154 18.649 89.1445 8.49787 89.1445C7.07585 89.1445 5.69155 88.983 4.3623 88.6774" stroke="#131313" stroke-width="2.45071"/>
<path d="M52.6105 70.7641C52.6105 74.8246 49.3188 78.1162 45.2584 78.1162C41.1979 78.1162 37.9062 74.8246 37.9062 70.7641" stroke="#131313" stroke-width="2.45071"/>
<path d="M58.125 70.7646C58.125 77.8705 52.3646 83.6309 45.2588 83.6309C38.153 83.6309 32.3926 77.8705 32.3926 70.7646" stroke="#131313" stroke-width="2.45071"/>
<path d="M63.6385 70.7642C63.6385 80.9154 55.4094 89.1445 45.2582 89.1445C35.1071 89.1445 26.8779 80.9154 26.8779 70.7642" stroke="#131313" stroke-width="2.45071"/>
<path d="M14.9308 103.389C14.9308 105.347 14.3406 105.748 13.0928 107.065" stroke="#131313" stroke-width="2.45071"/>
<path d="M16.3096 111.66C18.0585 109.946 19.9621 106.995 20.8515 104.123" stroke="#131313" stroke-width="2.45071"/>
<path d="M19.9854 115.796C22.8056 113.116 25.5255 108.667 26.4993 104.308" stroke="#131313" stroke-width="2.45071"/>
<path d="M38.5449 104.097C39.694 106.659 42.2669 108.443 45.2566 108.443C48.2464 108.443 50.8193 106.659 51.9683 104.097" stroke="#131313" stroke-width="2.45071"/>
<path d="M57.6639 104.512C56.1661 109.958 51.1789 113.958 45.2572 113.958C39.4288 113.958 34.5055 110.082 32.9238 104.768" stroke="#131313" stroke-width="2.45071"/>
<path d="M63.3566 104.308C61.8356 112.925 54.3106 119.472 45.2568 119.472C36.3645 119.472 28.9472 113.157 27.2441 104.767" stroke="#131313" stroke-width="2.45071"/>
<path d="M63.6387 104.767C64.5413 109.214 67.0493 113.078 70.5313 115.728" stroke="#131313" stroke-width="2.45071"/>
<path d="M63.6387 69.8446C64.5413 74.2913 67.0493 78.1551 70.5313 80.8047" stroke="#131313" stroke-width="2.45071"/>
<path d="M63.6387 35.7736C64.5413 31.3269 67.0493 27.4631 70.5313 24.8135" stroke="#131313" stroke-width="2.45071"/>
<path d="M43.4373 133.918C45.2602 131.783 48.2311 130.793 51.1002 131.634C53.9694 132.474 55.9369 134.91 56.3194 137.692" stroke="#131313" stroke-width="2.45071"/>
<path d="M61.7611 138.504C61.6934 132.856 57.8838 127.722 52.1557 126.22C46.5179 124.742 40.7727 127.242 37.8948 131.981" stroke="#131313" stroke-width="2.45071"/>
<path d="M67.8259 138.863C67.8693 130.112 61.6354 122.327 52.7273 120.709C44.9837 119.302 37.4929 122.969 33.6721 129.343" stroke="#131313" stroke-width="2.45071"/>
<path d="M14.9308 34.4632C14.9308 32.5053 14.3406 32.1047 13.0928 30.7871" stroke="#131313" stroke-width="2.45071"/>
<path d="M16.3096 26.1924C18.0585 27.9062 19.9621 30.8576 20.8515 33.73" stroke="#131313" stroke-width="2.45071"/>
<path d="M19.9854 22.0566C22.8056 24.7367 25.5255 29.1857 26.4993 33.5443" stroke="#131313" stroke-width="2.45071"/>
<path d="M38.5449 33.7548C39.694 31.1927 42.2669 29.4082 45.2566 29.4082C48.2464 29.4082 50.8193 31.1927 51.9683 33.7548" stroke="#131313" stroke-width="2.45071"/>
<path d="M57.665 34.0037C56.1672 28.558 51.1784 23.8945 45.2568 23.8945C39.4283 23.8945 34.4333 28.6891 32.8516 34.0037" stroke="#131313" stroke-width="2.45071"/>
<path d="M63.3565 33.5436C61.8355 24.9261 54.3106 18.3799 45.2567 18.3799C36.3645 18.3799 28.5809 25.154 26.8779 33.5436" stroke="#131313" stroke-width="2.45071"/>
<circle cx="29.635" cy="89.1448" r="3.67606" fill="#131313"/>
<circle cx="32.3919" cy="51.4651" r="3.67606" fill="#131313"/>
<circle cx="29.635" cy="18.3802" r="3.67606" fill="#131313"/>
<circle cx="28.7161" cy="119.472" r="3.67606" fill="#131313"/>
<circle cx="64.5579" cy="21.137" r="3.67606" fill="#131313"/>
<circle cx="66.3958" cy="51.4651" r="3.67606" fill="#131313"/>
<circle cx="64.5579" cy="85.4681" r="3.67606" fill="#131313"/>
<circle cx="64.5579" cy="117.634" r="3.67606" fill="#131313"/>
</svg>
