<svg width="141" height="142" viewBox="0 0 141 142" fill="none" xmlns="http://www.w3.org/2000/svg">
<path fill-rule="evenodd" clip-rule="evenodd" d="M103.227 70.3741C103.227 51.8584 88.0955 36.8201 69.3945 36.8201V34.2363C89.4851 34.2363 105.799 50.401 105.799 70.3741C105.799 90.3473 89.4851 106.512 69.3945 106.512V103.928C88.0955 103.928 103.227 88.8899 103.227 70.3741Z" fill="#131313" stroke="#131313" stroke-width="0.330729" stroke-miterlimit="10"/>
<path fill-rule="evenodd" clip-rule="evenodd" d="M69.2188 139.924V2.40723H71.8567V139.924H69.2188Z" fill="#131313" stroke="#131313" stroke-width="0.330729" stroke-miterlimit="10"/>
<path fill-rule="evenodd" clip-rule="evenodd" d="M11.5322 34.2363H69.3922V36.8741H11.5322V34.2363Z" fill="#131313" stroke="#131313" stroke-width="0.330729" stroke-miterlimit="10"/>
<path fill-rule="evenodd" clip-rule="evenodd" d="M1.68555 69.9346H70.6251V72.3965H1.68555V69.9346Z" fill="#131313" stroke="#131313" stroke-width="0.330729" stroke-miterlimit="10"/>
<path fill-rule="evenodd" clip-rule="evenodd" d="M10.4775 103.874H71.3272V106.512H10.4775V103.874Z" fill="#131313" stroke="#131313" stroke-width="0.330729" stroke-miterlimit="10"/>
<path fill-rule="evenodd" clip-rule="evenodd" d="M70.5368 3.57954C33.2559 3.57954 3.03383 33.7994 3.03383 71.0774C3.03383 108.355 33.2559 138.575 70.5368 138.575C107.818 138.575 138.04 108.355 138.04 71.0774C138.04 33.7994 107.818 3.57954 70.5368 3.57954ZM0.454102 71.0774C0.454102 32.3747 31.8312 1 70.5368 1C109.242 1 140.619 32.3747 140.619 71.0774C140.619 109.78 109.242 141.155 70.5368 141.155C31.8312 141.155 0.454102 109.78 0.454102 71.0774Z" fill="#131313" stroke="#131313" stroke-width="0.330729" stroke-miterlimit="10"/>
<path fill-rule="evenodd" clip-rule="evenodd" d="M70.5368 3.57954C33.2559 3.57954 3.03383 33.7994 3.03383 71.0774C3.03383 108.355 33.2559 138.575 70.5368 138.575C107.818 138.575 138.04 108.355 138.04 71.0774C138.04 33.7994 107.818 3.57954 70.5368 3.57954ZM0.454102 71.0774C0.454102 32.3747 31.8312 1 70.5368 1C109.242 1 140.619 32.3747 140.619 71.0774C140.619 109.78 109.242 141.155 70.5368 141.155C31.8312 141.155 0.454102 109.78 0.454102 71.0774Z" fill="#131313" stroke="#131313" stroke-width="0.330729" stroke-miterlimit="10"/>
<rect x="4.30648" y="53.5596" width="10.3969" height="10.3969" transform="rotate(-45 4.30648 53.5596)" stroke="#131313" stroke-width="2.84892"/>
<rect x="22.6873" y="53.5596" width="10.3969" height="10.3969" transform="rotate(-45 22.6873 53.5596)" stroke="#131313" stroke-width="2.84892"/>
<rect x="41.0672" y="53.5596" width="10.3969" height="10.3969" transform="rotate(-45 41.0672 53.5596)" stroke="#131313" stroke-width="2.84892"/>
<rect x="14.6484" y="48.7363" width="19.4206" height="2.75705" transform="rotate(-45 14.6484 48.7363)" fill="#131313"/>
<rect x="32.6201" y="48.7363" width="19.4206" height="2.75705" transform="rotate(-45 32.6201 48.7363)" fill="#131313"/>
<rect x="51" y="48.7363" width="19.4206" height="2.75705" transform="rotate(-45 51 48.7363)" fill="#131313"/>
<rect x="48.2432" y="69.873" width="19.4206" height="2.75705" transform="rotate(-45 48.2432 69.873)" fill="#131313"/>
<rect x="29.8623" y="69.873" width="19.4206" height="2.75705" transform="rotate(-45 29.8623 69.873)" fill="#131313"/>
<rect x="11.4824" y="69.873" width="19.4206" height="2.75705" transform="rotate(-45 11.4824 69.873)" fill="#131313"/>
<rect x="0.992188" y="63.8203" width="10.8605" height="2.75705" transform="rotate(-45 0.992188 63.8203)" fill="#131313"/>
<path fill-rule="evenodd" clip-rule="evenodd" d="M61.4626 53.5605L66.7998 48.2233L68.921 50.3445L69.3808 50.8043V46.7754L68.8143 46.2088L66.7998 44.1943L64.7853 46.2088L59.4481 51.546L57.4336 53.5605L59.4481 55.575L64.7853 60.9122L66.7998 62.9267L68.8143 60.9122L69.3808 60.3457V56.3167L68.921 56.7765L66.7998 58.8977L61.4626 53.5605Z" fill="#131313"/>
<rect x="-2.01449" width="10.3969" height="10.3969" transform="matrix(-0.707107 -0.707107 -0.707107 0.707107 53.52 87.058)" stroke="#131313" stroke-width="2.84892"/>
<rect x="-2.01449" width="10.3969" height="10.3969" transform="matrix(-0.707107 -0.707107 -0.707107 0.707107 35.1402 87.058)" stroke="#131313" stroke-width="2.84892"/>
<rect width="19.4206" height="2.75705" transform="matrix(-0.707107 -0.707107 -0.707107 0.707107 62.9834 83.6582)" fill="#131313"/>
<rect width="19.4206" height="2.75705" transform="matrix(-0.707107 -0.707107 -0.707107 0.707107 45.0117 83.6582)" fill="#131313"/>
<rect width="19.4206" height="2.75705" transform="matrix(-0.707107 -0.707107 -0.707107 0.707107 26.6318 83.6582)" fill="#131313"/>
<rect width="8.78976" height="2.75705" transform="matrix(-0.707107 -0.707107 -0.707107 0.707107 9.22754 83.6582)" fill="#131313"/>
<rect width="19.4206" height="2.75705" transform="matrix(-0.707107 -0.707107 -0.707107 0.707107 29.3887 104.796)" fill="#131313"/>
<rect width="19.4206" height="2.75705" transform="matrix(-0.707107 -0.707107 -0.707107 0.707107 47.7686 104.796)" fill="#131313"/>
<rect width="19.4206" height="2.75705" transform="matrix(-0.707107 -0.707107 -0.707107 0.707107 66.1494 104.796)" fill="#131313"/>
<path fill-rule="evenodd" clip-rule="evenodd" d="M16.1702 88.4824L10.833 83.1452L8.71185 85.2664L5.49585 88.4824L8.71185 91.6984L10.833 93.8196L16.1702 88.4824ZM20.1992 88.4824L18.1847 86.4679L12.8475 81.1307L10.833 79.1162L8.81855 81.1307L6.69736 83.2519L3.65694 86.2923V90.6725L6.69736 93.7129L8.81855 95.8341L10.833 97.8486L12.8475 95.8341L18.1847 90.4969L20.1992 88.4824Z" fill="#131313"/>
<rect x="-2.01449" width="10.3969" height="10.3969" transform="matrix(-0.707107 -0.707107 -0.707107 0.707107 53.9937 16.2933)" stroke="#131313" stroke-width="2.84892"/>
<rect width="6.6287" height="2.75705" transform="matrix(-0.707107 -0.707107 -0.707107 0.707107 45.4863 12.8945)" fill="#131313"/>
<rect width="13.7925" height="2.75705" transform="matrix(-0.707107 -0.707107 -0.707107 0.707107 63.9238 12.8945)" fill="#131313"/>
<rect width="13.5313" height="2.75705" transform="matrix(-0.707107 -0.707107 -0.707107 0.707107 29.8623 34.0312)" fill="#131313"/>
<rect width="19.4206" height="2.75705" transform="matrix(-0.707107 -0.707107 -0.707107 0.707107 48.2432 34.0312)" fill="#131313"/>
<rect width="19.4206" height="2.75705" transform="matrix(-0.707107 -0.707107 -0.707107 0.707107 66.623 34.0312)" fill="#131313"/>
<path fill-rule="evenodd" clip-rule="evenodd" d="M69.8257 86.9973L65.9736 83.1452L60.6364 88.4824L65.9736 93.8196L69.8257 89.9675V93.9965L67.9881 95.8341L65.9736 97.8486L63.9591 95.8341L58.6219 90.4969L56.6074 88.4824L58.6219 86.4679L63.9591 81.1307L65.9736 79.1162L67.9881 81.1307L69.8257 82.9683V86.9973Z" fill="#131313"/>
<rect x="40.1483" y="122.486" width="10.3969" height="10.3969" transform="rotate(-45 40.1483 122.486)" stroke="#131313" stroke-width="2.84892"/>
<rect x="16.4619" y="114.93" width="15.5568" height="2.75705" transform="rotate(-45 16.4619 114.93)" fill="#131313"/>
<rect x="31.7002" y="117.662" width="19.4206" height="2.75705" transform="rotate(-45 31.7002 117.662)" fill="#131313"/>
<rect x="50.0811" y="117.662" width="19.4206" height="2.75705" transform="rotate(-45 50.0811 117.662)" fill="#131313"/>
<rect x="49.6787" y="136.442" width="16.0878" height="2.75705" transform="rotate(-45 49.6787 136.442)" fill="#131313"/>
<rect x="36.6836" y="131.059" width="8.47414" height="2.75705" transform="rotate(-45 36.6836 131.059)" fill="#131313"/>
<path fill-rule="evenodd" clip-rule="evenodd" d="M60.5436 122.485L65.8808 117.148L68.002 119.269L70.2999 121.567V118.633H71.395L70.0165 117.255L67.8953 115.134L65.8808 113.119L63.8663 115.134L58.5291 120.471L56.5146 122.485L58.5291 124.5L63.8663 129.837L65.8808 131.851L67.8953 129.837L70.0165 127.716L71.7468 125.985H70.2999V123.403L68.002 125.701L65.8808 127.823L60.5436 122.485Z" fill="#131313"/>
<path fill-rule="evenodd" clip-rule="evenodd" d="M22.8096 20.2077L27.6722 25.0703L29.6866 27.0848L31.7011 25.0703L37.0383 19.7331L39.0528 17.7186L37.0383 15.7042L33.091 11.7568L30.8797 13.5745L35.0238 17.7186L29.6866 23.0558L25.0209 18.3901L22.8096 20.2077Z" fill="#131313"/>
<path fill-rule="evenodd" clip-rule="evenodd" d="M70.3 15.8808L66.7998 12.3805L61.4626 17.7177L66.7998 23.0549L70.3 19.5547V23.5836L68.8143 25.0694L66.7998 27.0839L64.7853 25.0694L59.4481 19.7322L57.4336 17.7177L59.4481 15.7032L64.7853 10.3661L66.7998 8.35156L68.8143 10.3661L70.3 11.8518V15.8808Z" fill="#131313"/>
<path fill-rule="evenodd" clip-rule="evenodd" d="M24.1888 122.079L29.1201 117.148L34.4573 122.485L29.9776 126.965L32.1625 128.809L36.4718 124.5L38.4863 122.485L36.4718 120.471L31.1346 115.134L29.1201 113.119L27.1056 115.134L22.0039 120.235L24.1888 122.079Z" fill="#131313"/>
</svg>
