<svg width="142" height="142" viewBox="0 0 142 142" fill="none" xmlns="http://www.w3.org/2000/svg">
<path fill-rule="evenodd" clip-rule="evenodd" d="M103.449 70.3741C103.449 51.8584 88.3171 36.8201 69.6162 36.8201V34.2363C89.7068 34.2363 106.021 50.401 106.021 70.3741C106.021 90.3473 89.7068 106.512 69.6162 106.512V103.928C88.3171 103.928 103.449 88.8899 103.449 70.3741Z" fill="#131313" stroke="#131313" stroke-width="0.330729" stroke-miterlimit="10"/>
<path fill-rule="evenodd" clip-rule="evenodd" d="M69.4404 139.924V2.40723H72.0784V139.924H69.4404Z" fill="#131313" stroke="#131313" stroke-width="0.330729" stroke-miterlimit="10"/>
<path fill-rule="evenodd" clip-rule="evenodd" d="M11.7539 34.2363H69.6138V36.8741H11.7539V34.2363Z" fill="#131313" stroke="#131313" stroke-width="0.330729" stroke-miterlimit="10"/>
<path fill-rule="evenodd" clip-rule="evenodd" d="M1.90723 69.9346H70.8468V72.3965H1.90723V69.9346Z" fill="#131313" stroke="#131313" stroke-width="0.330729" stroke-miterlimit="10"/>
<path fill-rule="evenodd" clip-rule="evenodd" d="M10.6992 103.874H71.5489V106.512H10.6992V103.874Z" fill="#131313" stroke="#131313" stroke-width="0.330729" stroke-miterlimit="10"/>
<path fill-rule="evenodd" clip-rule="evenodd" d="M70.7584 3.57954C33.4776 3.57954 3.25551 33.7994 3.25551 71.0774C3.25551 108.355 33.4776 138.575 70.7584 138.575C108.039 138.575 138.261 108.355 138.261 71.0774C138.261 33.7994 108.039 3.57954 70.7584 3.57954ZM0.675781 71.0774C0.675781 32.3747 32.0529 1 70.7584 1C109.464 1 140.841 32.3747 140.841 71.0774C140.841 109.78 109.464 141.155 70.7584 141.155C32.0529 141.155 0.675781 109.78 0.675781 71.0774Z" fill="#131313" stroke="#131313" stroke-width="0.330729" stroke-miterlimit="10"/>
<path fill-rule="evenodd" clip-rule="evenodd" d="M70.7584 3.57954C33.4776 3.57954 3.25551 33.7994 3.25551 71.0774C3.25551 108.355 33.4776 138.575 70.7584 138.575C108.039 138.575 138.261 108.355 138.261 71.0774C138.261 33.7994 108.039 3.57954 70.7584 3.57954ZM0.675781 71.0774C0.675781 32.3747 32.0529 1 70.7584 1C109.464 1 140.841 32.3747 140.841 71.0774C140.841 109.78 109.464 141.155 70.7584 141.155C32.0529 141.155 0.675781 109.78 0.675781 71.0774Z" fill="#131313" stroke="#131313" stroke-width="0.330729" stroke-miterlimit="10"/>
<path d="M32.6658 120.297H52.3153V121.566H32.6658V120.297Z" fill="#131313" stroke="#131313" stroke-width="1.48793"/>
<path d="M18.8807 87.2127H38.5301V88.4818H18.8807V87.2127Z" fill="#131313" stroke="#131313" stroke-width="1.48793"/>
<path d="M44.6131 87.2127H64.2625V88.4818H44.6131V87.2127Z" fill="#131313" stroke="#131313" stroke-width="1.48793"/>
<path d="M32.6658 52.2899H52.3153V53.559H32.6658V52.2899Z" fill="#131313" stroke="#131313" stroke-width="1.48793"/>
<path d="M45.5321 18.286H65.1815V19.5551H45.5321V18.286Z" fill="#131313" stroke="#131313" stroke-width="1.48793"/>
<path d="M26.2332 18.286H37.6115V19.5551H26.2332V18.286Z" fill="#131313" stroke="#131313" stroke-width="1.48793"/>
<path d="M5.09553 52.2899H24.745V53.559H5.09553V52.2899Z" fill="#131313" stroke="#131313" stroke-width="1.48793"/>
<path d="M58.3983 52.2899H69.7765V53.559H58.3983V52.2899Z" fill="#131313" stroke="#131313" stroke-width="1.48793"/>
<path d="M58.3983 120.297H69.7765V121.566H58.3983V120.297Z" fill="#131313" stroke="#131313" stroke-width="1.48793"/>
<path d="M4.17658 87.2127H11.8788V88.4818H4.17658V87.2127Z" fill="#131313" stroke="#131313" stroke-width="1.48793"/>
<circle cx="41.9003" cy="88.1747" r="2.97586" stroke="#131313" stroke-width="2.97586"/>
<circle cx="67.6327" cy="88.1747" r="2.97586" stroke="#131313" stroke-width="2.97586"/>
<circle cx="16.1679" cy="88.1747" r="2.97586" stroke="#131313" stroke-width="2.97586"/>
<path d="M50.9601 80.6922L59.8877 71.7646H42.0325L50.9601 80.6922Z" stroke="#131313" stroke-width="2.97586"/>
<path d="M25.2277 80.6922L34.1553 71.7646H16.3001L25.2277 80.6922Z" stroke="#131313" stroke-width="2.97586"/>
<path d="M50.9601 95.6584L59.8877 104.586H42.0325L50.9601 95.6584Z" stroke="#131313" stroke-width="2.97586"/>
<path d="M25.2277 95.6584L34.1553 104.586H16.3001L25.2277 95.6584Z" stroke="#131313" stroke-width="2.97586"/>
<circle cx="41.9003" cy="19.2489" r="2.97586" stroke="#131313" stroke-width="2.97586"/>
<circle cx="67.6327" cy="19.2489" r="2.97586" stroke="#131313" stroke-width="2.97586"/>
<path d="M50.9601 26.7316L59.8877 35.6592H42.0325L50.9601 26.7316Z" stroke="#131313" stroke-width="2.97586"/>
<path d="M25.2277 26.7316L34.1553 35.6592H16.3001L25.2277 26.7316Z" stroke="#131313" stroke-width="2.97586"/>
<circle cx="54.7665" cy="53.2529" r="2.97586" stroke="#131313" stroke-width="2.97586"/>
<circle cx="29.0341" cy="53.2529" r="2.97586" stroke="#131313" stroke-width="2.97586"/>
<path d="M38.0939 44.8504L47.0215 35.9229H29.1663L38.0939 44.8504Z" stroke="#131313" stroke-width="2.97586"/>
<path d="M38.0939 62.5734L47.0215 71.501H29.1663L38.0939 62.5734Z" stroke="#131313" stroke-width="2.97586"/>
<circle cx="54.7665" cy="121.26" r="2.97586" stroke="#131313" stroke-width="2.97586"/>
<circle cx="29.0341" cy="121.26" r="2.97586" stroke="#131313" stroke-width="2.97586"/>
<path d="M38.0939 113.776L47.0215 104.849H29.1663L38.0939 113.776Z" stroke="#131313" stroke-width="2.97586"/>
<path fill-rule="evenodd" clip-rule="evenodd" d="M43.499 6.4093L49.9079 12.8182L50.9601 13.8703L52.0122 12.8182L60.9398 3.89064L63.4798 1.35059H62.8022L62.87 1.62503L51.9323 4.32645H56.2955L50.9601 9.66184L46.874 5.57575L43.499 6.4093Z" fill="#131313"/>
<path fill-rule="evenodd" clip-rule="evenodd" d="M10.5273 37.1476H16.6942H20.2864L17.7463 34.6075L13.5978 30.459L12.2737 33.3434L13.102 34.1717H11.8934L10.5273 37.1476Z" fill="#131313"/>
<path fill-rule="evenodd" clip-rule="evenodd" d="M8.33203 42.9246L11.3096 45.9022L12.3617 46.9543L13.4139 45.9022L22.3414 36.9746L24.8815 34.4346H21.2893H11.4849L10.3798 37.4104H17.6971L12.3617 42.7458L9.47168 39.8558L8.33203 42.9246Z" fill="#131313"/>
<path fill-rule="evenodd" clip-rule="evenodd" d="M1.59473 80.6965L9.47485 72.8164L12.0149 70.2764H8.42272H1.59473V73.2522H4.83054L1.59473 76.488V80.6965Z" fill="#131313"/>
<path fill-rule="evenodd" clip-rule="evenodd" d="M21.2889 72.9885H24.8811L22.3411 70.4485L13.4135 61.5209L12.3614 60.4688L11.3092 61.5209L2.38166 70.4485L1.59473 71.2354V72.9885H3.43378H21.2889ZM12.3614 64.6773L17.6968 70.0126H7.02596L12.3614 64.6773Z" fill="#131313"/>
<path fill-rule="evenodd" clip-rule="evenodd" d="M15.9329 112.309L22.3407 105.901L24.8807 103.361H21.2885H10.917L12.5852 106.337H17.6963L14.4212 109.612L15.9329 112.309Z" fill="#131313"/>
<path fill-rule="evenodd" clip-rule="evenodd" d="M71.4401 34.4346H54.8988H51.3066L53.8467 36.9746L62.7743 45.9022L63.8264 46.9543L64.8785 45.9022L71.4401 39.3407V34.4346ZM63.8264 42.7458L69.1618 37.4104H58.491L63.8264 42.7458Z" fill="#131313"/>
<path fill-rule="evenodd" clip-rule="evenodd" d="M70.5211 72.9885V67.1634L64.8785 61.5209L63.8264 60.4688L62.7743 61.5209L53.8467 70.4485L51.3066 72.9885H54.8988H70.5211ZM63.8264 64.6773L69.1618 70.0126H58.491L63.8264 64.6773Z" fill="#131313"/>
<path fill-rule="evenodd" clip-rule="evenodd" d="M70.5211 103.361H54.8988H51.3066L53.8467 105.901L62.7743 114.829L63.8264 115.881L64.8785 114.829L70.5211 109.186V103.361ZM76.0352 103.672L76.3462 103.361H76.0352V103.672ZM63.8264 111.673L69.1618 106.337H58.491L63.8264 111.673Z" fill="#131313"/>
<path fill-rule="evenodd" clip-rule="evenodd" d="M57.0955 139.158H58.8846L56.3445 136.618L47.417 127.691L46.3648 126.639L45.3127 127.691L39.8965 133.107L43.0341 134.178L46.3648 130.847L51.7002 136.183H48.9077L57.151 138.996L57.0955 139.158Z" fill="#131313"/>
<path fill-rule="evenodd" clip-rule="evenodd" d="M70.5206 133.333V139.158H58.5731V137.933H52.5312L53.8463 136.618L62.7739 127.691L63.826 126.639L64.8781 127.691L70.5206 133.333ZM69.1614 136.183L63.826 130.847L58.4906 136.183H69.1614Z" fill="#131313"/>
<path d="M6.27587 53.2558C6.27587 54.619 5.3592 55.7682 4.10862 56.1205C4.18797 55.93 4.27234 55.7198 4.35235 55.4979C4.57353 54.8844 4.78707 54.114 4.78707 53.2558C4.78707 52.4642 5.10529 51.8952 5.51229 51.1799C5.52101 51.1646 5.53019 51.1485 5.53977 51.1318C5.58445 51.0536 5.63781 50.9603 5.69389 50.8552C5.71271 50.8801 5.73085 50.9056 5.74841 50.9317C6.06235 51.3969 6.27587 52.1765 6.27587 53.2558Z" fill="#131313" stroke="#131313" stroke-width="2.97586"/>
</svg>
