<svg width="141" height="141" viewBox="0 0 141 141" fill="none" xmlns="http://www.w3.org/2000/svg">
<path fill-rule="evenodd" clip-rule="evenodd" d="M103.127 69.3741C103.127 50.8584 87.9949 35.8201 69.2939 35.8201V33.2363C89.3845 33.2363 105.698 49.401 105.698 69.3741C105.698 89.3473 89.3845 105.512 69.2939 105.512V102.928C87.9949 102.928 103.127 87.8899 103.127 69.3741Z" fill="#131313"/>
<path fill-rule="evenodd" clip-rule="evenodd" d="M69.1182 138.924V1.40723H71.7561V138.924H69.1182Z" fill="#131313"/>
<path fill-rule="evenodd" clip-rule="evenodd" d="M11.4316 33.2363H69.2916V35.8741H11.4316V33.2363Z" fill="#131313"/>
<path fill-rule="evenodd" clip-rule="evenodd" d="M1.58496 68.9346H70.5245V71.3965H1.58496V68.9346Z" fill="#131313"/>
<path fill-rule="evenodd" clip-rule="evenodd" d="M10.377 102.874H71.2267V105.512H10.377V102.874Z" fill="#131313"/>
<path fill-rule="evenodd" clip-rule="evenodd" d="M70.4362 2.57954C33.1553 2.57954 2.93325 32.7994 2.93325 70.0774C2.93325 107.355 33.1553 137.575 70.4362 137.575C107.717 137.575 137.939 107.355 137.939 70.0774C137.939 32.7994 107.717 2.57954 70.4362 2.57954ZM0.353516 70.0774C0.353516 31.3747 31.7306 0 70.4362 0C109.142 0 140.519 31.3747 140.519 70.0774C140.519 108.78 109.142 140.155 70.4362 140.155C31.7306 140.155 0.353516 108.78 0.353516 70.0774Z" fill="#131313"/>
<rect x="22.4102" y="20.2188" width="2.75705" height="15.6233" fill="#131313"/>
<rect x="25.167" y="22.9756" width="2.75705" height="19.2993" transform="rotate(-90 25.167 22.9756)" fill="#131313"/>
<rect x="11.3818" y="36.042" width="3.02587" height="19.6681" transform="rotate(-90 11.3818 36.042)" fill="#131313"/>
<rect x="41.709" y="7.35254" width="2.75705" height="12.8662" fill="#131313"/>
<rect x="30.6807" y="28.4893" width="2.75705" height="7.35212" fill="#131313"/>
<rect x="33.4385" y="31.2461" width="2.75705" height="19.2993" transform="rotate(-90 33.4385 31.2461)" fill="#131313"/>
<rect x="52.7373" y="14.7041" width="2.75705" height="17.4613" transform="rotate(-90 52.7373 14.7041)" fill="#131313"/>
<rect x="48.1426" y="6.43359" width="2.75705" height="21.1374" transform="rotate(-90 48.1426 6.43359)" fill="#131313"/>
<rect x="49.9805" y="11.9473" width="2.75705" height="16.6423" fill="#131313"/>
<rect x="61.0088" y="22.9756" width="2.75705" height="9.19015" transform="rotate(-90 61.0088 22.9756)" fill="#131313"/>
<rect x="58.252" y="20.2188" width="2.75705" height="14.7042" fill="#131313"/>
<rect width="2.75705" height="15.6233" transform="matrix(1 0 0 -1 22.4102 48.708)" fill="#131313"/>
<rect width="2.75705" height="19.2993" transform="matrix(0 1 1 0 25.167 45.9512)" fill="#131313"/>
<rect width="2.75705" height="16.5423" transform="matrix(1 0 0 -1 41.709 65.25)" fill="#131313"/>
<rect width="2.75705" height="7.35212" transform="matrix(1 0 0 -1 30.6807 40.4365)" fill="#131313"/>
<rect width="2.75705" height="19.2993" transform="matrix(0 1 1 0 33.4385 37.6797)" fill="#131313"/>
<rect width="2.75705" height="17.4613" transform="matrix(0 1 1 0 52.7373 54.2217)" fill="#131313"/>
<rect width="2.75705" height="24.8134" transform="matrix(0 1 1 0 44.4658 62.4932)" fill="#131313"/>
<rect width="2.75705" height="21.1374" transform="matrix(1 0 0 -1 14.1387 56.9785)" fill="#131313"/>
<rect width="2.75705" height="19.2993" transform="matrix(0 1 1 0 16.8955 54.2217)" fill="#131313"/>
<rect width="2.75705" height="13.7852" transform="matrix(1 0 0 -1 33.4385 70.7646)" fill="#131313"/>
<rect width="2.75705" height="22.0564" transform="matrix(1 0 0 -1 5.86719 65.25)" fill="#131313"/>
<rect width="2.75705" height="19.2993" transform="matrix(0 1 1 0 8.625 62.4932)" fill="#131313"/>
<rect width="2.75705" height="4.59508" transform="matrix(1 0 0 -1 25.167 69.8447)" fill="#131313"/>
<rect x="14.1387" y="82.7109" width="2.75705" height="21.1374" fill="#131313"/>
<rect x="16.8955" y="85.4688" width="2.75705" height="19.2993" transform="rotate(-90 16.8955 85.4688)" fill="#131313"/>
<rect x="33.4385" y="68.9258" width="2.75705" height="13.7852" fill="#131313"/>
<rect x="5.86719" y="75.3594" width="2.75705" height="21.1374" fill="#131313"/>
<rect x="8.625" y="78.1162" width="2.75705" height="19.2993" transform="rotate(-90 8.625 78.1162)" fill="#131313"/>
<rect x="25.167" y="69.8447" width="2.75705" height="5.51409" fill="#131313"/>
<rect width="2.75705" height="16.6423" transform="matrix(1 0 0 -1 49.9805 56.9785)" fill="#131313"/>
<rect width="2.75705" height="9.19015" transform="matrix(0 1 1 0 61.0088 45.9512)" fill="#131313"/>
<rect width="2.75705" height="14.7042" transform="matrix(1 0 0 -1 58.252 48.708)" fill="#131313"/>
<rect x="22.4102" y="90.0635" width="2.75705" height="15.6233" fill="#131313"/>
<rect x="25.167" y="92.8203" width="2.75705" height="19.2993" transform="rotate(-90 25.167 92.8203)" fill="#131313"/>
<rect x="41.709" y="73.5215" width="2.75705" height="16.5423" fill="#131313"/>
<rect x="30.6807" y="98.335" width="2.75705" height="7.35212" fill="#131313"/>
<rect x="33.4385" y="101.092" width="2.75705" height="19.2993" transform="rotate(-90 33.4385 101.092)" fill="#131313"/>
<rect x="52.7373" y="84.5498" width="2.75705" height="17.4613" transform="rotate(-90 52.7373 84.5498)" fill="#131313"/>
<rect x="44.4658" y="76.2783" width="2.75705" height="24.8134" transform="rotate(-90 44.4658 76.2783)" fill="#131313"/>
<rect x="49.9805" y="81.792" width="2.75705" height="16.6423" fill="#131313"/>
<rect x="61.0088" y="92.8203" width="2.75705" height="9.19015" transform="rotate(-90 61.0088 92.8203)" fill="#131313"/>
<rect x="58.252" y="90.0635" width="2.75705" height="14.7042" fill="#131313"/>
<rect width="2.75705" height="15.6233" transform="matrix(1 0 0 -1 22.4102 118.553)" fill="#131313"/>
<rect width="2.75705" height="19.2993" transform="matrix(0 1 1 0 25.167 115.796)" fill="#131313"/>
<rect width="2.75705" height="14.7042" transform="matrix(1 0 0 -1 41.709 133.257)" fill="#131313"/>
<rect width="2.75705" height="7.35212" transform="matrix(1 0 0 -1 30.6807 110.282)" fill="#131313"/>
<rect width="2.75705" height="19.2993" transform="matrix(0 1 1 0 33.4385 107.524)" fill="#131313"/>
<rect width="2.75705" height="17.4613" transform="matrix(0 1 1 0 52.7373 124.067)" fill="#131313"/>
<rect width="2.75705" height="24.8134" transform="matrix(0 1 1 0 44.4658 132.338)" fill="#131313"/>
<rect width="2.75705" height="16.6423" transform="matrix(1 0 0 -1 49.9805 126.824)" fill="#131313"/>
<rect width="2.75705" height="9.19015" transform="matrix(0 1 1 0 61.0088 115.796)" fill="#131313"/>
<rect width="2.75705" height="14.7042" transform="matrix(1 0 0 -1 58.252 118.553)" fill="#131313"/>
</svg>
