<svg width="142" height="142" viewBox="0 0 142 142" fill="none" xmlns="http://www.w3.org/2000/svg">
<path fill-rule="evenodd" clip-rule="evenodd" d="M103.773 70.3741C103.773 51.8584 88.6414 36.8201 69.9404 36.8201V34.2363C90.031 34.2363 106.345 50.401 106.345 70.3741C106.345 90.3473 90.031 106.512 69.9404 106.512V103.928C88.6414 103.928 103.773 88.8899 103.773 70.3741Z" fill="#131313" stroke="#131313" stroke-width="0.330729" stroke-miterlimit="10"/>
<path fill-rule="evenodd" clip-rule="evenodd" d="M69.7646 139.924V2.40723H72.4026V139.924H69.7646Z" fill="#131313" stroke="#131313" stroke-width="0.330729" stroke-miterlimit="10"/>
<path fill-rule="evenodd" clip-rule="evenodd" d="M12.0781 34.2363H69.9381V36.8741H12.0781V34.2363Z" fill="#131313" stroke="#131313" stroke-width="0.330729" stroke-miterlimit="10"/>
<path fill-rule="evenodd" clip-rule="evenodd" d="M2.23145 69.9346H71.171V72.3965H2.23145V69.9346Z" fill="#131313" stroke="#131313" stroke-width="0.330729" stroke-miterlimit="10"/>
<path fill-rule="evenodd" clip-rule="evenodd" d="M11.0234 103.874H71.8731V106.512H11.0234V103.874Z" fill="#131313" stroke="#131313" stroke-width="0.330729" stroke-miterlimit="10"/>
<path fill-rule="evenodd" clip-rule="evenodd" d="M71.0827 3.57954C33.8018 3.57954 3.57973 33.7994 3.57973 71.0774C3.57973 108.355 33.8018 138.575 71.0827 138.575C108.363 138.575 138.586 108.355 138.586 71.0774C138.586 33.7994 108.363 3.57954 71.0827 3.57954ZM1 71.0774C1 32.3747 32.3771 1 71.0827 1C109.788 1 141.165 32.3747 141.165 71.0774C141.165 109.78 109.788 141.155 71.0827 141.155C32.3771 141.155 1 109.78 1 71.0774Z" fill="#131313" stroke="#131313" stroke-width="0.330729" stroke-miterlimit="10"/>
<path fill-rule="evenodd" clip-rule="evenodd" d="M71.0827 3.57954C33.8018 3.57954 3.57973 33.7994 3.57973 71.0774C3.57973 108.355 33.8018 138.575 71.0827 138.575C108.363 138.575 138.586 108.355 138.586 71.0774C138.586 33.7994 108.363 3.57954 71.0827 3.57954ZM1 71.0774C1 32.3747 32.3771 1 71.0827 1C109.788 1 141.165 32.3747 141.165 71.0774C141.165 109.78 109.788 141.155 71.0827 141.155C32.3771 141.155 1 109.78 1 71.0774Z" fill="#131313" stroke="#131313" stroke-width="0.330729" stroke-miterlimit="10"/>
<path fill-rule="evenodd" clip-rule="evenodd" d="M43.1247 8.95347C43.2942 8.69528 43.4252 8.49565 42.8154 7.89361C43.5705 8.63904 44.0085 8.48823 44.3891 8.35723C44.7818 8.22204 45.1132 8.10795 45.6684 9.02192L45.7158 9.09992C46.8653 10.9918 47.9045 12.6869 49.1673 13.9342C50.3781 15.13 51.7311 15.8484 53.5335 15.8484C55.3375 15.8484 56.6914 15.1298 57.9027 13.934C59.166 12.6868 60.2055 10.9916 61.3549 9.09992L61.4038 9.01933L61.4039 9.0193C62.4967 7.22055 63.6996 5.24057 65.2324 3.72661C66.8402 2.13854 68.8694 1.00098 71.5764 1.00098V3.80423C69.774 3.80423 68.421 4.52259 67.2102 5.71841C65.9474 6.96569 64.9082 8.66086 63.7587 10.5527L63.7114 10.6307L63.7113 10.6308C62.618 12.4304 61.4144 14.4115 59.8801 15.9262C58.2715 17.5143 56.2415 18.6517 53.5335 18.6517C50.8265 18.6517 48.7974 17.5141 47.1895 15.926C45.6567 14.4121 44.4538 12.4321 43.361 10.6334L43.312 10.5527C42.7174 9.57413 42.9431 9.23017 43.1247 8.95347Z" fill="#131313"/>
<path fill-rule="evenodd" clip-rule="evenodd" d="M23.7967 19.3501C23.1483 20.0505 23.7773 20.2714 24.063 20.3265C23.9764 20.3198 23.8394 20.3124 23.6366 20.3073C23.7166 20.3148 23.6469 20.3312 23.496 20.3667C23.073 20.4662 22.0113 20.7158 21.8193 21.3424C23.0827 22.5896 24.1221 24.2847 25.2715 26.1765L25.3205 26.2571C26.4133 28.0558 27.6162 30.0358 29.1491 31.5498C30.7569 33.1378 32.786 34.2754 35.4931 34.2754C38.2011 34.2754 40.2311 33.1381 41.8397 31.55C43.374 30.0352 44.5776 28.054 45.6709 26.2544L45.7183 26.1765C46.8678 24.2846 47.907 22.5894 49.1698 21.3421C50.3805 20.1463 51.7335 19.428 53.536 19.428C55.3399 19.428 56.6939 20.1466 57.9052 21.3424C59.1685 22.5896 60.2079 24.2847 61.3574 26.1765L61.4063 26.257C62.4991 28.0558 63.702 30.0358 65.2349 31.5498C66.8427 33.1378 68.8718 34.2754 71.5789 34.2754V31.4721C69.7765 31.4721 68.4234 30.7538 67.2127 29.558C65.9499 28.3107 64.9107 26.6155 63.7612 24.7237L63.7138 24.6457L63.7138 24.6456L63.7137 24.6455C62.6204 22.846 61.4168 20.8648 59.8826 19.3501C58.274 17.762 56.244 16.6247 53.536 16.6247C50.8289 16.6247 48.7998 17.7623 47.192 19.3504C45.6592 20.8643 44.4563 22.8442 43.3635 24.643L43.3145 24.7237C42.165 26.6154 41.1256 28.3105 39.8622 29.5577C38.651 30.7535 37.297 31.4721 35.4931 31.4721C33.6906 31.4721 32.3376 30.7538 31.1269 29.558C29.8641 28.3107 28.8249 26.6155 27.6754 24.7237L27.628 24.6457C26.5347 22.8461 25.331 20.8649 23.7967 19.3501ZM23.0574 20.3008C23.3893 20.3008 23.568 20.3008 23.6366 20.3073C23.4833 20.3034 23.2925 20.3008 23.0574 20.3008Z" fill="#131313"/>
<path fill-rule="evenodd" clip-rule="evenodd" d="M7.34537 45.1742C7.61455 45.1031 7.80929 45.0516 7.22935 44.4791C8.01148 45.2512 8.32443 44.8679 8.58814 44.5449C8.84174 44.2343 9.0498 43.9795 9.58576 44.8617L9.6332 44.9398C10.7827 46.8316 11.8219 48.5268 13.0847 49.7741C14.2954 50.9699 15.6484 51.6882 17.4509 51.6882C19.2548 51.6882 20.6088 50.9696 21.8201 49.7738C23.0834 48.5266 24.1228 46.8315 25.2723 44.9398L25.3213 44.8591C26.414 43.0604 27.617 41.0804 29.1498 39.5665C30.7576 37.9784 32.7867 36.8408 35.4938 36.8408C38.2018 36.8408 40.2318 37.9781 41.8404 39.5662C43.3747 41.081 44.5783 43.0622 45.6716 44.8618L45.719 44.9398C46.8685 46.8316 47.9077 48.5268 49.1705 49.7741C50.3812 50.9699 51.7343 51.6882 53.5367 51.6882C55.3407 51.6882 56.6946 50.9696 57.9059 49.7738C59.1692 48.5266 60.2087 46.8315 61.3581 44.9398L61.407 44.8592C62.4998 43.0604 63.7027 41.0804 65.2356 39.5665C66.8434 37.9784 68.8726 36.8408 71.5796 36.8408V39.6441C69.7772 39.6441 68.4242 40.3624 67.2134 41.5583C65.9506 42.8055 64.9114 44.5007 63.7619 46.3926L63.7145 46.4706L63.7145 46.4706L63.7145 46.4707C62.6212 48.2702 61.4175 50.2514 59.8833 51.7661C58.2747 53.3542 56.2447 54.4915 53.5367 54.4915C50.8297 54.4915 48.8005 53.3539 47.1927 51.7659C45.6599 50.2519 44.457 48.272 43.3642 46.4732L43.3152 46.3926C42.1657 44.5008 41.1263 42.8057 39.863 41.5585C38.6517 40.3627 37.2977 39.6441 35.4938 39.6441C33.6914 39.6441 32.3383 40.3624 31.1276 41.5583C29.8648 42.8055 28.8256 44.5007 27.6761 46.3926L27.6287 46.4706C26.5354 48.2701 25.3318 50.2513 23.7975 51.7661C22.1889 53.3542 20.1589 54.4915 17.4509 54.4915C14.7438 54.4915 12.7147 53.3539 11.1069 51.7659C9.57406 50.2519 8.37118 48.272 7.2784 46.4733L7.27839 46.4733L7.22935 46.3926C6.60758 45.3692 7.02816 45.2581 7.34537 45.1742Z" fill="#131313"/>
<path fill-rule="evenodd" clip-rule="evenodd" d="M2.93671 67.2643C2.71185 68.1863 2.51148 69.0078 1.45898 69.0078C4.11537 69.0078 4.14355 68.98 5.662 67.4799C5.69151 67.4508 5.72158 67.4211 5.75224 67.3908C7.28651 65.8761 8.49014 63.8949 9.58344 62.0954L9.63089 62.0173C10.7804 60.1254 11.8196 58.4303 13.0824 57.183C14.2931 55.9871 15.6461 55.2688 17.4486 55.2688C19.2525 55.2688 20.6065 55.9874 21.8177 57.1832C23.0811 58.4304 24.1205 60.1256 25.2699 62.0173L25.3189 62.0979C26.4117 63.8967 27.6146 65.8766 29.1475 67.3906C30.7553 68.9786 32.7844 70.1162 35.4915 70.1162C38.1995 70.1162 40.2295 68.9789 41.8381 67.3908C43.3724 65.876 44.576 63.8948 45.6693 62.0953L45.7167 62.0173C46.8662 60.1254 47.9054 58.4303 49.1682 57.183C50.3789 55.9871 51.7319 55.2688 53.5344 55.2688C55.3383 55.2688 56.6923 55.9874 57.9036 57.1832C59.1669 58.4304 60.2063 60.1256 61.3558 62.0173L61.4047 62.0979L61.4047 62.0979L61.4048 62.098C62.4976 63.8967 63.7005 65.8766 65.2333 67.3906C66.8411 68.9786 68.8702 70.1162 71.5773 70.1162V67.313C69.7749 67.313 68.4218 66.5946 67.2111 65.3988C65.9483 64.1515 64.9091 62.4563 63.7596 60.5645L63.7122 60.4865L63.7122 60.4864L63.7121 60.4863C62.6188 58.6868 61.4152 56.7057 59.881 55.191C58.2724 53.6029 56.2424 52.4655 53.5344 52.4655C50.8273 52.4655 48.7982 53.6031 47.1904 55.1912C45.6576 56.7051 44.4547 58.685 43.3619 60.4837L43.3619 60.4838L43.3128 60.5645C42.1634 62.4562 41.124 64.1513 39.8606 65.3986C38.6494 66.5944 37.2954 67.313 35.4915 67.313C33.689 67.313 32.336 66.5946 31.1253 65.3988C29.8625 64.1515 28.8233 62.4563 27.6738 60.5645L27.6264 60.4865C26.5331 58.6869 25.3294 56.7057 23.7951 55.191C22.1866 53.6029 20.1566 52.4655 17.4486 52.4655C14.7415 52.4655 12.7124 53.6031 11.1045 55.1912C9.57175 56.7051 8.36887 58.685 7.27608 60.4837L7.27608 60.4838L7.22703 60.5645C6.07761 62.4562 5.03815 64.1513 3.77483 65.3986C3.27028 65.8967 3.09726 66.6061 2.93671 67.2643Z" fill="#131313"/>
<path fill-rule="evenodd" clip-rule="evenodd" d="M2.93428 74.5328C2.7104 73.5613 2.50768 72.6817 1.45898 72.6817C3.94527 72.6817 4.12916 72.8657 5.38755 74.125C5.49977 74.2372 5.62054 74.3581 5.75224 74.4881C7.28651 76.0028 8.49014 77.984 9.58344 79.7835L9.63089 79.8616C10.7804 81.7535 11.8196 83.4487 13.0824 84.6959C14.2931 85.8918 15.6461 86.6101 17.4486 86.6101C19.2525 86.6101 20.6065 85.8915 21.8177 84.6957C23.0811 83.4485 24.1205 81.7533 25.2699 79.8616L25.3189 79.781C26.4117 77.9823 27.6146 76.0023 29.1475 74.4883C30.7553 72.9003 32.7844 71.7627 35.4915 71.7627C38.1995 71.7627 40.2295 72.9 41.8381 74.4881C43.3724 76.0029 44.576 77.9841 45.6693 79.7836L45.7167 79.8616C46.8662 81.7535 47.9054 83.4487 49.1682 84.6959C50.3789 85.8918 51.7319 86.6101 53.5344 86.6101C55.3383 86.6101 56.6923 85.8915 57.9036 84.6957C59.1669 83.4485 60.2063 81.7533 61.3558 79.8616L61.4047 79.781L61.4047 79.781L61.4048 79.7809C62.4976 77.9822 63.7005 76.0023 65.2333 74.4883C66.8411 72.9003 68.8702 71.7627 71.5773 71.7627V74.5659C69.7749 74.5659 68.4218 75.2843 67.2111 76.4801C65.9483 77.7274 64.9091 79.4226 63.7596 81.3144L63.7122 81.3924L63.7122 81.3925L63.7121 81.3926C62.6188 83.1921 61.4152 85.1732 59.881 86.6879C58.2724 88.276 56.2424 89.4134 53.5344 89.4134C50.8273 89.4134 48.7982 88.2758 47.1904 86.6877C45.6576 85.1738 44.4547 83.1939 43.3619 81.3952L43.3619 81.3951L43.3128 81.3144C42.1634 79.4227 41.124 77.7276 39.8606 76.4803C38.6494 75.2845 37.2954 74.5659 35.4915 74.5659C33.689 74.5659 32.336 75.2843 31.1253 76.4801C29.8625 77.7274 28.8233 79.4226 27.6738 81.3144L27.6264 81.3924C26.5331 83.192 25.3294 85.1732 23.7951 86.6879C22.1866 88.276 20.1566 89.4134 17.4486 89.4134C14.7415 89.4134 12.7124 88.2758 11.1045 86.6877C9.57175 85.1738 8.36887 83.1939 7.27608 81.3952L7.27608 81.3951L7.22703 81.3144C6.07761 79.4227 5.03815 77.7276 3.77483 76.4803C3.26773 75.9797 3.09552 75.2324 2.93428 74.5328Z" fill="#131313"/>
<path fill-rule="evenodd" clip-rule="evenodd" d="M7.17738 96.9962C7.40019 97.2037 7.57211 97.3637 6.97211 97.9561C7.73599 97.2019 8.11528 97.4121 8.43852 97.5912C8.76452 97.7718 9.03351 97.9208 9.58248 97.0172L9.62992 96.9391C10.7794 95.0473 11.8186 93.3521 13.0814 92.1048C14.2921 90.909 15.6452 90.1907 17.4476 90.1907C19.2516 90.1907 20.6055 90.9093 21.8168 92.1051C23.0801 93.3523 24.1195 95.0474 25.269 96.9391L25.318 97.0198C26.4108 98.8185 27.6137 100.798 29.1465 102.312C30.7544 103.901 32.7835 105.038 35.4905 105.038C38.1985 105.038 40.2285 103.901 41.8371 102.313C43.3714 100.798 44.575 98.8167 45.6684 97.0171L45.7157 96.9391C46.8652 95.0473 47.9044 93.3521 49.1672 92.1048C50.378 90.909 51.731 90.1907 53.5334 90.1907C55.3374 90.1907 56.6914 90.9093 57.9026 92.1051C59.1659 93.3523 60.2054 95.0474 61.3548 96.9391L61.4038 97.0197L61.4038 97.0198L61.4038 97.0199C62.4966 98.8186 63.6995 100.799 65.2323 102.312C66.8402 103.901 68.8693 105.038 71.5763 105.038V102.235C69.7739 102.235 68.4209 101.516 67.2102 100.321C65.9473 99.0734 64.9082 97.3782 63.7586 95.4864L63.7113 95.4084L63.7112 95.4083L63.7112 95.4082C62.6179 93.6087 61.4143 91.6275 59.88 90.1128C58.2714 88.5247 56.2414 87.3874 53.5334 87.3874C50.8264 87.3874 48.7973 88.525 47.1894 90.113C45.6566 91.627 44.4537 93.6069 43.3609 95.4057L43.3119 95.4864C42.1625 97.3781 41.123 99.0732 39.8597 100.32C38.6485 101.516 37.2945 102.235 35.4905 102.235C33.6881 102.235 32.3351 101.516 31.1243 100.321C29.8615 99.0734 28.8223 97.3782 27.6728 95.4864L27.6254 95.4084C26.5321 93.6088 25.3285 91.6276 23.7942 90.1128C22.1856 88.5247 20.1556 87.3874 17.4476 87.3874C14.7406 87.3874 12.7114 88.525 11.1036 90.113C9.57078 91.627 8.3679 93.6069 7.27511 95.4056L7.27511 95.4056L7.22607 95.4864C6.62255 96.4796 6.93107 96.7669 7.17738 96.9962Z" fill="#131313"/>
<path fill-rule="evenodd" clip-rule="evenodd" d="M23.7953 120.694C23.6213 120.866 23.4972 120.998 23.4108 121.097C23.4872 120.838 23.3542 120.473 22.137 120.473C22.9126 120.473 22.7383 120.366 22.3839 120.15C21.914 119.863 21.1274 119.383 21.8179 118.702C23.0812 117.454 24.1206 115.759 25.2701 113.867L25.3191 113.787C26.4119 111.988 27.6148 110.008 29.1476 108.494C30.7555 106.906 32.7846 105.769 35.4916 105.769C38.1996 105.769 40.2296 106.906 41.8382 108.494C43.3725 110.009 44.5761 111.99 45.6695 113.79L45.7168 113.867C46.8663 115.759 47.9055 117.455 49.1683 118.702C50.3791 119.898 51.7321 120.616 53.5345 120.616C55.3385 120.616 56.6925 119.897 57.9037 118.702C59.167 117.454 60.2065 115.759 61.3559 113.867L61.4048 113.787C62.4977 111.988 63.7006 110.008 65.2334 108.494C66.8413 106.906 68.8704 105.769 71.5774 105.769V108.572C69.775 108.572 68.422 109.29 67.2113 110.486C65.9484 111.733 64.9092 113.428 63.7597 115.32L63.7124 115.398L63.7123 115.398L63.7123 115.398C62.619 117.198 61.4153 119.179 59.8811 120.694C58.2725 122.282 56.2425 123.419 53.5345 123.419C50.8275 123.419 48.7984 122.282 47.1905 120.694C45.6577 119.18 44.4548 117.2 43.362 115.401L43.313 115.32C42.1636 113.429 41.1241 111.733 39.8608 110.486C38.6495 109.29 37.2956 108.572 35.4916 108.572C33.6892 108.572 32.3362 109.29 31.1254 110.486C29.8626 111.733 28.8234 113.428 27.6739 115.32L27.6265 115.398C26.5332 117.198 25.3296 119.179 23.7953 120.694Z" fill="#131313"/>
<path fill-rule="evenodd" clip-rule="evenodd" d="M42.4234 131.051C41.8453 132.107 41.3926 132.933 40.5169 133.798C41.9491 133.798 42.1876 134.499 42.3324 134.925C42.4614 135.304 42.5161 135.465 43.2739 134.717C44.2809 133.723 44.5269 133.217 44.8861 132.478C45.0742 132.09 45.2933 131.639 45.6691 131.021L45.7164 130.943C46.8659 129.051 47.9051 127.356 49.1679 126.109C50.3787 124.913 51.7317 124.195 53.5341 124.195C55.3381 124.195 56.6921 124.913 57.9033 126.109C59.1666 127.356 60.2061 129.051 61.3555 130.943L61.4044 131.024L61.4045 131.024C62.4973 132.822 63.7002 134.802 65.233 136.316C66.8409 137.904 68.87 139.042 71.577 139.042V136.239C69.7746 136.239 68.4216 135.52 67.2109 134.325C65.948 133.077 64.9088 131.382 63.7593 129.49L63.712 129.412L63.7119 129.412C62.6186 127.613 61.415 125.631 59.8807 124.117C58.2721 122.529 56.2421 121.391 53.5341 121.391C50.8271 121.391 48.798 122.529 47.1901 124.117C45.6573 125.631 44.4544 127.611 43.3616 129.41L43.3126 129.49C42.9599 130.071 42.6794 130.583 42.4234 131.051Z" fill="#131313"/>
<circle cx="35.5874" cy="53.0493" r="3.34128" fill="#131313"/>
<circle cx="35.5874" cy="88.8911" r="3.34128" fill="#131313"/>
<circle cx="35.5874" cy="122.894" r="3.34128" fill="#131313"/>
<circle cx="35.5874" cy="18.1264" r="3.34128" fill="#131313"/>
<path d="M71.3045 18.1264C71.3045 19.9718 72.3556 21.4677 70.5102 21.4677C68.6649 21.4677 67.1689 19.9718 67.1689 18.1264C67.1689 16.2811 68.6649 14.7852 70.5102 14.7852C72.3556 14.7852 71.3045 16.2811 71.3045 18.1264Z" fill="#131313"/>
<path d="M71.764 53.0493C71.764 54.8946 72.3556 56.3906 70.5102 56.3906C68.6649 56.3906 67.1689 54.8946 67.1689 53.0493C67.1689 51.2039 68.6649 49.708 70.5102 49.708C72.3556 49.708 71.764 51.2039 71.764 53.0493Z" fill="#131313"/>
<path d="M71.764 88.8911C71.764 90.7364 72.3556 92.2324 70.5102 92.2324C68.6649 92.2324 67.1689 90.7364 67.1689 88.8911C67.1689 87.0457 68.6649 85.5498 70.5102 85.5498C72.3556 85.5498 71.764 87.0457 71.764 88.8911Z" fill="#131313"/>
<path d="M72.2235 122.894C72.2235 124.739 72.3556 126.235 70.5102 126.235C68.6649 126.235 67.1689 124.739 67.1689 122.894C67.1689 121.049 68.6649 119.553 70.5102 119.553C72.3556 119.553 72.2235 121.049 72.2235 122.894Z" fill="#131313"/>
</svg>
