<svg width="303" height="303" viewBox="0 0 303 303" fill="none" xmlns="http://www.w3.org/2000/svg">
<path fill-rule="evenodd" clip-rule="evenodd" d="M202.714 200.28C230.926 172.068 230.785 126.101 202.293 97.6098L206.23 93.6731C236.839 124.282 237.064 173.765 206.632 204.197C176.2 234.629 126.716 234.404 96.1076 203.795L100.044 199.859C128.536 228.35 174.503 228.491 202.714 200.28Z" fill="#131313"/>
<path fill-rule="evenodd" clip-rule="evenodd" d="M44.9322 254.436L254.459 44.9083L258.479 48.9274L48.9513 258.455L44.9322 254.436Z" fill="#131313"/>
<path fill-rule="evenodd" clip-rule="evenodd" d="M118.076 5.52147L206.228 93.6729L202.209 97.692L114.057 9.54053L118.076 5.52147Z" fill="#131313"/>
<path fill-rule="evenodd" clip-rule="evenodd" d="M48.6869 44.9084L153.718 149.94L149.967 153.691L44.9358 48.6595L48.6869 44.9084Z" fill="#131313"/>
<path fill-rule="evenodd" clip-rule="evenodd" d="M10.3668 110.016L103.073 202.722L99.0542 206.741L6.34777 114.035L10.3668 110.016Z" fill="#131313"/>
<path fill-rule="evenodd" clip-rule="evenodd" d="M43.6367 61.526C47.7859 61.4981 52.4578 62.0767 56.8846 66.5035C62.174 71.7929 61.9682 77.4622 61.8029 82.0151C61.8008 82.0725 61.7987 82.1298 61.7967 82.1869C61.6305 86.7886 61.577 90.2281 65.0739 93.725C68.5708 97.2219 72.0103 97.1685 76.6121 97.0023C76.6692 97.0002 76.7264 96.9981 76.7839 96.996C81.3368 96.8307 87.006 96.6249 92.2955 101.914C97.5884 107.207 97.3826 112.879 97.2172 117.433L97.2112 117.601C97.0449 122.204 96.9907 125.642 100.485 129.136C103.982 132.633 107.421 132.579 112.023 132.413L112.195 132.407C116.748 132.242 122.417 132.036 127.706 137.325C132.999 142.618 132.793 148.29 132.628 152.844L132.622 153.012C132.456 157.615 132.402 161.053 135.896 164.547L132.015 168.428C126.725 163.138 126.931 157.469 127.097 152.916L127.103 152.744C127.269 148.142 127.322 144.703 123.826 141.206C120.331 137.712 116.894 137.766 112.291 137.932L112.123 137.938C107.568 138.104 101.897 138.31 96.604 133.017C91.3146 127.727 91.5204 122.058 91.6857 117.505L91.6919 117.333C91.8581 112.732 91.9115 109.292 88.4147 105.795C84.9206 102.301 81.483 102.355 76.8801 102.522L76.7122 102.528C72.1575 102.693 66.4861 102.899 61.1931 97.6058C55.9002 92.3128 56.106 86.6414 56.2713 82.0868C56.2734 82.0306 56.2754 81.9746 56.2774 81.9188C56.4437 77.316 56.4979 73.8784 53.0038 70.3843C50.0944 67.4749 47.1997 67.0255 43.7429 67.0487C43.0021 67.0537 42.2645 67.0802 41.4804 67.1084C41.311 67.1145 41.1396 67.1206 40.9654 67.1267C40.0075 67.1599 38.988 67.1884 37.9526 67.1643C35.8722 67.1159 33.613 66.8548 31.3128 65.9281L33.3215 60.809C34.7683 61.3919 36.2939 61.603 38.0123 61.643C38.8764 61.6631 39.7598 61.6399 40.7053 61.6072C40.8635 61.6017 41.0241 61.5959 41.1869 61.59C41.9734 61.5617 42.8075 61.5316 43.6367 61.526Z" fill="#131313"/>
<path fill-rule="evenodd" clip-rule="evenodd" d="M32.2484 75.0514C35.9466 75.2308 39.8364 76.2465 43.5071 79.9172C48.7955 85.2056 48.5303 90.9329 48.3173 95.5325C48.3146 95.5906 48.3119 95.6484 48.3093 95.7061C48.0949 100.355 48.0062 103.829 51.5023 107.325C54.9984 110.821 58.4725 110.733 63.1215 110.518C63.1791 110.516 63.237 110.513 63.295 110.51C67.8946 110.297 73.622 110.032 78.9103 115.32C84.2022 120.612 83.9369 126.342 83.7239 130.943L83.7161 131.113C83.5017 135.763 83.4121 139.235 86.9055 142.728C90.4016 146.225 93.8757 146.136 98.5246 145.921L98.6982 145.913C103.298 145.7 109.025 145.435 114.314 150.724C119.605 156.015 119.34 161.745 119.127 166.346L119.119 166.516C118.905 171.166 118.815 174.638 122.309 178.132L118.35 182.09C113.062 176.802 113.327 171.074 113.54 166.475L113.548 166.301C113.762 161.652 113.851 158.178 110.355 154.682C106.862 151.189 103.39 151.278 98.7396 151.493L98.5699 151.5C93.9685 151.713 88.2389 151.979 82.9471 146.687C77.6588 141.399 77.924 135.671 78.1369 131.072L78.145 130.898C78.3593 126.249 78.4481 122.775 74.9519 119.279C71.4586 115.785 67.9864 115.875 63.3364 116.089C63.28 116.092 63.2234 116.095 63.1667 116.097C58.5653 116.31 52.8358 116.575 47.5439 111.284C42.2521 105.992 42.5173 100.262 42.7303 95.6609C42.733 95.6041 42.7356 95.5476 42.7382 95.4912C42.9526 90.8411 43.0421 87.369 39.5488 83.8756C37.0884 81.4153 34.64 80.753 31.9364 80.6219C30.658 80.5599 29.3711 80.6187 27.9291 80.6846C27.7482 80.6929 27.5649 80.7013 27.3789 80.7095C25.7696 80.781 23.9797 80.8417 22.1582 80.6531L22.7738 75.1057C24.145 75.2476 25.5678 75.2093 27.1733 75.138C27.3508 75.1301 27.5312 75.1218 27.7142 75.1133C29.1247 75.0481 30.6885 74.9757 32.2484 75.0514Z" fill="#131313"/>
<path fill-rule="evenodd" clip-rule="evenodd" d="M16.2815 88.5644C20.4865 88.5119 25.2693 89.0136 29.7974 93.5417C35.0882 98.8325 34.8831 104.502 34.7184 109.056C34.7163 109.113 34.7143 109.171 34.7122 109.228C34.5466 113.83 34.4936 117.27 37.9914 120.768C41.4892 124.266 44.9292 124.213 49.5315 124.047C49.5886 124.045 49.6459 124.043 49.7033 124.041C54.2568 123.876 59.9268 123.671 65.2176 128.962C70.512 134.256 70.3069 139.928 70.1421 144.484L70.1361 144.652C69.9704 149.255 69.9166 152.693 73.4117 156.188C76.9095 159.686 80.3494 159.633 84.9518 159.467L85.1236 159.461C89.6771 159.296 95.347 159.091 100.638 164.382C105.932 169.677 105.727 175.349 105.562 179.904L105.556 180.072C105.391 184.675 105.337 188.113 108.832 191.608L104.951 195.489C99.6602 190.198 99.8654 184.528 100.03 179.975L100.036 179.803C100.202 175.201 100.255 171.761 96.7571 168.263C93.2621 164.768 89.824 164.822 85.2206 164.987L85.0526 164.993C80.4974 165.158 74.8253 165.363 69.5309 160.069C64.24 154.778 64.4451 149.108 64.6099 144.555L64.6161 144.383C64.7817 139.78 64.8346 136.341 61.3368 132.843C57.8418 129.348 54.4038 129.401 49.8004 129.567C49.7445 129.569 49.6885 129.571 49.6323 129.573C45.0771 129.738 39.405 129.943 34.1106 124.649C28.8162 119.354 29.0214 113.682 29.1861 109.127C29.1882 109.071 29.1902 109.015 29.1922 108.959C29.3578 104.356 29.4116 100.918 25.9166 97.4225C22.9462 94.452 19.9907 94.043 16.4207 94.0875L16.2815 88.5644Z" fill="#131313"/>
<path fill-rule="evenodd" clip-rule="evenodd" d="M2.59988 134.935L17.0685 120.466L21.0876 124.485L6.61894 138.954L2.59988 134.935Z" fill="#131313"/>
<path fill-rule="evenodd" clip-rule="evenodd" d="M1.79211 161.997L30.1935 133.595L34.2126 137.614L5.81117 166.016L1.79211 161.997Z" fill="#131313"/>
<path fill-rule="evenodd" clip-rule="evenodd" d="M5.81378 184.772L43.593 146.993L47.612 151.012L9.83284 188.791L5.81378 184.772Z" fill="#131313"/>
<path fill-rule="evenodd" clip-rule="evenodd" d="M11.7045 205.135L56.718 160.122L60.737 164.141L15.7235 209.154L11.7045 205.135Z" fill="#131313"/>
<path fill-rule="evenodd" clip-rule="evenodd" d="M20.8169 222.818L70.1175 173.517L74.1365 177.536L24.836 226.837L20.8169 222.818Z" fill="#131313"/>
<path fill-rule="evenodd" clip-rule="evenodd" d="M30.1987 239.698L83.2503 186.646L87.2694 190.665L34.2178 243.717L30.1987 239.698Z" fill="#131313"/>
<path fill-rule="evenodd" clip-rule="evenodd" d="M242.574 53.2429L242.787 36.0353L248.33 36.1005L248.05 58.7852L221.649 58.793L221.641 85.2276L192.434 85.2363L192.436 79.6924L216.098 79.6853L216.106 53.2508L242.574 53.2429Z" fill="#131313"/>
<path fill-rule="evenodd" clip-rule="evenodd" d="M215.01 27.7228L215.021 17.9906L220.569 17.9845L220.552 33.2651L194.097 33.2942L194.068 59.75L164.838 59.7821L164.844 54.2338L188.525 54.2077L188.554 27.7519L215.01 27.7228Z" fill="#131313"/>
<path fill-rule="evenodd" clip-rule="evenodd" d="M162.496 27.1599L162.468 3.47009L168.018 3.47672L168.053 32.7168L138.813 32.6819L138.806 27.1316L162.496 27.1599Z" fill="#131313"/>
<path fill-rule="evenodd" clip-rule="evenodd" d="M254.683 48.7041C197.884 -8.09447 105.796 -8.09447 48.997 48.7041C-7.80151 105.503 -7.80151 197.591 48.997 254.39C105.796 311.188 197.884 311.188 254.683 254.39C311.481 197.591 311.481 105.503 254.683 48.7041ZM45.0667 44.7738C104.036 -14.1954 199.644 -14.1954 258.613 44.7738C317.582 103.743 317.582 199.351 258.613 258.32C199.644 317.289 104.036 317.289 45.0667 258.32C-13.9025 199.351 -13.9025 103.743 45.0667 44.7738Z" fill="#131313"/>
<path fill-rule="evenodd" clip-rule="evenodd" d="M254.683 48.7041C197.884 -8.09447 105.796 -8.09447 48.997 48.7041C-7.80151 105.503 -7.80151 197.591 48.997 254.39C105.796 311.188 197.884 311.188 254.683 254.39C311.481 197.591 311.481 105.503 254.683 48.7041ZM45.0667 44.7738C104.036 -14.1954 199.644 -14.1954 258.613 44.7738C317.582 103.743 317.582 199.351 258.613 258.32C199.644 317.289 104.036 317.289 45.0667 258.32C-13.9025 199.351 -13.9025 103.743 45.0667 44.7738Z" fill="#131313"/>
<path fill-rule="evenodd" clip-rule="evenodd" d="M157.442 81.3992C144.568 87.239 129.293 98.082 114.772 112.603L110.84 108.672C125.712 93.8 141.527 82.5102 155.156 76.3276C161.961 73.2408 168.361 71.3628 173.91 71.0357C179.456 70.7088 184.485 71.9259 188.006 75.4474C191.528 78.9689 192.745 83.9979 192.418 89.5436C192.091 95.0923 190.213 101.493 187.126 108.298C180.943 121.927 169.654 137.742 154.782 152.613L150.85 148.682C165.372 134.16 176.215 118.886 182.054 106.012C184.979 99.5654 186.584 93.8609 186.857 89.2363C187.13 84.6089 186.063 81.3965 184.06 79.3937C182.057 77.3909 178.845 76.3239 174.217 76.5967C169.593 76.8693 163.888 78.4749 157.442 81.3992Z" fill="#131313"/>
<path fill-rule="evenodd" clip-rule="evenodd" d="M117.565 41.5203C104.691 47.3601 89.4165 58.2031 74.8951 72.7245L70.9633 68.7928C85.835 53.9211 101.65 42.6313 115.279 36.4487C122.084 33.3619 128.484 31.4839 134.033 31.1568C139.579 30.8299 144.608 32.047 148.129 35.5685C151.651 39.09 152.868 44.119 152.541 49.6647C152.214 55.2134 150.336 61.6139 147.249 68.4188C141.067 82.0482 129.777 97.8629 114.905 112.735L110.973 108.803C125.495 94.2814 136.338 79.0068 142.178 66.1332C145.102 59.6865 146.708 53.9819 146.98 49.3574C147.253 44.73 146.186 41.5176 144.183 39.5148C142.18 37.512 138.968 36.445 134.34 36.7178C129.716 36.9904 124.011 38.596 117.565 41.5203Z" fill="#131313"/>
<path d="M112.662 9.7851C112.335 15.3338 110.457 21.7342 107.37 28.5392C101.187 42.1686 89.8975 57.9832 75.0259 72.8549L71.0942 68.9232C85.6156 54.4018 96.4586 39.1272 102.298 26.2535C105.223 19.8069 106.828 14.1023 107.101 9.4778L112.662 9.7851Z" fill="#131313"/>
</svg>
