<svg width="306" height="362" viewBox="0 0 306 362" fill="none" xmlns="http://www.w3.org/2000/svg">
<path fill-rule="evenodd" clip-rule="evenodd" d="M224.366 207.441C224.366 167.015 191.331 134.182 150.504 134.182V128.541C194.364 128.541 229.979 163.833 229.979 207.441C229.979 251.048 194.364 286.34 150.504 286.34V280.699C191.331 280.699 224.366 247.866 224.366 207.441Z" fill="#131313"/>
<path fill-rule="evenodd" clip-rule="evenodd" d="M150.121 359.29V59.0488H155.88V359.29H150.121Z" fill="#131313"/>
<path fill-rule="evenodd" clip-rule="evenodd" d="M24.1875 128.541H150.504V134.3H24.1875V128.541Z" fill="#131313"/>
<path fill-rule="evenodd" clip-rule="evenodd" d="M2.6875 206.48H153.192V211.856H2.6875V206.48Z" fill="#131313"/>
<path fill-rule="evenodd" clip-rule="evenodd" d="M21.8828 280.58H154.726V286.339H21.8828V280.58Z" fill="#131313"/>
<path fill-rule="evenodd" clip-rule="evenodd" d="M10.9785 222.006C13.9312 219.013 17.6931 216.08 24.0364 216.08C31.6159 216.08 35.5303 220.289 38.6739 223.67C38.7136 223.713 38.7531 223.755 38.7925 223.797C41.9705 227.214 44.3965 229.716 49.4074 229.716C54.4182 229.716 56.8442 227.214 60.0222 223.797C60.0616 223.755 60.1012 223.713 60.1408 223.67C63.2844 220.289 67.1988 216.08 74.7783 216.08C82.3628 216.08 86.2787 220.291 89.4235 223.673L89.5396 223.797C92.7182 227.214 95.1423 229.716 100.149 229.716C105.16 229.716 107.586 227.214 110.764 223.797L110.883 223.67C114.026 220.289 117.941 216.08 125.52 216.08C133.105 216.08 137.021 220.291 140.165 223.673L140.281 223.797C143.46 227.214 145.884 229.716 150.891 229.716V235.277C143.312 235.277 139.397 231.068 136.254 227.687L136.135 227.56C132.957 224.144 130.531 221.641 125.52 221.641C120.513 221.641 118.089 224.143 114.91 227.56L114.794 227.684C111.65 231.066 107.734 235.277 100.149 235.277C92.5697 235.277 88.6553 231.068 85.5117 227.687L85.3931 227.56C82.2152 224.144 79.7891 221.641 74.7783 221.641C69.7714 221.641 67.3473 224.143 64.1686 227.56L64.0526 227.684C60.9078 231.066 56.9919 235.277 49.4074 235.277C41.8228 235.277 37.9069 231.066 34.7621 227.684C34.7233 227.643 34.6846 227.601 34.6461 227.56C31.4674 224.143 29.0433 221.641 24.0364 221.641C19.8675 221.641 17.4715 223.393 15.0114 225.886C14.4842 226.421 13.9747 226.968 13.4331 227.55C13.3162 227.676 13.1977 227.803 13.0773 227.932C12.4148 228.642 11.7048 229.393 10.9457 230.118C9.42046 231.574 7.61475 233.005 5.30269 233.989L3.07422 228.882C4.52838 228.263 5.77273 227.322 7.03256 226.119C7.66607 225.514 8.2824 224.865 8.93633 224.164C9.04574 224.047 9.15672 223.927 9.2691 223.807C9.81234 223.223 10.3884 222.604 10.9785 222.006Z" fill="#131313"/>
<path fill-rule="evenodd" clip-rule="evenodd" d="M12.5072 239.856C15.2854 237.335 18.8001 235.275 24.06 235.275C31.6379 235.275 35.5514 239.569 38.6943 243.017C38.734 243.06 38.7735 243.104 38.8129 243.147C41.9902 246.631 44.4157 249.184 49.4254 249.184C54.4352 249.184 56.8607 246.631 60.038 243.147C60.0774 243.104 60.1169 243.06 60.1566 243.017C63.2995 239.569 67.213 235.275 74.7908 235.275C82.3738 235.275 86.2888 239.571 89.433 243.02L89.5489 243.147C92.7269 246.632 95.1505 249.184 100.156 249.184C105.166 249.184 107.592 246.631 110.769 243.147L110.887 243.017C114.03 239.569 117.944 235.275 125.522 235.275C133.105 235.275 137.02 239.571 140.164 243.02L140.28 243.147C143.458 246.632 145.881 249.184 150.887 249.184V254.856C143.309 254.856 139.396 250.563 136.253 247.115L136.134 246.985C132.957 243.5 130.531 240.948 125.522 240.948C120.516 240.948 118.092 243.499 114.914 246.985L114.798 247.112C111.654 250.561 107.739 254.856 100.156 254.856C92.5784 254.856 88.6649 250.563 85.522 247.115L85.4034 246.985C82.2261 243.5 79.8006 240.948 74.7908 240.948C69.7851 240.948 67.3615 243.499 64.1835 246.985C64.145 247.027 64.1063 247.069 64.0675 247.112C60.9234 250.561 57.0084 254.856 49.4254 254.856C41.8425 254.856 37.9275 250.561 34.7834 247.112C34.7446 247.069 34.7059 247.027 34.6674 246.985C31.4894 243.499 29.0658 240.948 24.06 240.948C20.5345 240.948 18.3058 242.227 16.2748 244.07C15.3144 244.942 14.4346 245.906 13.4486 246.986C13.3249 247.122 13.1996 247.259 13.0723 247.398C11.9705 248.603 10.7315 249.929 9.29135 251.099L5.75781 246.683C6.84194 245.802 7.83392 244.755 8.9331 243.554C9.05462 243.421 9.1779 243.286 9.30295 243.149C10.2668 242.091 11.3354 240.919 12.5072 239.856Z" fill="#131313"/>
<path fill-rule="evenodd" clip-rule="evenodd" d="M10.75 260.975C13.7252 257.925 17.5113 254.857 23.9999 254.857C31.5814 254.857 35.4968 259.067 38.6412 262.447C38.6809 262.49 38.7204 262.532 38.7599 262.575C41.9387 265.991 44.3653 268.493 49.3775 268.493C54.3897 268.493 56.8163 265.991 59.9951 262.575C60.0346 262.532 60.0741 262.49 60.1138 262.447C63.2582 259.067 67.1736 254.857 74.7551 254.857C82.3417 254.857 86.2586 259.068 89.4043 262.45L89.5203 262.575C92.6999 265.992 95.1246 268.493 100.133 268.493C105.145 268.493 107.572 265.991 110.75 262.575L110.869 262.447C114.013 259.067 117.929 254.857 125.51 254.857C133.097 254.857 137.014 259.068 140.16 262.45L140.276 262.575C143.455 265.992 145.88 268.493 150.888 268.493V274.054C143.307 274.054 139.391 269.845 136.247 266.465L136.128 266.337C132.949 262.921 130.523 260.418 125.51 260.418C120.502 260.418 118.077 262.92 114.898 266.337L114.782 266.462C111.636 269.844 107.719 274.054 100.133 274.054C92.5513 274.054 88.6359 269.845 85.4914 266.465L85.3728 266.337C82.194 262.921 79.7673 260.418 74.7551 260.418C69.7469 260.418 67.3222 262.92 64.1427 266.337C64.1041 266.379 64.0654 266.42 64.0267 266.462C60.881 269.844 56.9641 274.054 49.3775 274.054C41.7909 274.054 37.874 269.843 34.7283 266.462C34.6896 266.42 34.6509 266.379 34.6123 266.337C31.4328 262.92 29.0081 260.418 23.9999 260.418C19.7434 260.418 17.3328 262.243 14.8069 264.832L10.75 260.975Z" fill="#131313"/>
<path fill-rule="evenodd" clip-rule="evenodd" d="M34.1719 304V283.268H39.931V304H34.1719Z" fill="#131313"/>
<path fill-rule="evenodd" clip-rule="evenodd" d="M52.9844 323.965V283.268H58.7435V323.965H52.9844Z" fill="#131313"/>
<path fill-rule="evenodd" clip-rule="evenodd" d="M72.1797 337.403V283.268H77.9388V337.403H72.1797Z" fill="#131313"/>
<path fill-rule="evenodd" clip-rule="evenodd" d="M90.9922 347.769V283.268H96.7513V347.769H90.9922Z" fill="#131313"/>
<path fill-rule="evenodd" clip-rule="evenodd" d="M110.191 353.912V283.268H115.951V353.912H110.191Z" fill="#131313"/>
<path fill-rule="evenodd" clip-rule="evenodd" d="M129.004 359.288V283.268H134.763V359.288H129.004Z" fill="#131313"/>
<path fill-rule="evenodd" clip-rule="evenodd" d="M147.579 73.5349L135.402 61.054L139.421 57.1289L155.473 73.5825L136.563 92.504L155.497 111.449L134.577 132.381L130.607 128.408L147.555 111.449L128.621 92.504L147.579 73.5349Z" fill="#131313"/>
<path fill-rule="evenodd" clip-rule="evenodd" d="M109.543 74.9992L102.578 68.0187L106.549 64.0391L117.485 74.9992L98.5511 93.9749L117.485 112.951L96.5657 133.916L92.5948 129.936L109.543 112.951L90.6094 93.9749L109.543 74.9992Z" fill="#131313"/>
<path fill-rule="evenodd" clip-rule="evenodd" d="M71.5129 112.224L54.5195 95.2707L58.5009 91.2988L79.4756 112.224L58.5009 133.148L54.5195 129.176L71.5129 112.224Z" fill="#131313"/>
<path fill-rule="evenodd" clip-rule="evenodd" d="M153 61.6085C71.6108 61.6085 5.6319 127.587 5.6319 208.977C5.6319 290.366 71.6108 356.345 153 356.345C234.389 356.345 300.368 290.366 300.368 208.977C300.368 127.587 234.389 61.6085 153 61.6085ZM0 208.977C0 124.477 68.5004 55.9766 153 55.9766C237.5 55.9766 306 124.477 306 208.977C306 293.476 237.5 361.977 153 361.977C68.5004 361.977 0 293.476 0 208.977Z" fill="#131313"/>
<path fill-rule="evenodd" clip-rule="evenodd" d="M153 61.6085C71.6108 61.6085 5.6319 127.587 5.6319 208.977C5.6319 290.366 71.6108 356.345 153 356.345C234.389 356.345 300.368 290.366 300.368 208.977C300.368 127.587 234.389 61.6085 153 61.6085ZM0 208.977C0 124.477 68.5004 55.9766 153 55.9766C237.5 55.9766 306 124.477 306 208.977C306 293.476 237.5 361.977 153 361.977C68.5004 361.977 0 293.476 0 208.977Z" fill="#131313"/>
<path fill-rule="evenodd" clip-rule="evenodd" d="M106.755 154.704C101.715 168.112 98.5402 186.824 98.5402 207.633H92.9062C92.9062 186.322 96.1482 166.903 101.484 152.708C104.148 145.621 107.388 139.69 111.129 135.48C114.868 131.272 119.343 128.541 124.389 128.541C129.435 128.541 133.911 131.272 137.65 135.48C141.391 139.69 144.631 145.621 147.295 152.708C152.63 166.903 155.872 186.322 155.872 207.633H150.238C150.238 186.824 147.063 168.112 142.024 154.704C139.5 147.99 136.563 142.752 133.445 139.244C130.325 135.733 127.259 134.196 124.389 134.196C121.519 134.196 118.453 135.733 115.333 139.244C112.215 142.752 109.279 147.99 106.755 154.704Z" fill="#131313"/>
<path fill-rule="evenodd" clip-rule="evenodd" d="M49.6104 154.704C44.5708 168.112 41.3956 186.824 41.3956 207.633H35.7617C35.7617 186.322 39.0037 166.903 44.3391 152.708C47.003 145.621 50.2432 139.69 53.9844 135.48C57.7235 131.272 62.1986 128.541 67.2448 128.541C72.2909 128.541 76.7661 131.272 80.5052 135.48C84.2463 139.69 87.4866 145.621 90.1504 152.708C95.4859 166.903 98.7278 186.322 98.7278 207.633H93.0939C93.0939 186.824 89.9188 168.112 84.8792 154.704C82.3555 147.99 79.4188 142.752 76.3008 139.244C73.1807 135.733 70.1146 134.196 67.2448 134.196C64.3749 134.196 61.3088 135.733 58.1888 139.244C55.0708 142.752 52.134 147.99 49.6104 154.704Z" fill="#131313"/>
<path d="M23.3568 135.479C27.0979 139.688 30.3381 145.62 33.002 152.707C38.3375 166.902 41.5794 186.321 41.5794 207.631H35.9455C35.9455 186.823 32.7704 168.111 27.7308 154.703C25.2071 147.989 22.2704 142.751 19.1523 139.243L23.3568 135.479Z" fill="#131313"/>
<path d="M106.061 2.60159C108.124 4.33175 109.152 6.71707 109.152 9.75756C109.152 12.7981 108.124 15.1834 106.061 16.9135C103.999 18.6437 101.173 19.5151 97.5784 19.5151H90.7226V27.9878H86.7617V0H97.5847C101.173 0 103.999 0.865075 106.061 2.60159ZM103.204 14.4137C104.529 13.3324 105.185 11.7803 105.185 9.75756C105.185 7.73481 104.523 6.17639 103.204 5.10141C101.886 4.02006 99.9688 3.47939 97.4586 3.47939H90.7226V16.0294H97.4586C99.9688 16.0357 101.886 15.4951 103.204 14.4137Z" fill="#131313"/>
<path d="M114.756 0H118.648V24.5084H133.409V27.9878H114.75V0H114.756Z" fill="#131313"/>
<path d="M160.984 20.9893H146.799L143.863 27.9878H139.938L152.023 0H155.797L167.925 27.9878H163.921L160.984 20.9893ZM159.65 17.789L153.892 4.07188L148.134 17.789H159.65Z" fill="#131313"/>
<path d="M176.657 3.47939H166.992V0H190.315V3.47939H180.65V27.9878H176.664V3.47939H176.657Z" fill="#131313"/>
<path d="M197.62 26.1717C195.347 24.9589 193.56 23.2859 192.264 21.1463C190.968 19.0068 190.316 16.6248 190.316 13.9939C190.316 11.363 190.968 8.97476 192.264 6.84146C193.56 4.70195 195.347 3.02891 197.62 1.81611C199.893 0.603301 202.447 0 205.282 0C208.091 0 210.632 0.603301 212.905 1.81611C215.177 3.02891 216.959 4.69573 218.242 6.82281C219.525 8.94988 220.17 11.3382 220.17 13.9939C220.17 16.6496 219.525 19.0442 218.242 21.165C216.959 23.2921 215.177 24.9589 212.905 26.1717C210.632 27.3845 208.091 27.9878 205.282 27.9878C202.447 27.9878 199.893 27.3845 197.62 26.1717ZM210.842 23.1428C212.49 22.2285 213.786 20.9722 214.737 19.3676C215.688 17.7629 216.161 15.9717 216.161 13.9939C216.161 12.0161 215.682 10.2186 214.737 8.62023C213.786 7.0156 212.49 5.75927 210.842 4.84501C209.195 3.93074 207.344 3.47671 205.282 3.47671C203.219 3.47671 201.355 3.93074 199.682 4.84501C198.01 5.75927 196.701 7.0156 195.75 8.62023C194.798 10.2249 194.326 12.0161 194.326 13.9939C194.326 15.9717 194.798 17.7692 195.75 19.3676C196.701 20.9722 198.01 22.2285 199.682 23.1428C201.355 24.0571 203.219 24.5111 205.282 24.5111C207.344 24.5111 209.195 24.0509 210.842 23.1428Z" fill="#131313"/>
</svg>
