<svg width="302" height="303" viewBox="0 0 302 303" fill="none" xmlns="http://www.w3.org/2000/svg">
<path fill-rule="evenodd" clip-rule="evenodd" d="M148.16 299.51V3.19336H153.844V299.51H148.16Z" fill="#131313"/>
<path fill-rule="evenodd" clip-rule="evenodd" d="M23.875 71.7773H148.54V77.4612H23.875V71.7773Z" fill="#131313"/>
<path fill-rule="evenodd" clip-rule="evenodd" d="M2.65625 148.699H151.193V154.004H2.65625V148.699Z" fill="#131313"/>
<path fill-rule="evenodd" clip-rule="evenodd" d="M21.5977 221.832H152.704V227.516H21.5977V221.832Z" fill="#131313"/>
<path fill-rule="evenodd" clip-rule="evenodd" d="M10.8322 164.02C13.7463 161.066 17.459 158.172 23.7195 158.172C31.1999 158.172 35.0631 162.326 38.1656 165.662C38.2047 165.705 38.2438 165.747 38.2827 165.788C41.4191 169.16 43.8134 171.63 48.7587 171.63C53.7041 171.63 56.0984 169.16 59.2348 165.788C59.2737 165.747 59.3127 165.705 59.3519 165.662C62.4544 162.326 66.3176 158.172 73.798 158.172C81.2834 158.172 85.1481 162.328 88.2518 165.665L88.3663 165.788C91.5035 169.161 93.8959 171.63 98.8373 171.63C103.783 171.63 106.177 169.16 109.313 165.788L109.43 165.662C112.533 162.326 116.396 158.172 123.877 158.172C131.362 158.172 135.227 162.328 138.33 165.665L138.445 165.788C141.582 169.161 143.974 171.63 148.916 171.63V177.118C141.435 177.118 137.572 172.964 134.47 169.627L134.353 169.501C131.216 166.13 128.822 163.66 123.877 163.66C118.935 163.66 116.543 166.129 113.406 169.501L113.291 169.625C110.187 172.962 106.323 177.118 98.8373 177.118C91.3569 177.118 87.4937 172.964 84.3911 169.627L84.2741 169.501C81.1377 166.13 78.7433 163.66 73.798 163.66C68.8566 163.66 66.4642 166.129 63.327 169.501L63.2126 169.625C60.1089 172.962 56.2441 177.118 48.7587 177.118C41.2733 177.118 37.4086 172.962 34.3049 169.625C34.2666 169.583 34.2285 169.542 34.1904 169.501C31.0533 166.129 28.6609 163.66 23.7195 163.66C19.605 163.66 17.2403 165.389 14.8124 167.85C14.2921 168.377 13.7893 168.918 13.2548 169.492C13.1393 169.616 13.0224 169.742 12.9036 169.869C12.2497 170.57 11.549 171.311 10.7999 172.026C9.29453 173.463 7.51243 174.876 5.23059 175.847L3.03125 170.807C4.4664 170.196 5.69449 169.267 6.93785 168.08C7.56307 167.483 8.17135 166.842 8.81673 166.15C8.92471 166.034 9.03424 165.917 9.14515 165.797C9.68129 165.221 10.2499 164.61 10.8322 164.02Z" fill="#131313"/>
<path fill-rule="evenodd" clip-rule="evenodd" d="M12.3448 181.64C15.0866 179.151 18.5554 177.119 23.7466 177.119C31.2254 177.119 35.0877 181.357 38.1896 184.76C38.2287 184.802 38.2677 184.845 38.3066 184.888C41.4423 188.327 43.8362 190.846 48.7804 190.846C53.7247 190.846 56.1185 188.327 59.2542 184.888C59.2931 184.845 59.3321 184.802 59.3713 184.76C62.4731 181.357 66.3354 177.119 73.8142 177.119C81.298 177.119 85.1619 181.358 88.2649 184.762L88.3794 184.888C91.5159 188.328 93.9077 190.846 98.8481 190.846C103.792 190.846 106.186 188.327 109.322 184.888L109.439 184.76C112.541 181.357 116.403 177.119 123.882 177.119C131.366 177.119 135.23 181.358 138.333 184.762L138.447 184.888C141.584 188.328 143.975 190.846 148.916 190.846V196.444C141.437 196.444 137.575 192.207 134.473 188.804L134.356 188.675C131.22 185.236 128.826 182.717 123.882 182.717C118.942 182.717 116.55 185.236 113.413 188.675L113.299 188.801C110.196 192.205 106.332 196.444 98.8481 196.444C91.3693 196.444 87.5069 192.207 84.4051 188.804L84.288 188.675C81.1523 185.236 78.7585 182.717 73.8142 182.717C68.8739 182.717 66.482 185.236 63.3456 188.675C63.3075 188.717 63.2694 188.759 63.2311 188.801C60.1281 192.205 56.2642 196.444 48.7804 196.444C41.2966 196.444 37.4327 192.205 34.3297 188.801C34.2915 188.759 34.2533 188.717 34.2153 188.675C31.0788 185.236 28.6869 182.717 23.7466 182.717C20.2671 182.717 18.0676 183.98 16.0631 185.799C15.1153 186.659 14.2469 187.611 13.2738 188.677C13.1518 188.811 13.0281 188.946 12.9024 189.084C11.815 190.272 10.5923 191.581 9.17094 192.735L5.68359 188.378C6.75355 187.508 7.73257 186.475 8.81738 185.289C8.9373 185.158 9.05898 185.025 9.18239 184.89C10.1336 183.846 11.1883 182.689 12.3448 181.64Z" fill="#131313"/>
<path fill-rule="evenodd" clip-rule="evenodd" d="M10.6094 202.481C13.5457 199.471 17.2823 196.443 23.6861 196.443C31.1684 196.443 35.0327 200.598 38.136 203.934C38.1752 203.976 38.2142 204.018 38.2531 204.06C41.3903 207.431 43.7853 209.901 48.7319 209.901C53.6786 209.901 56.0735 207.431 59.2108 204.06C59.2497 204.018 59.2887 203.976 59.3279 203.934C62.4312 200.598 66.2954 196.443 73.7778 196.443C81.2652 196.443 85.131 200.599 88.2355 203.937L88.35 204.06C91.488 207.432 93.881 209.901 98.8237 209.901C103.77 209.901 106.165 207.431 109.303 204.06L109.42 203.934C112.523 200.598 116.387 196.443 123.87 196.443C131.357 196.443 135.223 200.599 138.327 203.937L138.442 204.06C141.58 207.432 143.973 209.901 148.916 209.901V215.389C141.433 215.389 137.569 211.235 134.466 207.899L134.348 207.773C131.211 204.402 128.816 201.932 123.87 201.932C118.927 201.932 116.534 204.401 113.396 207.773L113.281 207.896C110.177 211.234 106.311 215.389 98.8237 215.389C91.3413 215.389 87.4771 211.235 84.3738 207.899L84.2567 207.773C81.1194 204.402 78.7245 201.932 73.7778 201.932C68.8351 201.932 66.4421 204.401 63.3041 207.773C63.2661 207.814 63.2279 207.855 63.1896 207.896C60.0851 211.234 56.2193 215.389 48.7319 215.389C41.2446 215.389 37.3788 211.234 34.2743 207.896C34.236 207.855 34.1978 207.814 34.1598 207.773C31.0218 204.401 28.6288 201.932 23.6861 201.932C19.4852 201.932 17.1061 203.732 14.6133 206.288L10.6094 202.481Z" fill="#131313"/>
<path fill-rule="evenodd" clip-rule="evenodd" d="M33.7227 244.944V224.482H39.4065V244.944H33.7227Z" fill="#131313"/>
<path fill-rule="evenodd" clip-rule="evenodd" d="M52.293 264.648V224.482H57.9768V264.648H52.293Z" fill="#131313"/>
<path fill-rule="evenodd" clip-rule="evenodd" d="M71.2383 277.91V224.482H76.9221V277.91H71.2383Z" fill="#131313"/>
<path fill-rule="evenodd" clip-rule="evenodd" d="M89.8047 288.141V224.482H95.4885V288.141H89.8047Z" fill="#131313"/>
<path fill-rule="evenodd" clip-rule="evenodd" d="M108.746 294.204V224.482H114.43V294.204H108.746Z" fill="#131313"/>
<path fill-rule="evenodd" clip-rule="evenodd" d="M127.32 299.509V224.482H133.004V299.509H127.32Z" fill="#131313"/>
<path fill-rule="evenodd" clip-rule="evenodd" d="M145.647 17.4904L133.63 5.17259L137.596 1.29883L153.438 17.5374L134.775 36.2115L153.462 54.9091L132.816 75.5673L128.897 71.646L145.624 54.9091L126.938 36.2115L145.647 17.4904Z" fill="#131313"/>
<path fill-rule="evenodd" clip-rule="evenodd" d="M108.112 18.936L101.238 12.0467L105.157 8.11914L115.95 18.936L97.2637 37.6637L115.95 56.3913L95.3042 77.0828L91.3853 73.1552L108.112 56.3913L89.4258 37.6637L108.112 18.936Z" fill="#131313"/>
<path fill-rule="evenodd" clip-rule="evenodd" d="M70.5759 55.6727L53.8047 38.9414L57.734 35.0215L78.4346 55.6727L57.734 76.3239L53.8047 72.4039L70.5759 55.6727Z" fill="#131313"/>
<path fill-rule="evenodd" clip-rule="evenodd" d="M151 5.72039C70.6748 5.72039 5.55828 70.8369 5.55828 151.162C5.55828 231.487 70.6748 296.604 151 296.604C231.325 296.604 296.442 231.487 296.442 151.162C296.442 70.8369 231.325 5.72039 151 5.72039ZM0 151.162C0 67.7671 67.605 0.162109 151 0.162109C234.395 0.162109 302 67.7671 302 151.162C302 234.557 234.395 302.162 151 302.162C67.605 302.162 0 234.557 0 151.162Z" fill="#131313"/>
<path fill-rule="evenodd" clip-rule="evenodd" d="M151 5.72039C70.6748 5.72039 5.55828 70.8369 5.55828 151.162C5.55828 231.487 70.6748 296.604 151 296.604C231.325 296.604 296.442 231.487 296.442 151.162C296.442 70.8369 231.325 5.72039 151 5.72039ZM0 151.162C0 67.7671 67.605 0.162109 151 0.162109C234.395 0.162109 302 67.7671 302 151.162C302 234.557 234.395 302.162 151 302.162C67.605 302.162 0 234.557 0 151.162Z" fill="#131313"/>
<path fill-rule="evenodd" clip-rule="evenodd" d="M105.359 97.5984C100.385 110.831 97.2517 129.299 97.2517 149.835H91.6914C91.6914 128.803 94.891 109.638 100.157 95.6284C102.786 88.6339 105.984 82.7802 109.676 78.6254C113.366 74.4728 117.783 71.7773 122.763 71.7773C127.743 71.7773 132.16 74.4728 135.85 78.6254C139.542 82.7802 142.74 88.6339 145.369 95.6284C150.635 109.638 153.834 128.803 153.834 149.835H148.274C148.274 129.299 145.141 110.831 140.167 97.5984C137.676 90.9721 134.778 85.803 131.701 82.3402C128.621 78.8752 125.595 77.3582 122.763 77.3582C119.931 77.3582 116.905 78.8752 113.825 82.3402C110.748 85.803 107.85 90.9721 105.359 97.5984Z" fill="#131313"/>
<path fill-rule="evenodd" clip-rule="evenodd" d="M48.9606 97.5984C43.9869 110.831 40.8532 129.299 40.8532 149.835H35.293C35.293 128.803 38.4925 109.638 43.7582 95.6284C46.3873 88.6339 49.5852 82.7802 53.2774 78.6254C56.9677 74.4728 61.3843 71.7773 66.3645 71.7773C71.3447 71.7773 75.7613 74.4728 79.4516 78.6254C83.1438 82.7802 86.3417 88.6339 88.9707 95.6284C94.2364 109.638 97.436 128.803 97.436 149.835H91.8757C91.8757 129.299 88.7421 110.831 83.7684 97.5984C81.2777 90.9721 78.3793 85.803 75.3021 82.3402C72.2228 78.8752 69.1968 77.3582 66.3645 77.3582C63.5321 77.3582 60.5061 78.8752 57.4269 82.3402C54.3496 85.803 51.4512 90.9721 48.9606 97.5984Z" fill="#131313"/>
<path d="M23.0518 78.625C26.744 82.7798 29.9419 88.6335 32.571 95.6281C37.8367 109.637 41.0363 128.803 41.0363 149.835H35.476C35.476 129.298 32.3424 110.83 27.3686 97.598C24.878 90.9718 21.9796 85.8027 18.9023 82.3399L23.0518 78.625Z" fill="#131313"/>
<path fill-rule="evenodd" clip-rule="evenodd" d="M278.125 71.7773H153.46V77.4612H278.125V71.7773Z" fill="#131313"/>
<path fill-rule="evenodd" clip-rule="evenodd" d="M299.344 148.699H150.807V154.004H299.344V148.699Z" fill="#131313"/>
<path fill-rule="evenodd" clip-rule="evenodd" d="M280.402 221.832H149.296V227.516H280.402V221.832Z" fill="#131313"/>
<path fill-rule="evenodd" clip-rule="evenodd" d="M291.168 164.02C288.254 161.066 284.541 158.172 278.281 158.172C270.8 158.172 266.937 162.326 263.834 165.662C263.795 165.705 263.756 165.747 263.717 165.788C260.581 169.16 258.187 171.63 253.241 171.63C248.296 171.63 245.902 169.16 242.765 165.788C242.726 165.747 242.687 165.705 242.648 165.662C239.546 162.326 235.682 158.172 228.202 158.172C220.717 158.172 216.852 162.328 213.748 165.665L213.634 165.788C210.497 169.161 208.104 171.63 203.163 171.63C198.217 171.63 195.823 169.16 192.687 165.788L192.57 165.662C189.467 162.326 185.604 158.172 178.123 158.172C170.638 158.172 166.773 162.328 163.67 165.665L163.555 165.788C160.418 169.161 158.026 171.63 153.084 171.63V177.118C160.565 177.118 164.428 172.964 167.53 169.627L167.647 169.501C170.784 166.13 173.178 163.66 178.123 163.66C183.065 163.66 185.457 166.129 188.594 169.501L188.709 169.625C191.813 172.962 195.677 177.118 203.163 177.118C210.643 177.118 214.506 172.964 217.609 169.627L217.726 169.501C220.862 166.13 223.257 163.66 228.202 163.66C233.143 163.66 235.536 166.129 238.673 169.501L238.787 169.625C241.891 172.962 245.756 177.118 253.241 177.118C260.727 177.118 264.591 172.962 267.695 169.625C267.733 169.583 267.772 169.542 267.81 169.501C270.947 166.129 273.339 163.66 278.281 163.66C282.395 163.66 284.76 165.389 287.188 167.85C287.708 168.377 288.211 168.918 288.745 169.492C288.861 169.616 288.978 169.742 289.096 169.869C289.75 170.57 290.451 171.311 291.2 172.026C292.705 173.463 294.488 174.876 296.769 175.847L298.969 170.807C297.534 170.196 296.306 169.267 295.062 168.08C294.437 167.483 293.829 166.842 293.183 166.15C293.075 166.034 292.966 165.917 292.855 165.797C292.319 165.221 291.75 164.61 291.168 164.02Z" fill="#131313"/>
<path fill-rule="evenodd" clip-rule="evenodd" d="M289.655 181.64C286.913 179.151 283.445 177.119 278.253 177.119C270.775 177.119 266.912 181.357 263.81 184.76C263.771 184.802 263.732 184.845 263.693 184.888C260.558 188.327 258.164 190.846 253.22 190.846C248.275 190.846 245.882 188.327 242.746 184.888C242.707 184.845 242.668 184.802 242.629 184.76C239.527 181.357 235.665 177.119 228.186 177.119C220.702 177.119 216.838 181.358 213.735 184.762L213.621 184.888C210.484 188.328 208.092 190.846 203.152 190.846C198.208 190.846 195.814 188.327 192.678 184.888L192.561 184.76C189.459 181.357 185.597 177.119 178.118 177.119C170.634 177.119 166.77 181.358 163.667 184.762L163.553 184.888C160.416 188.328 158.025 190.846 153.084 190.846V196.444C160.563 196.444 164.425 192.207 167.527 188.804L167.644 188.675C170.78 185.236 173.174 182.717 178.118 182.717C183.058 182.717 185.45 185.236 188.587 188.675L188.701 188.801C191.804 192.205 195.668 196.444 203.152 196.444C210.631 196.444 214.493 192.207 217.595 188.804L217.712 188.675C220.848 185.236 223.242 182.717 228.186 182.717C233.126 182.717 235.518 185.236 238.654 188.675C238.692 188.717 238.731 188.759 238.769 188.801C241.872 192.205 245.736 196.444 253.22 196.444C260.703 196.444 264.567 192.205 267.67 188.801C267.709 188.759 267.747 188.717 267.785 188.675C270.921 185.236 273.313 182.717 278.253 182.717C281.733 182.717 283.932 183.98 285.937 185.799C286.885 186.659 287.753 187.611 288.726 188.677C288.848 188.811 288.972 188.946 289.098 189.084C290.185 190.272 291.408 191.581 292.829 192.735L296.316 188.378C295.246 187.508 294.267 186.475 293.183 185.289C293.063 185.158 292.941 185.025 292.818 184.89C291.866 183.846 290.812 182.689 289.655 181.64Z" fill="#131313"/>
<path fill-rule="evenodd" clip-rule="evenodd" d="M291.391 202.481C288.454 199.471 284.718 196.443 278.314 196.443C270.832 196.443 266.967 200.598 263.864 203.934C263.825 203.976 263.786 204.018 263.747 204.06C260.61 207.431 258.215 209.901 253.268 209.901C248.321 209.901 245.926 207.431 242.789 204.06C242.75 204.018 242.711 203.976 242.672 203.934C239.569 200.598 235.705 196.443 228.222 196.443C220.735 196.443 216.869 200.599 213.764 203.937L213.65 204.06C210.512 207.432 208.119 209.901 203.176 209.901C198.23 209.901 195.835 207.431 192.697 204.06L192.58 203.934C189.477 200.598 185.613 196.443 178.13 196.443C170.643 196.443 166.777 200.599 163.673 203.937L163.558 204.06C160.42 207.432 158.027 209.901 153.084 209.901V215.389C160.567 215.389 164.431 211.235 167.534 207.899L167.652 207.773C170.789 204.402 173.184 201.932 178.13 201.932C183.073 201.932 185.466 204.401 188.604 207.773L188.719 207.896C191.823 211.234 195.689 215.389 203.176 215.389C210.659 215.389 214.523 211.235 217.626 207.899L217.743 207.773C220.881 204.402 223.276 201.932 228.222 201.932C233.165 201.932 235.558 204.401 238.696 207.773C238.734 207.814 238.772 207.855 238.81 207.896C241.915 211.234 245.781 215.389 253.268 215.389C260.755 215.389 264.621 211.234 267.726 207.896C267.764 207.855 267.802 207.814 267.84 207.773C270.978 204.401 273.371 201.932 278.314 201.932C282.515 201.932 284.894 203.732 287.387 206.288L291.391 202.481Z" fill="#131313"/>
<path fill-rule="evenodd" clip-rule="evenodd" d="M268.277 244.944V224.482H262.594V244.944H268.277Z" fill="#131313"/>
<path fill-rule="evenodd" clip-rule="evenodd" d="M249.707 264.648V224.482H244.023V264.648H249.707Z" fill="#131313"/>
<path fill-rule="evenodd" clip-rule="evenodd" d="M230.762 277.91V224.482H225.078V277.91H230.762Z" fill="#131313"/>
<path fill-rule="evenodd" clip-rule="evenodd" d="M212.195 288.141V224.482H206.511V288.141H212.195Z" fill="#131313"/>
<path fill-rule="evenodd" clip-rule="evenodd" d="M193.254 294.204V224.482H187.57V294.204H193.254Z" fill="#131313"/>
<path fill-rule="evenodd" clip-rule="evenodd" d="M174.68 299.509V224.482H168.996V299.509H174.68Z" fill="#131313"/>
<path fill-rule="evenodd" clip-rule="evenodd" d="M156.353 17.4904L168.37 5.17259L164.404 1.29883L148.562 17.5374L167.225 36.2115L148.538 54.9091L169.184 75.5673L173.103 71.646L156.376 54.9091L175.062 36.2115L156.353 17.4904Z" fill="#131313"/>
<path fill-rule="evenodd" clip-rule="evenodd" d="M193.888 18.936L200.762 12.0467L196.843 8.11914L186.05 18.936L204.736 37.6637L186.05 56.3913L206.696 77.0828L210.615 73.1552L193.888 56.3913L212.574 37.6637L193.888 18.936Z" fill="#131313"/>
<path fill-rule="evenodd" clip-rule="evenodd" d="M231.424 55.6727L248.195 38.9414L244.266 35.0215L223.565 55.6727L244.266 76.3239L248.195 72.4039L231.424 55.6727Z" fill="#131313"/>
<path fill-rule="evenodd" clip-rule="evenodd" d="M151 5.72039C231.325 5.72039 296.442 70.8369 296.442 151.162C296.442 231.487 231.325 296.604 151 296.604C70.6747 296.604 5.55829 231.487 5.55829 151.162C5.55829 70.8369 70.6747 5.72039 151 5.72039ZM302 151.162C302 67.7671 234.395 0.162109 151 0.162109C67.605 0.162109 0 67.7671 0 151.162C0 234.557 67.605 302.162 151 302.162C234.395 302.162 302 234.557 302 151.162Z" fill="#131313"/>
<path fill-rule="evenodd" clip-rule="evenodd" d="M151 5.72039C231.325 5.72039 296.442 70.8369 296.442 151.162C296.442 231.487 231.325 296.604 151 296.604C70.6747 296.604 5.55829 231.487 5.55829 151.162C5.55829 70.8369 70.6747 5.72039 151 5.72039ZM302 151.162C302 67.7671 234.395 0.162109 151 0.162109C67.605 0.162109 0 67.7671 0 151.162C0 234.557 67.605 302.162 151 302.162C234.395 302.162 302 234.557 302 151.162Z" fill="#131313"/>
<path fill-rule="evenodd" clip-rule="evenodd" d="M196.641 97.5984C201.615 110.831 204.748 129.299 204.748 149.835H210.309C210.309 128.803 207.109 109.638 201.843 95.6284C199.214 88.6339 196.016 82.7802 192.324 78.6254C188.634 74.4728 184.217 71.7773 179.237 71.7773C174.257 71.7773 169.84 74.4728 166.15 78.6254C162.458 82.7802 159.26 88.6339 156.631 95.6284C151.365 109.638 148.166 128.803 148.166 149.835H153.726C153.726 129.299 156.859 110.831 161.833 97.5984C164.324 90.9721 167.222 85.803 170.299 82.3402C173.379 78.8752 176.405 77.3582 179.237 77.3582C182.069 77.3582 185.095 78.8752 188.175 82.3402C191.252 85.803 194.15 90.9721 196.641 97.5984Z" fill="#131313"/>
<path fill-rule="evenodd" clip-rule="evenodd" d="M253.039 97.5984C258.013 110.831 261.147 129.299 261.147 149.835H266.707C266.707 128.803 263.507 109.638 258.242 95.6284C255.613 88.6339 252.415 82.7802 248.723 78.6254C245.032 74.4728 240.616 71.7773 235.636 71.7773C230.655 71.7773 226.239 74.4728 222.548 78.6254C218.856 82.7802 215.658 88.6339 213.029 95.6284C207.764 109.638 204.564 128.803 204.564 149.835H210.124C210.124 129.299 213.258 110.831 218.232 97.5984C220.722 90.9721 223.621 85.803 226.698 82.3402C229.777 78.8752 232.803 77.3582 235.636 77.3582C238.468 77.3582 241.494 78.8752 244.573 82.3402C247.65 85.803 250.549 90.9721 253.039 97.5984Z" fill="#131313"/>
<path d="M278.948 78.625C275.256 82.7798 272.058 88.6335 269.429 95.6281C264.163 109.637 260.964 128.803 260.964 149.835H266.524C266.524 129.298 269.658 110.83 274.631 97.598C277.122 90.9718 280.02 85.8027 283.098 82.3399L278.948 78.625Z" fill="#131313"/>
</svg>
