<svg width="328" height="175" viewBox="0 0 328 175" fill="none" xmlns="http://www.w3.org/2000/svg">
<path fill-rule="evenodd" clip-rule="evenodd" d="M240.496 87.1145C240.496 64.1275 205.086 45.4577 161.324 45.4577V42.25C208.338 42.25 246.514 62.3181 246.514 87.1145C246.514 111.911 208.338 131.979 161.324 131.979V128.771C205.086 128.771 240.496 110.101 240.496 87.1145Z" fill="#131313"/>
<path fill-rule="evenodd" clip-rule="evenodd" d="M160.914 173.46V2.73438H167.087V173.46H160.914Z" fill="#131313"/>
<path fill-rule="evenodd" clip-rule="evenodd" d="M25.9297 42.25H161.327V45.5248H25.9297V42.25Z" fill="#131313"/>
<path fill-rule="evenodd" clip-rule="evenodd" d="M2.88281 86.5684H164.208V89.6248H2.88281V86.5684Z" fill="#131313"/>
<path fill-rule="evenodd" clip-rule="evenodd" d="M23.457 128.705H165.851V131.98H23.457V128.705Z" fill="#131313"/>
<path fill-rule="evenodd" clip-rule="evenodd" d="M11.7656 95.3967C14.9306 93.695 18.9629 92.0273 25.7623 92.0273C33.8867 92.0273 38.0825 94.4209 41.4521 96.3431C41.4946 96.3674 41.537 96.3915 41.5793 96.4156C44.9857 98.3581 47.5862 99.7812 52.9573 99.7812C58.3283 99.7812 60.9288 98.3581 64.3352 96.4156C64.3775 96.3915 64.4199 96.3674 64.4624 96.3431C67.832 94.4209 72.0278 92.0273 80.1522 92.0273C88.2821 92.0273 92.4795 94.4218 95.8504 96.3447L95.9748 96.4156C99.382 98.3586 101.98 99.7812 107.347 99.7812C112.718 99.7812 115.319 98.3581 118.725 96.4156L118.852 96.3431C122.222 94.4209 126.418 92.0273 134.542 92.0273C142.672 92.0273 146.869 94.4218 150.24 96.3447L150.365 96.4156C153.772 98.3586 156.37 99.7812 161.737 99.7812V102.943C153.613 102.943 149.417 100.55 146.047 98.6275L145.92 98.555C142.514 96.6125 139.913 95.1895 134.542 95.1895C129.175 95.1895 126.577 96.612 123.17 98.555L123.045 98.6259C119.674 100.549 115.477 102.943 107.347 102.943C99.2228 102.943 95.027 100.55 91.6574 98.6275L91.5302 98.555C88.1238 96.6125 85.5233 95.1895 80.1522 95.1895C74.7854 95.1895 72.187 96.612 68.7798 98.555L68.6555 98.6259C65.2846 100.549 61.0871 102.943 52.9573 102.943C44.8274 102.943 40.63 100.549 37.2591 98.6259C37.2175 98.6022 37.176 98.5786 37.1347 98.555C33.7275 96.612 31.1291 95.1895 25.7623 95.1895C21.2936 95.1895 18.7254 96.1857 16.0884 97.6035C15.5233 97.9073 14.9772 98.2186 14.3966 98.5496C14.2713 98.621 14.1443 98.6934 14.0152 98.7668C13.3051 99.1706 12.544 99.5976 11.7304 100.01C10.0955 100.837 8.15994 101.651 5.68166 102.211L3.29297 99.3071C4.85167 98.9552 6.18549 98.4196 7.5359 97.7359C8.21495 97.392 8.8756 97.0227 9.57654 96.6241C9.69381 96.5574 9.81277 96.4896 9.93324 96.4209C10.5155 96.0889 11.133 95.7368 11.7656 95.3967Z" fill="#131313"/>
<path fill-rule="evenodd" clip-rule="evenodd" d="M13.4065 105.548C16.3844 104.114 20.1518 102.943 25.7899 102.943C33.9126 102.943 38.1075 105.385 41.4764 107.345C41.5189 107.37 41.5613 107.395 41.6035 107.419C45.0092 109.401 47.6091 110.852 52.979 110.852C58.3489 110.852 60.9488 109.401 64.3545 107.419C64.3968 107.395 64.4391 107.37 64.4817 107.345C67.8505 105.385 72.0454 102.943 80.1681 102.943C88.2962 102.943 92.4927 105.386 95.8629 107.347L95.9872 107.419C99.3937 109.401 101.991 110.852 107.357 110.852C112.727 110.852 115.327 109.401 118.733 107.419L118.86 107.345C122.229 105.385 126.424 102.943 134.546 102.943C142.674 102.943 146.871 105.386 150.241 107.347L150.365 107.419C153.772 109.401 156.37 110.852 161.735 110.852V114.078C153.613 114.078 149.418 111.636 146.049 109.676L145.922 109.602C142.516 107.62 139.916 106.169 134.546 106.169C129.181 106.169 126.583 107.62 123.176 109.602L123.052 109.674C119.682 111.635 115.485 114.078 107.357 114.078C99.2345 114.078 95.0396 111.636 91.6707 109.676L91.5436 109.602C88.1379 107.62 85.538 106.169 80.1681 106.169C74.8024 106.169 72.2046 107.62 68.7981 109.602C68.7568 109.626 68.7154 109.65 68.6738 109.674C65.3036 111.635 61.1071 114.078 52.979 114.078C44.8509 114.078 40.6544 111.635 37.2842 109.674C37.2427 109.65 37.2012 109.626 37.1599 109.602C33.7534 107.62 31.1556 106.169 25.7899 106.169C22.0109 106.169 19.622 106.896 17.4449 107.944C16.4156 108.44 15.4724 108.988 14.4156 109.603C14.283 109.68 14.1487 109.758 14.0122 109.837C12.8312 110.522 11.5032 111.276 9.95946 111.941L6.17188 109.43C7.33395 108.929 8.39725 108.334 9.57546 107.651C9.70571 107.575 9.83785 107.498 9.97189 107.42C11.005 106.819 12.1505 106.153 13.4065 105.548Z" fill="#131313"/>
<path fill-rule="evenodd" clip-rule="evenodd" d="M11.5234 117.557C14.7126 115.822 18.7709 114.078 25.7259 114.078C33.8525 114.078 38.0494 116.472 41.4199 118.394C41.4624 118.418 41.5048 118.442 41.5471 118.466C44.9544 120.409 47.5556 121.832 52.9281 121.832C58.3006 121.832 60.9017 120.409 64.3091 118.466C64.3513 118.442 64.3937 118.418 64.4363 118.394C67.8068 116.472 72.0037 114.078 80.1302 114.078C88.2623 114.078 92.4608 116.473 95.8326 118.395L95.957 118.466C99.3651 120.409 101.964 121.832 107.332 121.832C112.705 121.832 115.306 120.409 118.713 118.466L118.841 118.394C122.211 116.472 126.408 114.078 134.535 114.078C142.667 114.078 146.865 116.473 150.237 118.395L150.361 118.466C153.769 120.409 156.368 121.832 161.737 121.832V124.994C153.61 124.994 149.413 122.601 146.043 120.678L145.916 120.606C142.508 118.663 139.907 117.24 134.535 117.24C129.166 117.24 126.567 118.663 123.159 120.606L123.035 120.677C119.663 122.6 115.464 124.994 107.332 124.994C99.2058 124.994 95.0089 122.601 91.6384 120.678L91.5112 120.606C88.1039 118.663 85.5028 117.24 80.1302 117.24C74.762 117.24 72.1629 118.663 68.7548 120.606C68.7135 120.629 68.672 120.653 68.6304 120.677C65.2586 122.6 61.0601 124.994 52.9281 124.994C44.7961 124.994 40.5975 122.6 37.2257 120.677C37.1841 120.653 37.1427 120.629 37.1014 120.606C33.6932 118.663 31.0942 117.24 25.7259 117.24C21.1635 117.24 18.5795 118.278 15.8721 119.75L11.5234 117.557Z" fill="#131313"/>
<path fill-rule="evenodd" clip-rule="evenodd" d="M36.625 142.022V130.232H42.7982V142.022H36.625Z" fill="#131313"/>
<path fill-rule="evenodd" clip-rule="evenodd" d="M56.793 153.374V130.232H62.9661V153.374H56.793Z" fill="#131313"/>
<path fill-rule="evenodd" clip-rule="evenodd" d="M77.3711 161.015V130.232H83.5442V161.015H77.3711Z" fill="#131313"/>
<path fill-rule="evenodd" clip-rule="evenodd" d="M97.5352 166.91V130.232H103.708V166.91H97.5352Z" fill="#131313"/>
<path fill-rule="evenodd" clip-rule="evenodd" d="M118.109 170.403V130.232H124.283V170.403H118.109Z" fill="#131313"/>
<path fill-rule="evenodd" clip-rule="evenodd" d="M138.281 173.46V130.232H144.454V173.46H138.281Z" fill="#131313"/>
<path fill-rule="evenodd" clip-rule="evenodd" d="M158.188 10.9715L145.136 3.87448L149.443 1.64258L166.65 10.9986L146.38 21.7578L166.675 32.5306L144.252 44.433L139.995 42.1738L158.162 32.5306L137.867 21.7578L158.188 10.9715Z" fill="#131313"/>
<path fill-rule="evenodd" clip-rule="evenodd" d="M117.42 11.8045L109.954 7.83518L114.211 5.57227L125.933 11.8045L105.638 22.5946L125.933 33.3847L103.51 45.3063L99.2532 43.0434L117.42 33.3847L97.125 22.5946L117.42 11.8045Z" fill="#131313"/>
<path fill-rule="evenodd" clip-rule="evenodd" d="M76.6526 32.9726L58.4375 23.3327L62.7051 21.0742L85.1878 32.9726L62.7051 44.871L58.4375 42.6124L76.6526 32.9726Z" fill="#131313"/>
<path fill-rule="evenodd" clip-rule="evenodd" d="M164 4.19074C76.7593 4.19074 6.03681 41.7082 6.03681 87.9883C6.03681 134.268 76.7593 171.786 164 171.786C251.241 171.786 321.963 134.268 321.963 87.9883C321.963 41.7082 251.241 4.19074 164 4.19074ZM0 87.9883C0 39.9395 73.4253 0.988281 164 0.988281C254.575 0.988281 328 39.9395 328 87.9883C328 136.037 254.575 174.988 164 174.988C73.4253 174.988 0 136.037 0 87.9883Z" fill="#131313"/>
<path fill-rule="evenodd" clip-rule="evenodd" d="M164 4.19074C76.7593 4.19074 6.03681 41.7082 6.03681 87.9883C6.03681 134.268 76.7593 171.786 164 171.786C251.241 171.786 321.963 134.268 321.963 87.9883C321.963 41.7082 251.241 4.19074 164 4.19074ZM0 87.9883C0 39.9395 73.4253 0.988281 164 0.988281C254.575 0.988281 328 39.9395 328 87.9883C328 136.037 254.575 174.988 164 174.988C73.4253 174.988 0 136.037 0 87.9883Z" fill="#131313"/>
<path fill-rule="evenodd" clip-rule="evenodd" d="M114.43 57.127C109.028 64.751 105.625 75.3914 105.625 87.2237H99.5859C99.5859 75.1061 103.061 64.0635 108.78 55.992C111.635 51.962 115.109 48.5894 119.119 46.1955C123.127 43.803 127.924 42.25 133.332 42.25C138.741 42.25 143.538 43.803 147.546 46.1955C151.556 48.5894 155.03 51.962 157.885 55.992C163.604 64.0635 167.079 75.1061 167.079 87.2237H161.04C161.04 75.3914 157.637 64.751 152.235 57.127C149.53 53.3092 146.382 50.331 143.04 48.3359C139.695 46.3395 136.409 45.4655 133.332 45.4655C130.256 45.4655 126.97 46.3395 123.625 48.3359C120.283 50.331 117.135 53.3092 114.43 57.127Z" fill="#131313"/>
<path fill-rule="evenodd" clip-rule="evenodd" d="M53.1763 57.127C47.7744 64.751 44.371 75.3914 44.371 87.2237H38.332C38.332 75.1061 41.8071 64.0635 47.5261 55.992C50.3815 51.962 53.8547 48.5894 57.8648 46.1955C61.8728 43.803 66.6697 42.25 72.0786 42.25C77.4875 42.25 82.2844 43.803 86.2924 46.1955C90.3025 48.5894 93.7757 51.962 96.6311 55.992C102.35 64.0635 105.825 75.1061 105.825 87.2237H99.7862C99.7862 75.3914 96.3828 64.751 90.9808 57.127C88.2757 53.3092 85.1278 50.331 81.7856 48.3359C78.4413 46.3395 75.1548 45.4655 72.0786 45.4655C69.0024 45.4655 65.7159 46.3395 62.3715 48.3359C59.0293 50.331 55.8814 53.3092 53.1763 57.127Z" fill="#131313"/>
<path d="M25.038 46.1953C29.0481 48.5891 32.5213 51.9618 35.3767 55.9918C41.0957 64.0633 44.5707 75.1058 44.5707 87.2234H38.5318C38.5318 75.3912 35.1284 64.7508 29.7264 57.1268C27.0214 53.309 23.8734 50.3308 20.5312 48.3357L25.038 46.1953Z" fill="#131313"/>
</svg>
