<svg width="305" height="305" viewBox="0 0 305 305" fill="none" xmlns="http://www.w3.org/2000/svg">
<path fill-rule="evenodd" clip-rule="evenodd" d="M222.698 150.989C222.698 111.224 190.203 78.9278 150.043 78.9278V73.3789C193.187 73.3789 228.22 108.094 228.22 150.989C228.22 193.884 193.187 228.6 150.043 228.6V223.051C190.203 223.051 222.698 190.754 222.698 150.989Z" fill="#131313" stroke="#131313" stroke-width="2.5" stroke-miterlimit="10"/>
<path fill-rule="evenodd" clip-rule="evenodd" d="M149.668 300.356V5.02148H155.333V300.356H149.668Z" fill="#131313" stroke="#131313" stroke-width="2.5" stroke-miterlimit="10"/>
<path fill-rule="evenodd" clip-rule="evenodd" d="M25.793 73.3789H150.045V79.0439H25.793V73.3789Z" fill="#131313" stroke="#131313" stroke-width="2.5" stroke-miterlimit="10"/>
<path fill-rule="evenodd" clip-rule="evenodd" d="M4.64062 150.045H152.686V155.332H4.64062V150.045Z" fill="#131313" stroke="#131313" stroke-width="2.5" stroke-miterlimit="10"/>
<path fill-rule="evenodd" clip-rule="evenodd" d="M23.5273 222.934H154.2V228.599H23.5273V222.934Z" fill="#131313" stroke="#131313" stroke-width="2.5" stroke-miterlimit="10"/>
<path fill-rule="evenodd" clip-rule="evenodd" d="M12.7947 165.315C15.6991 162.371 19.3995 159.486 25.6392 159.486C33.0949 159.486 36.9453 163.627 40.0375 166.952C40.0765 166.994 40.1154 167.036 40.1542 167.078C43.2802 170.438 45.6667 172.9 50.5956 172.9C55.5246 172.9 57.911 170.438 61.037 167.078C61.0758 167.036 61.1147 166.994 61.1537 166.952C64.2459 163.627 68.0963 159.486 75.552 159.486C83.0126 159.486 86.8645 163.628 89.9579 166.955L90.072 167.078C93.1988 170.439 95.5833 172.9 100.508 172.9C105.437 172.9 107.824 170.438 110.95 167.078L111.066 166.952C114.159 163.627 118.009 159.486 125.465 159.486C132.925 159.486 136.777 163.628 139.871 166.955L139.985 167.078C143.111 170.439 145.496 172.9 150.421 172.9V178.37C142.965 178.37 139.115 174.229 136.023 170.904L135.906 170.778C132.78 167.418 130.394 164.956 125.465 164.956C120.54 164.956 118.155 167.417 115.028 170.778L114.914 170.901C111.821 174.228 107.969 178.37 100.508 178.37C93.0527 178.37 89.2023 174.229 86.11 170.904L85.9933 170.778C82.8673 167.418 80.4809 164.956 75.552 164.956C70.6269 164.956 68.2424 167.417 65.1157 170.778L65.0016 170.901C61.9081 174.228 58.0562 178.37 50.5956 178.37C43.135 178.37 39.2831 174.228 36.1896 170.901C36.1515 170.86 36.1134 170.819 36.0755 170.778C32.9488 167.417 30.5643 164.956 25.6392 164.956C21.5384 164.956 19.1816 166.68 16.7617 169.132C16.2431 169.658 15.7419 170.197 15.2092 170.769C15.0942 170.893 14.9776 171.018 14.8592 171.145C14.2074 171.843 13.5091 172.582 12.7624 173.295C11.2621 174.727 9.48587 176.135 7.21159 177.103L5.01953 172.079C6.44993 171.471 7.67395 170.544 8.91319 169.361C9.53635 168.767 10.1426 168.128 10.7859 167.438C10.8935 167.323 11.0026 167.206 11.1132 167.087C11.6475 166.512 12.2142 165.903 12.7947 165.315Z" fill="#131313" stroke="#131313" stroke-width="2.5" stroke-miterlimit="10"/>
<path fill-rule="evenodd" clip-rule="evenodd" d="M14.3032 182.877C17.0359 180.397 20.4932 178.371 25.6672 178.371C33.1213 178.371 36.9708 182.594 40.0624 185.986C40.1014 186.029 40.1403 186.072 40.1791 186.114C43.3044 189.542 45.6903 192.053 50.6182 192.053C55.5461 192.053 57.9319 189.542 61.0573 186.114C61.096 186.072 61.1349 186.029 61.1739 185.986C64.2655 182.594 68.1151 178.371 75.5691 178.371C83.0281 178.371 86.8792 182.596 89.972 185.989L90.086 186.114C93.2121 189.542 95.596 192.053 100.52 192.053C105.448 192.053 107.834 189.542 110.959 186.114L111.076 185.986C114.167 182.594 118.017 178.371 125.471 178.371C132.93 178.371 136.781 182.596 139.874 185.989L139.988 186.114C143.114 189.542 145.498 192.053 150.422 192.053V197.632C142.968 197.632 139.118 193.409 136.027 190.017L135.91 189.889C132.785 186.462 130.399 183.951 125.471 183.951C120.547 183.951 118.163 186.461 115.037 189.889L114.923 190.014C111.83 193.407 107.979 197.632 100.52 197.632C93.066 197.632 89.2164 193.409 86.1249 190.017L86.0082 189.889C82.8829 186.462 80.497 183.951 75.5691 183.951C70.6451 183.951 68.2612 186.461 65.1351 189.889C65.0972 189.931 65.0592 189.972 65.021 190.014C61.9283 193.407 58.0772 197.632 50.6182 197.632C43.1592 197.632 39.3081 193.407 36.2153 190.014C36.1772 189.972 36.1392 189.931 36.1012 189.889C32.9752 186.461 30.5912 183.951 25.6672 183.951C22.1993 183.951 20.007 185.209 18.0092 187.022C17.0645 187.88 16.199 188.828 15.2292 189.891C15.1075 190.024 14.9843 190.159 14.859 190.296C13.7752 191.481 12.5565 192.785 11.1399 193.936L7.66406 189.592C8.73048 188.726 9.70625 187.696 10.7875 186.514C10.907 186.384 11.0283 186.251 11.1513 186.116C12.0993 185.076 13.1505 183.923 14.3032 182.877Z" fill="#131313" stroke="#131313" stroke-width="2.5" stroke-miterlimit="10"/>
<path fill-rule="evenodd" clip-rule="evenodd" d="M12.5742 203.651C15.5008 200.65 19.2251 197.633 25.6076 197.633C33.0652 197.633 36.9166 201.773 40.0097 205.099C40.0487 205.141 40.0876 205.182 40.1264 205.224C43.2533 208.584 45.6403 211.046 50.5706 211.046C55.5008 211.046 57.8878 208.584 61.0147 205.224C61.0535 205.182 61.0924 205.141 61.1314 205.099C64.2245 201.773 68.0759 197.633 75.5335 197.633C82.9961 197.633 86.8491 201.775 89.9433 205.101L90.0574 205.224C93.185 208.585 95.5701 211.046 100.496 211.046C105.427 211.046 107.814 208.584 110.941 205.224L111.057 205.099C114.15 201.773 118.002 197.633 125.459 197.633C132.922 197.633 136.775 201.775 139.869 205.101L139.983 205.224C143.111 208.585 145.496 211.046 150.422 211.046V216.516C142.965 216.516 139.113 212.376 136.02 209.05L135.904 208.925C132.777 205.565 130.39 203.103 125.459 203.103C120.533 203.103 118.148 205.564 115.02 208.925L114.906 209.048C111.812 212.374 107.959 216.516 100.496 216.516C93.0389 216.516 89.1874 212.376 86.0944 209.05L85.9777 208.925C82.8508 205.565 80.4638 203.103 75.5335 203.103C70.6072 203.103 68.2221 205.564 65.0945 208.925C65.0565 208.966 65.0185 209.007 64.9803 209.048C61.8861 212.374 58.0331 216.516 50.5706 216.516C43.108 216.516 39.255 212.374 36.1608 209.048C36.1226 209.007 36.0846 208.966 36.0466 208.925C32.9191 205.564 30.534 203.103 25.6076 203.103C21.4207 203.103 19.0494 204.898 16.5649 207.445L12.5742 203.651Z" fill="#131313" stroke="#131313" stroke-width="2.5" stroke-miterlimit="10"/>
<path fill-rule="evenodd" clip-rule="evenodd" d="M35.6133 245.972V225.578H41.2783V245.972H35.6133Z" fill="#131313" stroke="#131313" stroke-width="2.5" stroke-miterlimit="10"/>
<path fill-rule="evenodd" clip-rule="evenodd" d="M54.1172 265.611V225.578H59.7822V265.611H54.1172Z" fill="#131313" stroke="#131313" stroke-width="2.5" stroke-miterlimit="10"/>
<path fill-rule="evenodd" clip-rule="evenodd" d="M73.0039 278.829V225.578H78.6689V278.829H73.0039Z" fill="#131313" stroke="#131313" stroke-width="2.5" stroke-miterlimit="10"/>
<path fill-rule="evenodd" clip-rule="evenodd" d="M91.5078 289.026V225.578H97.1728V289.026H91.5078Z" fill="#131313" stroke="#131313" stroke-width="2.5" stroke-miterlimit="10"/>
<path fill-rule="evenodd" clip-rule="evenodd" d="M110.391 295.069V225.578H116.056V295.069H110.391Z" fill="#131313" stroke="#131313" stroke-width="2.5" stroke-miterlimit="10"/>
<path fill-rule="evenodd" clip-rule="evenodd" d="M128.895 300.356V225.578H134.56V300.356H128.895Z" fill="#131313" stroke="#131313" stroke-width="2.5" stroke-miterlimit="10"/>
<path fill-rule="evenodd" clip-rule="evenodd" d="M147.168 19.2708L135.19 6.99375L139.143 3.13281L154.933 19.3176L136.332 37.9299L154.956 56.5656L134.379 77.1554L130.473 73.2471L147.144 56.5655L128.52 37.9299L147.168 19.2708Z" fill="#131313" stroke="#131313" stroke-width="2.5" stroke-miterlimit="10"/>
<path fill-rule="evenodd" clip-rule="evenodd" d="M109.754 20.7127L102.902 13.8462L106.808 9.93164L117.566 20.7127L98.9409 39.3783L117.566 58.044L96.9879 78.6669L93.0819 74.7523L109.754 58.044L91.1289 39.3783L109.754 20.7127Z" fill="#131313" stroke="#131313" stroke-width="2.5" stroke-miterlimit="10"/>
<path fill-rule="evenodd" clip-rule="evenodd" d="M72.3446 57.327L55.6289 40.6511L59.5452 36.7441L80.1772 57.327L59.5452 77.9098L55.6289 74.0028L72.3446 57.327Z" fill="#131313" stroke="#131313" stroke-width="2.5" stroke-miterlimit="10"/>
<path fill-rule="evenodd" clip-rule="evenodd" d="M152.5 7.53988C72.4407 7.53988 7.53988 72.4407 7.53988 152.5C7.53988 232.559 72.4407 297.46 152.5 297.46C232.559 297.46 297.46 232.559 297.46 152.5C297.46 72.4407 232.559 7.53988 152.5 7.53988ZM2 152.5C2 69.3811 69.3811 2 152.5 2C235.619 2 303 69.3811 303 152.5C303 235.619 235.619 303 152.5 303C69.3811 303 2 235.619 2 152.5Z" fill="#131313" stroke="#131313" stroke-width="2.5" stroke-miterlimit="10"/>
<path fill-rule="evenodd" clip-rule="evenodd" d="M152.5 7.53988C72.4407 7.53988 7.53988 72.4407 7.53988 152.5C7.53988 232.559 72.4407 297.46 152.5 297.46C232.559 297.46 297.46 232.559 297.46 152.5C297.46 72.4407 232.559 7.53988 152.5 7.53988ZM2 152.5C2 69.3811 69.3811 2 152.5 2C235.619 2 303 69.3811 303 152.5C303 235.619 235.619 303 152.5 303C69.3811 303 2 235.619 2 152.5Z" fill="#131313" stroke="#131313" stroke-width="2.5" stroke-miterlimit="10"/>
<path fill-rule="evenodd" clip-rule="evenodd" d="M107.009 99.1144C102.052 112.303 98.9286 130.71 98.9286 151.178H93.3867C93.3867 130.216 96.5757 111.114 101.824 97.151C104.444 90.1796 107.632 84.3453 111.312 80.2042C114.99 76.0654 119.392 73.3789 124.355 73.3789C129.319 73.3789 133.721 76.0654 137.399 80.2042C141.079 84.3453 144.266 90.1796 146.887 97.151C152.135 111.114 155.324 130.216 155.324 151.178H149.782C149.782 130.71 146.659 112.303 141.702 99.1144C139.219 92.5101 136.33 87.3581 133.263 83.9068C130.194 80.4533 127.178 78.9413 124.355 78.9413C121.532 78.9413 118.516 80.4533 115.447 83.9068C112.38 87.3581 109.491 92.5101 107.009 99.1144Z" fill="#131313" stroke="#131313" stroke-width="2.5" stroke-miterlimit="10"/>
<path fill-rule="evenodd" clip-rule="evenodd" d="M50.7982 99.1144C45.8409 112.303 42.7176 130.71 42.7176 151.178H37.1758C37.1758 130.216 40.3647 111.114 45.613 97.151C48.2334 90.1796 51.4207 84.3453 55.1007 80.2042C58.7787 76.0654 63.1807 73.3789 68.1444 73.3789C73.1081 73.3789 77.5101 76.0654 81.1881 80.2042C84.8681 84.3453 88.0554 90.1796 90.6758 97.151C95.9241 111.114 99.113 130.216 99.113 151.178H93.5712C93.5712 130.71 90.4479 112.303 85.4907 99.1144C83.0083 92.5101 80.1195 87.3581 77.0524 83.9068C73.9834 80.4533 70.9674 78.9413 68.1444 78.9413C65.3215 78.9413 62.3054 80.4533 59.2364 83.9068C56.1693 87.3581 53.2806 92.5101 50.7982 99.1144Z" fill="#131313" stroke="#131313" stroke-width="2.5" stroke-miterlimit="10"/>
<path d="M24.9756 80.2031C28.6556 84.3442 31.8429 90.1785 34.4632 97.1499C39.7115 111.113 42.9005 130.215 42.9005 151.177H37.3586C37.3586 130.709 34.2354 112.302 29.2781 99.1133C26.7957 92.509 23.9069 87.357 20.8398 83.9057L24.9756 80.2031Z" fill="#131313" stroke="#131313" stroke-width="2.5" stroke-miterlimit="10"/>
</svg>
